<svg xmlns="http://www.w3.org/2000/svg" width="109.877" height="59.738" viewBox="0 0 109.877 59.738"><path d="M290.07,331.118l.057,3.581H289.6a4.073,4.073,0,0,0-7.2-1.326,2.379,2.379,0,0,0,1.469,3.6c2.556.842,6.51.608,6.991,4.179a5.16,5.16,0,0,1-1.773,4.939c-2.152,1.8-6.7,1.963-8.631.035l-.127-3.92.494-.016a4.674,4.674,0,0,0,3.147,3.6,4.339,4.339,0,0,0,4.17-1.058,3.162,3.162,0,0,0,.481-3.473c-1.137-1.841-3.563-1.475-5.36-2.2-1.88-.755-3.191-1.7-3.183-3.831a4.141,4.141,0,0,1,2.414-4.05c2.148-1.224,5.348-1.02,7.577-.057Zm80.017,0,.057,3.581h-.525a4.073,4.073,0,0,0-7.2-1.326,2.378,2.378,0,0,0,1.469,3.6c2.556.842,6.51.608,6.991,4.179a5.16,5.16,0,0,1-1.773,4.939c-2.152,1.8-6.7,1.963-8.631.035l-.127-3.936h.494a4.674,4.674,0,0,0,3.147,3.6,4.339,4.339,0,0,0,4.17-1.058,3.161,3.161,0,0,0,.481-3.473c-1.137-1.841-3.562-1.475-5.36-2.2-1.881-.755-3.191-1.7-3.183-3.831a4.141,4.141,0,0,1,2.414-4.05c2.148-1.224,5.348-1.02,7.577-.057Zm-74.645-.546c.006.141.011.354.02.419-.359-.013-.785-.042-.976.2-.429.539-.146,1.025.028,1.626,1.094,3.778,2.153,7.544,3.344,11.265l2.194-7.916-1.465-4.568c-.163-.508-.932-.529-1.515-.605v-.419c1.7.059,3.792.121,5.429,0l0,.419c-1.761.032-1.587.7-1.176,2.132,1.063,3.693,2.051,7.442,3.217,11.085l3.166-11.932c.2-.992-.445-1.2-1.3-1.285v-.419a26.915,26.915,0,0,0,3.992,0v.419a1.186,1.186,0,0,0-1.217,1.034l-4.208,15.082h-1.646l-2.609-9.238-2.431,9.238h-1.6l-4.686-15.447a1.269,1.269,0,0,0-1.122-.67l-.031-.419a32.208,32.208,0,0,0,4.588,0Zm52.6,1.081c-.172-.5-.522-.585-1.1-.662v-.419a41.084,41.084,0,0,0,4.7,0v.419c-1.761.032-1.313.719-.853,2.132l3.627,11.142,3.518-11.932c.273-.926-.156-1.341-1.1-1.341v-.419a26.091,26.091,0,0,0,3.935,0v.419a1.208,1.208,0,0,0-1.217,1.034l-4.707,15.17h-1.484l-5.314-15.542Zm-19.047-1.081a3.956,3.956,0,0,1,3.715,4.2,4.489,4.489,0,0,1-4.2,4.13l4.99,7.118a1.83,1.83,0,0,0,1.142.737l-.013.442a7.88,7.88,0,0,0-3.056,0l-5.835-8.783c2.134-.121,4.585-.73,4.75-3.184.232-3.446-2.779-3.214-5.267-3.121v13.78c0,.654.715.853,1.194.864v.442a17.539,17.539,0,0,0-4.664,0v-.442c.567-.061,1.289-.444,1.288-1.045L323,332.132a1.175,1.175,0,0,0-1.255-1.141v-.419Zm46.942,0,0,.419c-.615,0-.983.224-.983.8v6.433c1.914-2.288,3.421-4.017,5.382-6.335.482-.57-.344-.9-.87-.9l-.018-.419a23.068,23.068,0,0,0,4.6,0v.419a1.844,1.844,0,0,0-1.247.436c-2.16,2.185-3.65,4.319-5.8,6.576,2.587,2.793,4.681,5.586,6.991,8.379a1.1,1.1,0,0,0,.927.369v.442a7.4,7.4,0,0,0-3.046,0,91.138,91.138,0,0,0-6.915-8.045v6.608c0,.994.563.969.985.994v.442a15.967,15.967,0,0,0-4.577,0v-.442c.516,0,1.149-.185,1.149-.706V331.839c0-.7-.761-.848-1.212-.848v-.419a22.271,22.271,0,0,0,4.642,0Zm9.459,16.181c.515-.017,1.1-.2,1.1-.707V331.707c0-.51-.589-.69-1.1-.706v-.443a18.27,18.27,0,0,0,4.564,0V331c-.754,0-1.221.315-1.221.878v14.033c0,.563.467.842,1.221.842v.442a13.415,13.415,0,0,0-4.564,0v-.442Zm-73.375-16.181.013.419c.7-.012.962.481.758,1.1l-4.479,13.717a1.376,1.376,0,0,1-1.192.941l-.045.419a11.839,11.839,0,0,1,3.975-.018v-.39c-.886-.072-1.418-.218-1.205-.885l1.628-5.108h4.746l1.671,5.145c.13.4-.315.792-1.078.836l0,.442a17.657,17.657,0,0,1,4.427,0v-.442c-.61-.139-1.038-.387-1.156-.737l-5.207-15.443a13.732,13.732,0,0,1-2.851,0Zm-.145,8.962,1.96-6.1,1.985,6.1Zm29.142,7.814c4.592-.08,7.062-4.339,7.234-8.291.193-4.428-2.584-9.316-7.705-8.8-4.151.421-7.087,4.687-7.056,8.636.034,4.321,2.57,8.537,7.527,8.451ZM340.133,332c1.81-.177,5.26,1.488,5.8,6.106s-1.609,7.237-4.645,7.409c-3.1.176-5.446-3.283-5.646-6.509-.22-3.534,1.44-6.709,4.491-7.007Z" transform="translate(-280.079 -287.765)" fill="#5d5d5d"/><path d="M414.457,222.654h-.129l.181-.492c.13.13.052.363-.052.492Zm-.389.673c0,.078.052.207-.051.259v-.259Zm.518.57a.348.348,0,0,1-.13.311h-.077c-.156-.129.052-.259.077-.389.052,0,.078.052.13.078Zm-1.192,0c.052.13-.078.207-.13.311l-.052-.311Zm.363.311h-.1c-.026-.1,0-.207.1-.181v.181Zm-1.243.492-.1.13a.235.235,0,0,1,.052-.389c.1.052.052.181.052.259Zm1.192.311h-.181l.233-.363c.156.052,0,.259-.052.363Zm-.881-.311c.052.207-.077.337-.1.492V224.7Zm1.555.8c-.026.078-.1.078-.182.078,0-.155-.026-.311.13-.389.1.078.052.207.052.311Zm-1.969-.182c-.026.078.052.207-.077.259h-.182a.2.2,0,0,1,.259-.259Zm-.57.57-.363.052c-.13-.285.155-.311.311-.44.1.026.026.259.052.389Zm1.425-.129c.156.129,0,.311-.052.44h-.129c-.13-.156-.052-.492.181-.44Zm-23.74,3.2c1.148,3.165-.567,7.763-2.919,10.791-2.882,3.709-6.517,7.049-8.653,11.062-.808,1.518,1.288,3.915,2.908,3.132,2.253-1.088,2.363-3.533,3.814-5.347a50.452,50.452,0,0,1,9.395-9.406c-.156.544.646.74.62,1.232l.414.078v.311c.285.13.622-.285.881,0-.57.389.389,1.088-.57,1.166a.954.954,0,0,1-.311-.492l.389-.052c.052-.233-.207-.207-.311-.311-.182,0-.233.285-.44.182a.3.3,0,0,0-.13-.311c-.181.026-.414-.052-.544.052,0,.363.648.57.051.881-.233-.673-.984.259-1.062-.311-.078-.233-.337-.078-.492-.129-.129.311-.182.6-.57.673l-.311.078c.207.077.156.363.078.492l-.078.051c.156.078.259.207.44.207.078-.182-.181-.777.311-.7.1-.13.1-.285.181-.44.337-.026.44.363.57.57a.979.979,0,0,1,.259-.311c.259-.026.44.363.725.13,0,.259-.259.544.078.751.7-.233-.1-1.3.674-1.244-.026.363.337.725-.13.985-.13.285.285.337.13.622a.49.49,0,0,0-.233.492c-.311-.052-.466.44-.751.182.052-.363.881-.492.311-.985-.259.052-.337.544-.622.181-.052-.233.544-.44.051-.622l-.492.181c0-.233-.233-.57-.492-.363a3.422,3.422,0,0,1,.052.752v.311c-.13.129-.259-.026-.363-.13-.026.233-.518.492-.077.674.077-.1.233-.182.311-.1.052.544-.363.984-.1,1.658-.829.311.622,1.425-.57,1.244-.156.155-.181.518-.492.44l-.078-.492c-.156-.052-.259.13-.311.259a3.28,3.28,0,0,1,.259.855c.1.285.259-.052.44.077a.35.35,0,0,0,.181.415c.155.078.181-.1.259-.181-.182-.311-.7-.544-.311-.985h.1l.077.544c.207-.259.518-.207.8-.311-.051-.259-.337-.207-.492-.311l-.129.207c-.052-.181.078-.207.182-.259.259-.233.207-.725.57-.8.363.026.026.518.44.544.052.311-.285.1-.389.259.6.233-.052.933-.129,1.373-.156.156-.259.052-.415,0-.026-.156.026-.311-.13-.389-.077.259-.518.6-.259.881-.337.544.389.492.311.933.233,0,.363.311.57.363.052.337-.285.518-.492.7.078.156.233.1.363.13.182-.078.156-.415.363-.207.1.233-.1.44-.363.518-.44.078-.414-.389-.622-.57.026-.155.233-.233.259-.362-.233-.182-.389-.156-.311-.518.181-.078.026-.182,0-.311-.156-.155-.285.13-.44.078.078-.337.156-.751-.311-.751-.1-.026-.13.078-.182.13-.026.233.389.129.233.44-.078.1-.285,0-.363.1a1.239,1.239,0,0,0,.311.44c.155.052.207-.129.363-.052a4.561,4.561,0,0,1,.311,1.166l-.181.078c-.156-.389.077-.752-.311-1.011-.1.129-.052.311-.052.44-.129.052-.414.052-.44-.182,0-.155.285-.337,0-.44-.182-.052-.259.182-.389.259a1.643,1.643,0,0,1,.078,1.166l-.44-.363c-.026.518-1.01.311-.57.984a2.292,2.292,0,0,1,.751-.544c.052.207.363.285.259.544-.181.337-.414-.1-.622.13-.13.156-.466-.052-.492.182h-.207c.1-.259-.233-.985.311-.855.077-.156-.1-.207-.182-.311-.285-.13-.259.259-.44.311-.155-.44-.466-.078-.725,0-.026.155.1.259.052.44-.233.207-.648-.207-.881.233.1.233.363.1.518.078a.38.38,0,0,0,.1.544l.078.077c-.311.181-.855.415-.622.855-.182-.051-.259.1-.389.182-.078.259.233.13.311.259l.57-.311c.13.156.052.518-.181.492-.233-.13-.725.311-.751-.233-.156.026-.363-.052-.311-.207-.052-.078-.129-.052-.181-.052-.078.078-.182.13-.13.259.1.207.337.155.492.233.052.648-.6.078-.492.7.233-.129.363.182.311.415-.078-.026-.129.1-.181.13a.651.651,0,0,1,.052.389l-.182.182c.13.233.44.233.311.622-.129.13-.311.259-.363.44H386.4a.63.63,0,0,0-.1-.7c-.751.259-.673-.7-1.062-.855-.052-.1.1-.415-.13-.518h-.13c-.259.492,1.011,1.244-.052,1.373a8.817,8.817,0,0,0-.44,1.244c-.233.052-.544-.026-.57-.233.207-.13.337.207.441-.078-.026-.182.077-.466-.182-.492l-.052-.052c-.026.13.052.518-.311.363-.1-.156-.078-.363-.259-.492-.363.259.492.959-.259.933-.1.052-.026.207-.052.311.259.1.6-.389.673.182-.1.285-.233-.078-.362.13.129.829-1.192.026-.57.933h.078v.181c-.622-.311-.777.855-1.321,1.062-.182.052-.182-.077-.233-.181l-.078-.078c-.259,0-.181.57-.492.181-.233-.337.155-.674.389-.8.207.1.077.337.1.492.13.077.311-.078.311-.233v-.13a.236.236,0,0,0,.311-.181c-.285-.285.259-.622.078-.933h.233c.13.285-.285.466,0,.673.1-.233.414-.363.311-.673l.44-.078v-.182l-.492-.051c.026-.156.466-.415.129-.622-.414,0-.259.44-.389.673-.181.182-.363-.026-.544-.051-.751.363.389.881-.259,1.166-.311-.207.414-.985-.363-.855-.389-.233.207-.466-.078-.751-.1.389-1.347.673-.622,1.244.311-.207-.052-.44.259-.622l.182.259a.323.323,0,0,0-.13.311l.078.052.311-.259c.182.182-.1.415-.13.622h-.129v-.233c-.078-.078-.233,0-.311.129.13.181-.026.311-.052.492-.959-.155.337,1.088-.622.673.181-.233-.1-.44-.078-.673l.389-.13c-.544-.233.285-.622-.259-.8-.026-.078.052-.207-.052-.259l-.389.13c.052-.078.052-.182.13-.259l-.182-.182c-.13.285-.57.259-.8.259-.026.311-.363.1-.492.233-.182-.233.052-.389-.129-.622a.523.523,0,0,0-.492-.182l-.13.13a.44.44,0,0,1,.363.622c-.078.051-.052.129-.052.181.466.026.933.389,1.3-.181.285.051.751.1.751.44-.078-.026-.129.077-.181.129.259.44-.518.622-.078.985-.1.181-.389.052-.414.311h-.13l.13-.259c-.207-.078-.337-.207-.207-.414l.078-.078c-.311-.285-.233.363-.57.182a.865.865,0,0,1,.182-.622c.156-.052.414-.1.44.13.052.129-.052.181-.13.259.156.156.311-.052.44-.078a.965.965,0,0,0-.233-.492c-.415-.285-.751.207-.881.492-.052.078-.026.259-.181.207-.078-.1-.052-.337-.259-.259-.259.156.259.233,0,.363.13.233.363.155.44.44l.311-.233c.026.078.182,0,.13.1v.207c-.182-.078-.259.078-.389.182,0,.077.052.207-.052.233-.052.026-.078-.026-.13-.052.026-.129.233-.259.078-.363l-.389.311c-.389-.233.311-1.01-.363-.829-.078-.052-.13-.156-.259-.1-.026.1-.181.155-.129.311a1.417,1.417,0,0,1,.44,1.166c-.156.156.1.622-.311.492l.078-.933c-.1-.052-.518.1-.389-.233l-.052-.078c-.207.233-.57.078-.751.389-.052.181.233.233.13.44-.285.337-.622-.44-.751.181l.129.363c-.44.1-.415-.544-.751-.622l-.052.622c-.44,0-.673-.285-1.062,0a.392.392,0,0,0,.052-.492c-.026-.026-.052-.078-.129-.052-.233.1-.026.415-.182.544-1.3-.182-1.684-1.607-2.047-2.617-1.243-5.884,1.73-9.386,4.605-13.3,1.507-2.745,12.793-11.744,9.7-15.638-1.612-2.028-3.847.526-4.634,1.935-.883,1.581-1.7,3.166-3.541,3.192-.337.156-.53,1.137-.721.8-.672-1.193.844-.872.139-1.86-.337-.471-1.453-.459-.967-1.3.187-.323.816-.613.527-1.033-.168-.244-.371-.25-.678-.216-.912.1.3,1.55-1.011,1.325-.446-.077-.413.365-.646.675-.259.777.985.74.5,1.4-.258.348-.707-.027-.941.543-.518-.13-.621-1.014-.792-1.449-.523-1.332.471-3.887,2.189-5.053a23.7,23.7,0,0,1,8.714-3.524,5.215,5.215,0,0,1,5.665,2.889Zm24.931-2.526a.12.12,0,0,0-.129.078V226.2h.129v.233Zm-3.6-.13c.1.259-.207.285-.389.389a.928.928,0,0,1,.389-.389Zm1.244.13c-.1.13-.052.492-.311.389-.233-.181.1-.466.311-.389Zm-1.943.622-.052.078v-.311c.1.026.026.156.052.233Zm2.487-.233c.026.156-.1.259-.052.415a.162.162,0,0,0-.13.078c-.285-.156.026-.492.182-.492Zm-1.062.182c0,.077.052.207-.052.233-.077,0-.155.026-.181-.052-.026-.129,0-.181.129-.259.052,0,.078.052.1.078Zm-.673.13c.078.233-.13.207-.259.311-.156-.13.052-.259.077-.389a.193.193,0,0,1,.182.078Zm2.617,0c.077.051,0,.207-.078.311h-.1c-.052-.156.026-.311.182-.311Zm-4.042.363h.311v.052c-.181.233-.466-.182-.492.207h-.13c-.207-.311.337-.933.311-.259Zm5.1.129c.052.156-.1.233-.13.363h-.129c-.052-.181.052-.415.259-.363Zm-3.005.311c-.052.026-.078.155-.181.129l.129-.259c.026.026.078.078.052.13Zm-1.347-.078c-.207.1-.155.6-.518.518-.182-.285.285-.466.518-.518Zm-1.554.389h-.311c-.052-.156.129-.311.311-.259v.259Zm3.912-.259c.052.156-.078.207-.13.311h-.181c-.1-.156.129-.285.311-.311Zm-4.3,1.062c-.078-.156-.363-.285-.492-.052-.1-.285.156-.389.259-.57.1.129.466.363.233.622Zm1.011-.57c.052.182-.13.207-.208.311h-.1c-.051-.155.13-.337.311-.311Zm-1.684.078c0,.13.026.285-.13.363h-.182c-.1-.207.156-.363.311-.363Zm3.031.233h-.1v-.181h.1v.181Zm.932-.181c-.078.13.026.44-.233.389-.052-.181.026-.415.233-.389Zm-1.969.181c.026.207-.078.207-.207.259,0-.13.026-.311.207-.259Zm4.223.078c.078.233-.156.337-.259.492h-.052c-.156-.182.077-.492.311-.492Zm-5.285.182c0,.052-.026.078-.077.129v-.129Zm2,.052c-.156.13-.259.311-.389.389-.13-.207.207-.466.389-.389Zm-3.239.57a1.4,1.4,0,0,1-.57.259,1.211,1.211,0,0,1,.492-.829l.077.57Zm4.223-.44c.026.129-.052.181-.129.259h-.13c.026-.1.078-.44.259-.259Zm-3.783.181-.077.078v-.182c.026.026.077.052.077.1Zm4.4-.052c.156.13-.026.285-.13.363h-.13c.026-.155-.026-.492.259-.363Zm-2.8.13c-.156.156-.207.492-.492.492-.13-.337.259-.492.492-.492Zm1.606.363c-.182-.052-.026-.233,0-.363.207.052.052.233,0,.363Zm-2.85-.052c-.026.078.051.207-.052.233-.182.077-.13-.1-.207-.182.078-.052.182-.207.259-.052Zm-2.047.855a.977.977,0,0,0-.311.259c-.052-.156-.181-.285-.13-.492.285-.078.674-.259.674-.622.363.389-.363.44-.233.855Zm3.42-.363-.078-.259h.078v.259Zm-1.943-.052a1.064,1.064,0,0,1-.414.415l-.078-.052c.1-.155.259-.44.492-.363Zm-.855.1h0Zm6.969.078c.078.129,0,.337-.078.492H413.4c0-.207-.026-.518.259-.492Zm-4.87.181-.052-.13h.052v.13Zm-.855.492c-.182-.156.026-.492.233-.544a1.083,1.083,0,0,1-.233.544Zm6.58-.544c.156.13-.077.285-.129.415H414.2a.332.332,0,0,1,.311-.415Zm-3.342.233a.274.274,0,0,1-.311.13c0-.13-.052-.285.1-.311.052.1.233.052.207.182Zm-5.855-.13c.078.285-.389.415-.13.7-.181.1-.337.285-.544.311a.221.221,0,0,0-.078-.13c.078-.182.363-.13.311-.363-.026-.078-.1-.078-.181-.078a.876.876,0,0,1,.622-.44Zm6.089.751c-.13-.155,0-.363.129-.492v.492Zm1.632-.363c.026.156-.052.389-.208.363-.207-.155.13-.363.208-.363Zm-7.41.052c.026.078-.026.1-.051.13h-.13c-.026-.1.1-.156.181-.13Zm.674.44c-.13-.078,0-.285.129-.363,0,.13.026.285-.129.363Zm2.487-.182c0,.078.052.207-.052.233v-.233Zm1.244.233h-.233c-.077-.156.078-.285.233-.233v.233Zm-5.777.259c-.156.207-.466.363-.492.622.259.026.751.026.881-.363h.052c-.311.285.389.673-.182.933-.259-.078-.233-.648-.57-.259.078.1.026.233.13.311-.052.078-.13.052-.181.052-.466-.129-.078-.673-.57-.725-.026.492-.7.389-.622.933-.1.1-.363.052-.363-.13.492-.207.518-1.036,1.062-1.114.051.1.051.233.181.311.337-.207.259-.751.622-.933.1.026.026.233.052.363Zm1.554-.181h-.363c.026-.182.207-.207.363-.182v.182Zm1.062-.078c.052.156-.077.207-.129.311h-.052c-.13-.1,0-.363.181-.311Zm2.746.078c0,.052-.052.078-.078.129h-.13v-.207c.078.026.156,0,.207.078Zm-4.482.129c-.026.078.052.207-.077.233H405V231.8Zm2.487.8c-.078.026-.1-.026-.13-.078-.026-.233.414-.389.44-.674.1.207-.182.57-.311.752Zm-2.306,0c-.1-.1-.052-.285-.052-.44a.392.392,0,0,1,.363-.182l-.311.622Zm.8-.492-.052-.13h.052v.13Zm4.612-.13c-.026.1.052.233-.077.311h-.1c-.052-.155.026-.363.181-.311Zm-2.357.233a.161.161,0,0,0-.13.077l.13-.259v.182Zm3.6-.052a.61.61,0,0,1-.129.259h-.182c.052-.13.078-.337.311-.259Zm.855.052c.182.181-.052.337-.1.518-.078.026-.156-.078-.13-.129-.1-.207.156-.363.233-.389Zm-6.58.207v.1c-.078.129-.181,0-.259-.052.026-.026.181-.233.259-.052Zm8.342.233-.078.078v-.311c.13-.026.052.156.078.233Zm-6.3.078h-.13l.078-.129c.026.026.078.051.052.129Zm-1.244.233c-.337.078-.026.544-.44.492.181-.233-.13-.8.389-.8.182,0,.13.233.052.311Zm2.8.181v.207c-.259.052-.259-.44-.622-.259l.078-.259c.207.052.622-.052.544.311Zm-4.586-.233c-.077.181-.207.466-.389.492,0-.156-.078-.7.389-.492Zm.492,0c-.1.207-.026.6-.311.622-.078-.207.1-.622.311-.622Zm-2.435.052h0Zm8.575.129c.052.156-.077.207-.1.311h-.13l.052-.44c.1-.026.13.078.181.129Zm-3.161,0a.262.262,0,0,0,.13.311c-.052.1-.182.052-.259.052a.2.2,0,0,1,.13-.363Zm-6.788.13c.13.259-.233.544.078.674l.129-.13c.026.363-.362.6-.129.933h-.182c.233-.259-.155-.285-.259-.492h-.052l.181-.311c-.492-.156.078-.648.233-.674Zm1.632.44c-.1.389-.518.259-.8.311-.13-.077-.052-.207-.078-.311.259-.285.778-.57.881,0Zm4.534-.389a.492.492,0,0,1-.13.259v-.259Zm-3.679.259c.052.259-.233.389-.311.622a.28.28,0,0,1-.363-.259l.57-.441c.026.052.052.1.1.078Zm.752.363v.077c-.182,0-.311-.207-.492-.077l.259-.233a.307.307,0,0,1,.233.233Zm6.3-.233c.155.1-.052.233-.078.363h-.13v-.363Zm-5.8.233-.052.077v-.259c.078.052.052.13.052.182Zm3.938-.13c.052.181-.13.207-.207.311-.1.026-.026-.155-.052-.233.1,0,.129-.1.259-.078Zm2.487.389v.052h-.13c-.155-.13.078-.285.13-.44.182.078.026.233,0,.389Zm-5.855-.259v.181h-.259c-.052-.1.155-.363.259-.181Zm4.223.077v.1c-.13.156-.285,0-.363-.1,0-.207.311-.181.363,0Zm-2.487.052v.182a.633.633,0,0,1-.751-.13v-.1c.259.415.518-.285.751.052Zm-6.84.311c-.078.259.259.363.311.57a.283.283,0,0,1,.311.1c.026.233-.259.311-.311.518h-.181c-.233-.259.285-.415-.052-.622l-.881.052a.722.722,0,0,1,.622-.933c.156-.052.207.182.182.311Zm7.591-.311c.026.078-.078.13-.13.182h-.129c.026-.078.129-.233.259-.182Zm-5.6.259c.233.519-.57.855-.363,1.347-.207.1-.337.311-.57.259v-.363a.422.422,0,0,0,.492-.259c.052-.1-.052-.181-.129-.259-.156.026-.311.233-.492.078a2.472,2.472,0,0,0,.389-.933c.181.155.44.363.673.129Zm1.995,0c-.155.13-.129.337-.129.544h-.13c-.155-.207.052-.415.078-.622a.193.193,0,0,1,.181.077Zm8.265.492c-.182-.207.052-.363.181-.492.13.1.078.519-.181.492Zm-7.772,0v-.389l.13.13-.13.259Zm1.244,0-.363-.077.1-.311c.181.052.233.233.259.389Zm3.239-.389c-.026.1.052.259-.078.311h-.1v-.311Zm-5.985.13c0,.207-.233.156-.363.182a.217.217,0,0,1,.363-.182Zm3.5.182-.182.207-.207-.207c.026-.285.466-.259.389,0Zm-6.84-.1h0Zm3.6.1h0Zm1.866.311v.078c-.156.129-.285-.078-.44-.13l.129-.259c.182.051.233.181.311.311Zm-6.347-.1c-.156.363.052.648-.052.933-.078.285-.311.622-.622.311.1-.363-.492-.337-.182-.7.363.026.518-.492.855-.544Zm8.964.182h-.13c-.026-.1.026-.207.13-.182v.182Zm-4.612,0c.207.155-.1.389-.052.622-.6.389-.57-.44-1.011-.492l.078-.207c.285.13.7.337.985.078Zm1.192.052v.129a.137.137,0,0,1-.181-.181c.052,0,.13-.026.181.052Zm9.145-.052c.026.181-.078.285-.13.44v-.44Zm-38.274.424c-.044.674.547,1.258.065,1.96-1.218,1.4-1.02,3.113-2.755,4.333a2.01,2.01,0,0,1-1.495.143c.277-1.486,1.178-3.3,1.089-3.782.738-.957.1-2.273,1.576-2.195.156-.337.336-.849.8-.833.29.01.354.45.717.372Zm28.559-.372c-.337.259.544.648-.13.622a.64.64,0,0,1-.1-.492.226.226,0,0,1,.233-.129Zm5.052.077v.182h-.13v-.259c.052-.026.078.026.13.077Zm-9.767,0h.078v-.1h-.078v.1Zm.751.052c.052.466-.622.337-.57.8h-.181c.285-.259.13-1.088.751-.8Zm6.633.363a.461.461,0,0,1-.1.259c-.207-.1-.337-.492-.207-.622.155,0,.207.259.311.363Zm.881-.363c0,.078.026.156-.052.182l-.13-.182Zm2.85,0c.1.259-.13.311-.311.363-.078-.207.155-.363.311-.363Zm-5.518.052c.1.233-.181.337-.311.389-.052-.026-.078-.078-.13-.078.078-.129.337-.233.44-.311Zm-4.3.7.259-.492v.492Zm1.943-.389h.051v.13H403.4v-.13Zm5.907.078c.052.156-.13.156-.208.233-.078,0-.207.051-.233-.052.052-.156.259-.363.44-.182Zm4.145.13c.052.1-.052.155-.1.233-.078.026-.1-.026-.13-.051-.052-.13.13-.389.233-.182Zm-14.4.415c.026.13-.078.181-.13.259l-.57-.259-.233.518c.311-.078.647.078.933-.078.13,0,.285-.026.363.13-.078.129-.1.337-.311.259-.492-.544-.544.492-1.062.052-.207-.182.182-.492-.233-.492-.259.052-.233.311-.259.492.13.052.544.129.311.363-.129.13-.259.311-.129.44.311.259.259-.311.57-.233-.026.259.285.622.129.855-.129-.077-.207-.285-.389-.233-.182.078-.1.337-.311.363-.1,0-.026-.156-.052-.259l.13-.1-.57-.311a1.438,1.438,0,0,0,.363-.829c-.1-.052-.337-.1-.311-.311,0-.389.466-.44.7-.673l.311.13c0-.57.648-.492.751-.078Zm2.228.13a.528.528,0,0,0-.311.622H400.7c.337-.337-.492-1.011.311-1.062.259,0,.285.259.259.44Zm1.865-.233h-.181v-.13h.181v.13Zm.57-.13c-.026.078,0,.156-.078.182v-.182Zm3.109.182c-.13.078,0,.389-.259.311-.156-.1-.259-.285-.13-.44.156,0,.311-.026.389.13Zm7.694-.13c.026.156,0,.415-.233.311a.226.226,0,0,1,.233-.311Zm-11.995.182c.026.13-.052.181-.13.259h-.052c-.182-.1.026-.207.052-.311.052-.026.1.026.13.052Zm3.419,0c-.077.259-.414.518-.362.881h-.259c-.052-.389.259-.7.44-.933.052,0,.13-.026.181.052Zm-1.554.207c.078.155-.1.129-.181.181a.3.3,0,0,1-.311-.13c0-.285.337-.259.492-.051Zm.622-.078h-.13v-.13H405v.13Zm8.757.129v.182h-.181v-.44c.181-.052.207.13.181.259Zm-3.29-.181c-.026.078.052.207-.052.233h-.13v-.233Zm-7.28.181v.052h-.182c-.026-.078.156-.181.182-.052Zm6.425.182-.13.13c-.155-.052,0-.259.052-.363.13-.026.052.155.078.233Zm-9.534-.182c.181.182-.026.363-.052.57-.13,0-.311-.026-.259-.207-.078-.207.156-.363.311-.363Zm1.684.052c.026.207.026.518-.233.518-.207.052-.207-.078-.259-.207a.508.508,0,0,1,.492-.311Zm6.477.078a.226.226,0,0,1-.13.233v-.233Zm-2.176.052h.052v.13h-.052v-.13Zm-3.368.13c.156.155-.026.285-.181.311-.1,0-.052-.156-.052-.259.077.026.13-.1.233-.051Zm4.353.051c-.026.1.052.207-.052.259h-.13c-.026-.13,0-.311.181-.259Zm-2.539.207-.078-.13h.078v.13Zm2.979.311c-.052.1-.156.026-.259.052-.1-.155.1-.363.259-.492.233.078.026.285,0,.44Zm-3.783-.389c.1.13-.026.311-.078.44-.182.078-.13-.1-.182-.182a.214.214,0,0,1,.259-.259Zm4.9,0c.078.337-.337.337-.363.57-.181-.182,0-.7.363-.57Zm4.43.389h-.208c-.155-.13.052-.259.078-.389h.13v.389Zm-15.8,0c-.052.13-.311.156-.44.052l-.052-.052c-.078.207-.414.389-.259.622l.389-.389c0,.1.156.026.1.129,0,.363-.648.7-.233.985-.052.259.078.492-.078.751-.1.052-.155-.052-.233-.129,0-.182.285-.389,0-.544-.933.026.026.907-.8,1.244.1.052.026.207.052.311a.349.349,0,0,1-.311.13c-.078-.182-.052-.466-.311-.518h-.181c.026-.1-.052-.233.052-.311.311-.13.6.777.57,0-.078-.078-.181-.078-.259-.182-.1-.311.466-.129.259-.44l-.44-.233c.026-.44.518-.6.881-.7.207-.285.259-.907.8-.8.1-.389.389-.181.492.078Zm14.042-.311c.052.181-.052.285-.1.415h-.129c-.026-.182,0-.466.233-.415Zm-10.881.181-.052.052-.052-.129c.052,0,.078.052.1.077Zm1.554.052c-.026.207-.155.233-.311.311l.207-.44.1.129Zm2.928.57c-.155-.1-.466-.207-.492-.44l.311-.259c.311.155.181.492.181.7Zm-5.285-.622h.1v-.1h-.1v.1Zm-.674.182.363.052c0,.078.026.156-.051.207h-.182c.026-.078-.078-.156-.13-.13h-.181c-.026-.13,0-.337.181-.259v.13Zm2.228-.13c-.13.259-.363.57-.182.881l-.622.544c-.026-.544.57-.907.44-1.425Zm1.995.259-.052.052v-.311c.1,0,.026.182.052.259Zm3.161-.182c.052.182-.052.285-.1.415h-.207c-.1-.207.181-.337.311-.415Zm-3.42.544v.13a1.125,1.125,0,0,1-.622-.13c-.129-.13,0-.337.13-.44.337-.026.337.233.492.44Zm5.907-.182H408.6a.137.137,0,0,1,.182-.181v.181Zm1.244-.181c.026.155-.13.337-.233.311-.026-.156,0-.415.233-.311Zm-9.689.311v.052c-.181.181-.363-.026-.57-.052v-.259a.562.562,0,0,1,.57.259Zm6.27-.13h.078v.182h-.078v-.182Zm-7.462.492-.181.752c-.181-.182-.363.051-.492.181a.192.192,0,0,1-.052-.311.432.432,0,0,0,.414-.44c.052-.233-.207-.415-.051-.622.233-.052.285.285.362.44Zm4.975-.181h-.1l.052-.259c.1.052.052.182.052.259Zm8.031.051c-.078,0-.156.026-.182-.051-.078-.13.078-.233.182-.259v.311Zm-10.311.259a.466.466,0,0,1-.389.181c-.078-.026-.078-.207,0-.233l.389-.311c.233.1,0,.233,0,.363Zm11.814-.363c-.1.155-.078.415-.259.492-.155-.1-.026-.518.259-.492Zm-10.259.052c-.026.077,0,.155-.078.181l-.052-.181Zm3.783.051c0,.233-.1.389-.052.622-.13.13-.415-.13-.518.13-.233-.44.6-.259.389-.751Zm.492.078c.026.052-.026.078-.052.13l-.078-.207a.162.162,0,0,1,.13.078Zm-8.083,0c.026.052-.026.078-.052.13l-.078-.13Zm-3.549.13c.1.13-.13.285-.182.415-.129-.078-.051-.466.182-.415Zm1.451.182a.31.31,0,0,0,.181.492c.078-.1.233-.052.363-.052v.492h-.311c.026-.1-.078-.129-.13-.181a.376.376,0,0,1-.492-.13c.129-.207-.207-.492-.182-.8a.581.581,0,0,1,.57.182Zm11.114-.13c.052.285-.285.207-.44.311-.1-.259.207-.259.311-.363.077-.026.1.026.129.052Zm.57.181c-.078-.026-.1.026-.13.078-.207-.1-.052-.207,0-.311h.13v.233Zm-4.534-.181c.181.207-.13.363-.207.57l-.1.1c-.259-.233.182-.57.311-.673Zm1.554.181c-.1.207-.285.1-.44.13-.13-.311.466-.466.44-.13Zm-4.119.182.129-.311v.311Zm1.554.078c-.233.078-.389-.311-.544.052v.077c-.1,0-.285.026-.259-.129-.052-.182.078-.259.181-.389h.622v.389Zm-3.653-.311a3.419,3.419,0,0,0-.13.855c-.156,0-.311.051-.389-.1.026-.311.155-.7.518-.751Zm14.3.181c-.026.078.052.207-.078.259-.078,0-.156,0-.181-.077-.026-.13,0-.182.129-.233.026.026.052.078.13.052Zm-9.016,0a.349.349,0,0,1-.13.311h-.077a.251.251,0,0,1,.207-.311Zm-3.86.182c-.077.155.13.207.182.311.052-.1.207-.026.311-.052v.182c-.156.155-.182.544-.492.57.207-.518-1.036-.829,0-1.01Zm-6.347.311a.476.476,0,0,1-.311.44c-.156.078-.207-.13-.182-.259a.294.294,0,0,1,.13-.415c.182-.1.311.1.363.233Zm7.643.078h-.129c-.026-.078.077-.156.129-.13v.13Zm7.591-.078v.182a.185.185,0,0,1-.259-.233c.1.026.207-.052.259.052Zm-9.819.311c-.077.078-.129.182-.259.13-.1-.052-.026-.156-.052-.259l.181-.182c.129.026.259.207.129.311Zm3.031-.181c.052.233-.077.363-.233.492-.182-.13.052-.466.233-.492Zm5.363.129c-.026.078.052.207-.078.233-.052,0-.13.026-.182-.052a.262.262,0,0,1,.13-.259c.026.051.052.1.13.077Zm-9.819.492c-.1.078-.1.182-.207.259.156.415.44-.052.7,0v.363c-.544-.233-.648.44-1.192.363a.388.388,0,0,1,.13-.311c-.1-.389.363-2,.57-.674Zm5.285-.129c-.051.129-.181.051-.259.077-.1-.052-.052-.181-.052-.259l.182-.182c.1.052.129.207.129.363Zm2.8-.363c.026.182-.078.182-.207.233v-.233Zm-1.5.052c-.026.337-.155.8-.57.622-.156-.13.051-.233.077-.363.13-.156.259-.311.492-.259Zm4.353.078a.606.606,0,0,1-.259.415h-.1c-.233-.259.156-.57.363-.415Zm3.42.233c-.207.026-.13-.259,0-.311v.311Zm-13.809-.182c.077.182-.1.13-.182.182h-.052c-.026-.13,0-.182.1-.233.078-.026.1.026.13.052Zm8.161-.052c.13.13,0,.311-.077.415h-.182c-.156-.156.052-.492.259-.415Zm-10.259.363.725-.259c.026.57-1.3.855-.363,1.192.052.182-.077.285-.129.44-.285.026-.363-.207-.492-.389-.156-.363.6-.492.052-.8-.155.026-.337,0-.363-.182a.332.332,0,0,1,.44-.311c-.052.156.078.207.13.311Zm8.445-.181-.051-.13h.051v.13Zm-3.471.673a.742.742,0,0,1-.389-.622c.233-.026.363.155.492-.13.259.233-.156.518-.1.751Zm-5.855-.44c-.13.233.026.7-.363.7-.051-.026-.077-.078-.129-.078,0-.156.285-.44-.078-.492h-.1c-.026-.363.518-.415.674-.13Zm3.86.259h-.44c0-.181.285-.259.44-.363v.363Zm12.307-.363c.026.13-.026.337-.182.311v-.311Zm-5.907.182c-.077.155-.233.389-.44.363-.129-.156,0-.363.13-.492a.3.3,0,0,1,.311.13Zm-5.855.181-.1.13-.077-.389c.155,0,.129.182.181.259Zm7.772,0c0,.078.026.156-.052.182h-.182c-.026-.129,0-.182.13-.233.052-.026.078.026.1.051Zm1.865,0c.077.182-.078.259-.182.363h-.052v-.363Zm-16.218.182c-.13.311-.259-.052-.44,0,.181.466-.233.8-.622,1.011h-.052v-.518c.13.026-.051.415.233.311.182-.363.1-.725.57-.932.1.207.363-.182.311.129Zm9.378.13v.259c-.259.1-.311-.233-.363-.389.026-.233.441-.1.363.13Zm-6.762-.182c.026.052-.026.078-.077.13h-.1v-.13Zm2.85.44-.182.182.13-.492c.052.026.181.207.052.311Zm1.114.415c-.078.026-.1-.078-.181-.1.1-.259.259-.57.57-.622.182.285-.389.44-.389.725Zm4.663-.725c.026.078-.078.1-.1.182h-.207c-.078-.259.259-.026.311-.181Zm2.073,0a.284.284,0,0,1-.207.311h-.233a.322.322,0,0,1,.44-.311Zm-3.057.1c.052.207-.207.155-.311.207l.052-.259c.1,0,.156.1.259.052Zm4.612-.052a.349.349,0,0,1-.13.311v-.311Zm-12.384.311c-.13.466.544.881.129,1.192-.155-.1-.337-.078-.44-.259a.74.74,0,0,1-.492.311c-.156-.13,0-.311.052-.44.1-.285.648.078.492-.363-.077-.156-.233-.13-.363-.13-.1-.233.182-.363.311-.44a.349.349,0,0,1,.311.13Zm3.472.363h-.182l.078-.492h.1v.492Zm2.487-.233h-.1v-.182h.1V241Zm8.524.129c-.052.1-.156.026-.233.052-.181-.259.311-.363.233-.052Zm.881-.207c.1.285-.182.389-.259.57h-.13a.464.464,0,0,1,.389-.57Zm-4.223.078c.1.129-.026.181-.078.311h-.13c-.026-.156.052-.363.207-.311Zm-6.3.233-.052-.1h.052v.1Zm-2.176-.052c.181.415-.466.44-.622.674l-.181-.052c.285-.182.415-.622.8-.622Zm15.182,0c.052.156-.078.207-.13.311h-.052v-.311Zm-11.944.622c-.207,0-.311.259-.57.181a.587.587,0,0,1,0-.751c.1.311.622.182.57.57Zm7.409-.492c-.026.078.052.207-.077.233-.078.026-.13-.077-.182-.1-.078-.182.182-.259.259-.13Zm-4.741.052c-.415.052.078.725-.44.7-.1-.026-.026-.207-.052-.311l.44-.44.052.052Zm-7.151.389h-.311c-.129-.13.026-.285.13-.389h.181v.389Zm8.161-.078c-.052.052-.1.078-.078.13h-.181c-.1-.182.181-.363.259-.13Zm2.72-.13c.156.156.026.337-.13.44h-.181c-.1-.233.181-.337.311-.44Zm-7.332.311v.129c-.207,0-.466.182-.622-.052v-.311a.624.624,0,0,1,.622.233Zm5.285-.1c-.207.233,0,.648-.182.8-.518-.155-.13-.8.182-.8Zm-6.529.233c.026.1-.078.13-.13.182v-.233c.051-.026.1.026.129.052Zm3.472-.052c-.052.1-.052.233-.181.311h-.181c0-.156.155-.415.363-.311Zm-4.041.622h-.544c-.207-.207.155-.363.129-.57.1.13.544.285.415.57Zm3.109-.57c0,.078.026.156-.052.182v-.182Zm8.161,0c.155.207-.026.415-.182.57h-.129c.1-.182.026-.57.311-.57Zm-12.254.078c.026.233-.259.233-.363.363a.236.236,0,0,1-.311-.181c.13-.311.466.1.674-.182Zm9.2.052c.052.233-.233.182-.311.363h-.13c-.078-.207.182-.337.311-.415.052.026.078.078.13.052Zm-3.6,0h.1v-.1h-.1v.1Zm-7.591.57c-.182.207-.544.1-.752.1.078-.207.078-.648.389-.622-.1.44.518.052.363.518Zm1.01-.13c-.6.1-.1,1.554-.829.673h-.233c-.155-.466,1.218-.311.311-.8v-.259c.259.078.648.026.751.389Zm4.041-.389c.026.233-.026.492-.311.389l-.078-.078c.052-.129.207-.337.389-.311Zm-10.777.7c-.182-.052-.13-.363-.052-.492l.13-.077c-.026.052-.233.389-.078.57Zm4.612-.57c.233.648-.725.751-.363,1.373l-.311.311.363.44c-.026.13-.389-.026-.311.233l.44.078c-.052.233-.44.337-.57.544-.13-.182-.415-.233-.363-.544.337-.337-.233-1.088.492-1.244-.156-.311.077-.8-.052-1.114a1.914,1.914,0,0,0,.673-.077Zm13.861.077c.077.285-.13.44-.182.674h-.13a.667.667,0,0,1,.311-.674Zm-9.327.415h-.13c-.052-.1.1-.207.129-.233v.233Zm.622,0-.052-.181h.052v.181Zm1.554-.1v.1h-.181V242.6c.078,0,.155,0,.181.078Zm4.845,0c-.026.078-.026.181-.1.233h-.207c.077-.1.1-.337.311-.233Zm-8.757.052c.1.259-.233.466.129.622.1-.1.285-.052.44-.052.259.233-.207.182-.207.415-.155.078-.259.259-.492.207-.026-.389-.415-.44-.44-.829.207-.1.311-.44.57-.363Zm15.285.051a.27.27,0,0,1-.1.311h-.13c-.13-.156.078-.285.233-.311Zm-8.005.078c-.026.078.052.207-.077.233H405.8c.078-.078.052-.311.259-.233Zm2.047,0c.1.233-.207.285-.182.492h-.13a.309.309,0,0,1,.311-.492Zm.88,0a.284.284,0,0,1-.207.311c-.182,0-.13-.233-.052-.311Zm-7.461.052c-.026.13.052.337-.13.311h-.181c-.052-.207.078-.389.311-.311Zm2.047,0c.078.207-.181.337,0,.492l.233-.182c-.155.182.078.544-.181.622l-.13-.311-.181.077c-.13-.259-.078-.725.259-.7Zm1.166,0c0,.363-.389.285-.544.492l-.13-.1c.13-.259.363-.492.673-.389Zm-4.845.389h-.13v-.311h.13v.311Zm-6.581,0a.2.2,0,0,1-.259-.259h.259v.259Zm2.979-.259c0,.078.026.156-.052.181.233.259.881,0,.8.492-.233.363-.622.389-.8.622l-.129-.363c-.13.026-.208.181-.389.129,0-.181.1-.259.259-.311h.13c0,.078-.026.156.052.182a.262.262,0,0,0,.311-.13v-.181c-.233-.182-.6.155-.622-.311a.477.477,0,0,1,.44-.311Zm4.4,0a.726.726,0,0,1-.415.57h-.078c-.026-.285.311-.544.492-.57Zm5.907,0a.266.266,0,0,1-.233.363H406.3c-.026-.156.233-.337.311-.363Zm5.363,0a.784.784,0,0,1-.129.492h-.13c-.052-.13.052-.492.259-.492Zm-19.9.259-.181.182c-.078-.078-.207-.182-.078-.259.078.026.207-.051.259.078Zm10.57.1c-.233.207.026.829-.492.7a.549.549,0,0,1,.492-.7Zm4.845.078c.156.1-.052.207-.052.311h-.13c0-.052-.077-.389.182-.311Zm-13.679.052c.026.363-.57.259-.363.751-.57.182.078.855-.57.933-.285-.311.311-.544-.051-.8l.233-.311c-.182-.026-.207-.207-.182-.389l.13-.1c.285.207.466-.207.8-.077Zm11.762.13c.051.259-.259.363-.389.57h-.129c.285-.259-.259-.389,0-.622.181,0,.389-.051.518.052Zm3.653-.052c-.13.156.026.648-.363.492-.078-.259.1-.57.363-.492Zm.881,0c.052.182-.078.182-.182.233l-.077-.233Zm-18.421.052.207.311-.207-.311Zm6.607.051c-.182.311-.182.648-.441.881-.233-.155-.1-.492,0-.673.13-.1.259-.389.441-.207Zm1.477,0c.1.233-.156.363-.233.44-.1-.207.155-.337.233-.44Zm-9.379.078c-.078.078-.051.311-.259.233-.052-.156.078-.285.259-.233Zm7.151,0c-.337.259.078.855-.492.8-.337-.311.207-.8.492-.8Zm3.549.751c-.156-.544-.673.337-.622-.389l.544-.311c.026.182.233.466.078.7Zm5.648-.44h-.13v-.181h.13v.181Zm-15.415,0-.181.363-.13-.44c.1.026.233-.052.311.077Zm11.322.052c0,.078,0,.156-.077.182v-.182Zm-7.954.182-.078-.1h.078v.1Zm3.912.311h-.181c-.052-.181.1-.415.233-.415l-.052.415Zm9.638-.233h-.129v-.181h.129v.181Zm-16.115.933v.181c.026-.259-.389-.207-.544-.13.207-.337.363-.906.726-1.114.077.337-.518.751-.182,1.062Zm2.306-1.011c.052.363-.6.57-.259.881l.311-.311c.1.389.389,1.036,0,1.425l-.233.259c.156.155.259-.182.492-.078.1.233-.052.492-.182.7l-.8-.078c-.233-.337.389-.259.1-.544-.1.051-.337.259-.363,0,.13-.44-.208-.674-.182-1.062h-.181c.078-.466.829-.518.544-1.114.156-.13.57-.052.752-.078Zm5.725.207h-.181a.15.15,0,0,1,.181-.207v.207Zm3.782-.13c.052.156-.078.233-.13.363h-.1c-.052-.182.026-.415.233-.363Zm6.477,0a.73.73,0,0,1-.259.544h-.13c-.052-.181.052-.622.389-.544Zm-11.011.052c.078.363-.389.466-.311.8a.236.236,0,0,1-.311-.182.584.584,0,0,1,.622-.622Zm-8.886.077c-.181.078-.518.285-.389.544.233.1.052.492.389.44l.052-.492c.078.13.078.337.259.44.182.052.259-.207.311-.259.026.13-.052.285.051.363h.13c0,.233-.285.57,0,.7v.13c-.7.052-.078-1.632-1.062-.751-.311-.259.026-.622-.44-.752a.931.931,0,0,1,.7-.363Zm6.27.1c-.207.182-.026.725-.492.57-.363-.233.156-.389.182-.622.1.026.259-.052.311.052Zm6.4.207c-.026.1-.156.026-.233.051l.181-.311c.1,0,.052.156.052.259Zm-.933.233c-.1.156-.259,0-.363-.13l.052-.311a1.531,1.531,0,0,1,.311.44Zm-10.674-.363c-.077.026-.077.1-.077.181-.1-.026-.233.052-.311-.051a.537.537,0,0,1,.389-.13Zm13.369.052c0,.155-.182.129-.259.181-.026-.129,0-.181.129-.233.052-.026.078.026.13.052Zm-4.482.259c0,.182-.233.13-.311.052l-.129-.13.181-.181.259.259Zm5.778-.13c.026.13-.052.182-.13.259h-.052c0-.052-.026-.492.181-.259Zm-16.918.13c-.026.026-.078.052-.052.13h-.13l.052-.259.13.13Zm8.653-.13c-.181.182.1.622-.259.674a.471.471,0,0,1-.544-.233c0-.156-.052-.311.1-.389a3.064,3.064,0,0,0,.7-.052Zm9.767.052c0,.13-.129.182-.207.259h-.1c-.1-.182.156-.44.311-.259Zm6.011,0c.078.182-.156.259-.181.311l-.052.078a.233.233,0,0,1,.233-.389Zm-4.974.518-.233.182a.428.428,0,0,1,.182-.622c.207,0,.13.337.052.44Zm2.746.052c-.052-.026-.077.026-.129.052-.259-.13-.026-.389.077-.544h.1l-.052.492Zm-10.518-.363c-.078.078-.026.311-.233.233,0-.129.052-.311.233-.233Zm9.9.052c0,.13.026.285-.13.363h-.129c-.026-.156.052-.389.259-.363Zm-15.182.052c-.052.518-.363.932-.414,1.451H395.1c-.207-.285.208-.6-.1-.829.052-.363.544-.207.544-.622Zm5.544.207-.052-.207h.052v.207Zm-2.928.363-.051.052c-.207-.052-.182-.44,0-.544.544-.078-.052.285.051.492Zm-3.964-.311h.1c-.13.389-.44.259-.674.57.078-.311-.389-.544-.363-.7.414-.078.648.933.933.13Zm5.208.363h-.13c-.1-.182.207-.337.311-.492.1.1.026.389-.181.492Zm-10.622-.415c.207.233-.156.466-.078.674-.078-.57-.337-.026-.1-.674Zm4.223.544-.622.13c-.155-.207,0-.415.181-.57.363-.1.233.337.44.44Zm3.549-.311c0,.415-.959.363-.492.881-.751-.156-.207,1.217-1.01.544.389.959-.777.078-.8.881-.156-.207-.233-.518.052-.622.518.259.389-.907.932-.311.389-.492.389-1.813,1.321-1.373Zm8.213.259a.215.215,0,0,1-.207-.078.285.285,0,0,1,.207-.311c.233.1,0,.259,0,.389Zm2.176-.389c-.052.129,0,.363-.207.389a.244.244,0,0,1,.207-.389Zm-17.306.078c0,.078.026.155-.052.181l-.052-.181Zm7.358.051v.182h-.207v-.233c.077,0,.156-.026.207.051Zm9.068,0a.3.3,0,0,1-.259.389c-.182,0-.13-.233-.052-.311a.437.437,0,0,1,.311-.078Zm-3.109.311c.026.1-.1.155-.181.13s-.207.051-.259-.052c-.077-.311.492-.389.44-.078Zm-11.244.44c-.285-.078-.259-.363-.13-.57a.473.473,0,0,1,.13.57Zm8.187-.57c0,.078.026.156-.052.207v-.207Zm.751.44c-.1-.13.077-.389.259-.44l.233.078-.492.363Zm11.814-.44c.026.182-.182.337-.311.389-.182-.233.1-.415.311-.389Zm-14.794.13a2.032,2.032,0,0,0-.492.933c-.389.077-.363-.311-.44-.544a1.849,1.849,0,0,1,.932-.389Zm1.3,0c-.026.207-.311.389-.492.492-.207.311-.078.725-.311,1.01-.337-.44.414-.8.078-1.321.182-.155.466-.337.725-.181Zm10.389.078v.181h-.181c-.078-.155.129-.518.181-.181Zm-19.2.181c0,.1-.1.13-.078.233l.389.078c-.57-.1-.182.647-.57.673,0-.389.259-.829,0-1.166.156-.078.181.1.259.181Zm-.57-.078c-.311.44.207.959-.492,1.192-.078-.026-.078-.1-.078-.182.6-.13.156-.933.57-1.011Zm12.306,0c-.1.233-.026.648-.311.7-.026-.285,0-.726.311-.7Zm2.047.57a.56.56,0,0,1,.13-.57c.155.156,0,.415-.13.57Zm2.124-.052h-.13c-.026-.181.026-.389.182-.44.181.13-.026.285-.052.44Zm-6.347-.129c.078.337-.311.6-.544.673h-.129c-.13-.311.363-.466.181-.751.156.207.259,0,.492.078Zm8.783.492h-.207l.259-.57c.311.129-.078.363-.052.57Zm-19.793-.492c-.13.1.1.492-.233.44-.052-.129,0-.466.233-.44Zm7.772.051v.13h-.1v-.181c.052-.026.078.026.1.051Zm6.917-.051c.078.233-.233.389-.389.492h-.182c-.051-.337.363-.337.57-.492Zm2.1.44h-.181c-.156-.129.052-.259.078-.389h.1v.389Zm1.5-.389c.129.13,0,.311-.052.44H407v-.44Zm-19.327.182c-.026.078,0,.156-.077.207l-.13-.207Zm13.239.13c0,.44-.518.44-.7.7,0-.1-.156-.026-.1-.13a.78.78,0,0,1,.8-.57Zm-4.482.311c.026.1-.078.13-.13.182-.155.026-.337,0-.363-.182-.052-.363.466-.285.492,0Zm8.523-.182c0,.233-.259.337-.389.492a.447.447,0,0,1,.389-.492Zm8.135.052c-.026.1.052.207-.052.259h-.129v-.259Zm-25.234.207c.026.052-.026.077-.078.1H387.9v-.182c.052-.026.078.026.13.078Zm9.638-.078c-.026.052.026.1.052.13-.026.077-.1.052-.182.052l-.051-.182Zm-9.4.13.078-.052.052.052Zm14.612,0-.1.129-.13-.181c.078,0,.207-.052.233.052Zm1.062-.052a.76.76,0,0,1-.233.544c-.363-.207.1-.44.233-.544Zm-9.871.1c.051.181-.13.207-.207.311-.078,0-.207.051-.233-.052a.235.235,0,0,1,.181-.311c.078.026.207-.052.259.052Zm15.286.129c-.1.026-.311-.026-.259-.181h.259v.181Zm-18.291.389c-.1-.077-.156-.259-.311-.207-.1.13-.233.207-.181.389l.078.052a.384.384,0,0,0-.311.311c.414.311-.1.855.544.933l-.233.492c-.207-.182.155-.492-.207-.674l.078-.052c-.415-.13-.285-.673-.259-.933.078-.077.078-.181.182-.259l-.311-.311c.233-.1.959-.233.933.259Zm8.783.182a.658.658,0,0,1-.311.052.433.433,0,0,1,.181-.622c.052.182.182.337.13.57Zm-10.829-.078-.181-.415h.181v.415Zm7.72-.363c-.1.1-.259.337-.44.311-.052-.181.078-.259.182-.363.078,0,.207-.052.259.052Zm14.042-.052c.026.285-.182.363-.363.492-.078.026-.1-.026-.13-.078-.026-.207.207-.544.492-.415Zm-22.255.233v.181c-.078.026-.13-.078-.182-.1v-.259a.141.141,0,0,1,.182.182Zm7.2.388-.414-.077c-.078-.337.363-.337.544-.492.156.13,0,.414-.129.57Zm1.865-.207c-.1.026-.026-.156-.052-.233l.13-.078c.156.051-.052.207-.078.311Zm7.669-.311a.56.56,0,0,1-.259.57h-.13a.713.713,0,0,1,.389-.57Zm2.28.207h-.182v-.207h.182v.207Zm-19.638,0v.1l-.181-.233c.077-.026.129.077.181.129Zm14.975.052a.422.422,0,0,1-.492.259v-.44l.492.181Zm-8.083.751c-.207.052-.207-.207-.311-.311-.026-.259.311-.492.44-.57.1.285-.1.622-.13.88Zm2.383-.88c-.077.129-.052.855-.518.492-.181-.285.285-.44.518-.492Zm-7.461.8a1.041,1.041,0,0,1-.207-.726c.078.182.415.44.207.726Zm4.353-.674c.129.363-.285.751-.13,1.114a1.238,1.238,0,0,1-.492-1.062c.182-.337.389.182.622-.052Zm4.767-.052c-.181.233.389.492,0,.726-.078-.207-.363-.674,0-.726Zm10.337,0c-.026.078.052.207-.078.233h-.052v-.233Zm-17.85.1c-.311.182.1.777-.44.622.285-.13.13-.622.44-.622Zm-4.715.078c0,.052-.052.078-.078.129v-.129Zm.622.233-.13-.181h.13v.181Zm14.482-.052c-.155.156,0,.518-.311.492-.44-.259-.155-.932.311-.492Zm6.27.13H407.8c-.026-.13,0-.337.182-.259v.259Zm-9.689-.13c-.026.078.051.207-.078.259h-.182v-.311c.078,0,.207-.051.259.052Zm16.089-.052c.026.156,0,.337-.182.363-.13-.13-.026-.415.182-.363Zm-25.675.1h.1V248.3h-.1v.078Zm17.8.078c-.026.078,0,.156-.078.182H406.3c-.026-.1.078-.389.207-.182Zm-1.14,0c.078.182-.078.259-.182.363-.129-.129.026-.337.182-.363Zm-16.167.233c.052.207-.052.207-.181.259h-.052c.233-.026.026-.8.233-.259Zm6.658.751c-.078,0-.155,0-.181.078-.337-.415.207-.6.363-.933.233.311-.1.57-.182.855Zm4.43-.8c-.026.077.052.207-.078.259-.078-.026-.207.052-.233-.078-.052-.155.181-.363.311-.181Zm-12.021.181c-.052.259-.492.078-.363-.181l.363.181Zm7.15-.181c0,.1.052.259-.051.311,0-.052-.259-.363.051-.311Zm8.705,0c.052.129-.052.181-.1.259l-.078-.259Zm-11.244.259c-.051.207-.129.415-.181.622-.285.026-.207-.415-.311-.622.052-.156.466-.363.492,0Zm.44.181h-.129c-.156-.129.052-.259.052-.388.129.051.051.259.077.388Zm4.482-.311v.13h-.311c-.078-.233.207-.233.311-.13Zm5.777.052a.349.349,0,0,1-.13.311h-.129c-.1-.1.026-.44.259-.311Zm-13.5.311c0,.389-.337.958.311,1.01.1.13.052.337.13.492h-.57c.13-.052.233-.156.182-.311-.259-.026-.182-.44-.492-.311,0-.1-.13-.181-.182-.259a.192.192,0,0,1-.181.078c-.026-.207-.285-.466-.44-.44.518-.492,1.011,1.269,1.062-.078-.155-.026-.259-.207-.389-.311l.078-.1c.1.078.259.337.492.233Zm4.353-.233c-.026.078.052.182-.052.233h-.13c-.026-.1,0-.311.182-.233Zm5.026,0c0,.1.052.233-.052.311h-.052V248.9Zm-12.125.363h-.182v-.311c.078.1.259.155.182.311Zm9.638-.181v.441c-.182,0-.622-.078-.622.311-.078.026-.1-.1-.181-.13a1.2,1.2,0,0,1,.44-.7.227.227,0,0,0,.363.077Zm-10.26.311c-.207.026-.337.518-.622.233v-.181a.385.385,0,0,0,.518-.363.274.274,0,0,1,.1.311Zm6.917-.182c.1.337-.156.544-.259.8-.181.026-.44,0-.44-.259.181-.207.388-.57.7-.544Zm8.083,0c0,.052-.026.078-.077.1h-.1v-.1Zm-6.969.052.052.363c.233,0,.155-.259.259-.363h.13c-.052.259,0,.674-.389.674-.363-.363-.544.466-.855,0l.13-.674c.181.285.466.13.673,0Zm3.6.052a.4.4,0,0,1-.44.207c-.026-.259.311-.311.44-.207Zm2.487-.052c.259.492-.466.285-.311.751h-.233c0-.259.155-.751.544-.751Zm5.674.052c.052.182-.181.207-.259.259h-.052c-.1-.077,0-.233.1-.311.078,0,.155-.026.207.052Zm-7.409.57c.051.181-.078.415-.13.622-.208,0-.337-.259-.492-.363.052-.389.052-.6.44-.751l.052.492Zm-11.633-.363v.1h-.129v-.181c.077-.026.1.026.129.078Zm17.721.311a.284.284,0,0,1-.311.1c-.1-.233.182-.285.311-.492.259.1.026.259,0,.389Zm5.544.052c-.052.078-.13.052-.181.052-.052-.207.077-.337.233-.492.285.078,0,.285-.052.44Zm-1.684-.311c-.078.156-.026.389-.259.492h-.1c-.078-.233.078-.544.363-.492Zm-20.389.44c-.129,0-.181-.129-.259-.181l.078-.207a.61.61,0,0,1,.181.389Zm19.638-.181c-.026.026-.078.052-.052.1-.078,0-.207.052-.259-.052-.1-.311.259-.233.311-.052Zm-22.825,0c-.233-.1-.389.156-.492.233.052-.207.259-.57.492-.233Zm2.695.181-.078.052-.182-.363a1.364,1.364,0,0,0,.259.311Zm9.43-.259v.8c-.207.1-.233-.129-.311-.233,0-.233-.026-.622.311-.57Zm4.042,0c.156.415-.44.156-.311.57h-.181c0-.259.207-.6.492-.57Zm-5.959.078c0,.052.026.13-.052.181l-.078-.181Zm6.84.181h-.13c.026-.077.052-.207.13-.181v.181Zm-.311.441c-.077.051-.129.181-.259.181a.676.676,0,0,1,.13-.7c.129.077.285.337.129.518Zm-15.286-.389h-.311v-.052c.1.026.233-.051.311.052Zm12.669-.052c0,.078.026.156-.052.182h-.13a.137.137,0,0,1,.182-.182Zm7.021,0c0,.078.052.207-.052.233h-.13v-.233Zm.751.363c0-.077-.026-.363.182-.363v.363Zm-1.373-.311c.181.311-.44.492-.052.7,0,.155-.155.1-.259.181-.078-.052-.052-.13-.052-.181.285-.052-.051-.7.363-.7Zm-7.643.078c-.051.1-.129.233-.181.363h-.13c-.078-.13.052-.466.311-.363Zm-3.6.052c-.233.156-.233.415-.44.622-.207-.129.052-.725.44-.622Zm1.3,0c0,.44-.44.855-.544,1.3-.1.026-.207,0-.181-.1a1.693,1.693,0,0,1,.725-1.192Zm.829,0a.319.319,0,0,1-.207.492.262.262,0,0,1-.311-.13c.026-.233.337-.259.518-.363Zm-8.653.259c-.181.051-.129-.13-.181-.207l.181.207Zm6.892-.207c.052.182-.077.259-.1.389h-.129c-.052-.181.026-.415.233-.389Zm-5.829.259c-.078.156.13.207.181.311l-.051.052c-.078-.233-.648-.233-.311-.544.156-.078.13.1.182.181Zm4.715-.13c.1.285-.182.389-.182.622-.233.078-.311-.259-.363-.44a.372.372,0,0,1,.544-.182Zm-7.695,0a.467.467,0,0,0-.078.311h-.181c-.026-.13.129-.337.259-.311Zm2.409.13c0,.078.026.156-.052.182h-.129v-.233c.077,0,.155-.026.181.051Zm14.69.259c-.233.1-.285-.156-.259-.311h.259v.311Zm-15.312.492c.181.129-.026.233-.052.363a.349.349,0,0,0-.13-.311.236.236,0,0,0-.311.182v.078h-.13c-.078-.389.363-.233.389-.57-.129-.207-.544-.052-.389-.44.182.311.57.337.622.7Zm11.814-.7a.531.531,0,0,1-.13.44c-.078.026-.1-.078-.181-.13.051-.129.077-.414.311-.311Zm-1.166.622a.6.6,0,0,0-.44.259.732.732,0,0,1,.129-.751.314.314,0,0,1,.311.492Zm-13.187-.311-.078-.1h.078v.1Zm.855.078.259-.181v.181Zm10.078,0c0,.078.026.156-.052.182h-.182c.078-.052.052-.415.233-.182Zm12.073,0c.026.233-.233.233-.389.311-.156-.13.026-.285.13-.389.078.026.207-.052.259.078Zm-13.861.13c-.181.492-.8.751-1.011,1.166-.207-.026-.6.1-.544-.233.57-.13.026-.674.544-.751l.182.311c.182-.259.13-.6.518-.622l.311.13ZM391.322,251c0,.337.363.259.492.492.156.078.207-.1.389-.052a.237.237,0,0,1,.052.363.413.413,0,0,0-.363.207l.052.052c0,.155-.181.181-.311.181-.1-.259.388-.181.129-.44-.208-.026-.389.415-.57.078.337-.466-.389-.6.13-.881Zm9.767.182h-.13a.138.138,0,0,1,.13-.182v.182Zm2.928,0c0,.155-.129.337-.259.311v-.363c.077.026.207-.052.259.052Zm.725-.052a.31.31,0,0,1-.181.492c-.1.051-.182-.052-.233-.13-.026-.233.233-.311.415-.363Zm-19.275.13c.026.1-.1.155-.182.233h-.052c-.078-.182.155-.156.233-.233Zm1.244.363c.13-.078.207-.285.389-.233l-.311.622a.763.763,0,0,0-.259-.311c-.233-.051-.233.233-.363.363.052.155.311.311.13.492-.1-.259-.363-.182-.259-.544.052-.1.259-.156.181-.311-.026-.077-.1-.077-.181-.077v-.363c.414-.13.155.647.673.363Zm13.5-.233h-.129c-.026-.078.077-.155.129-.129v.129Zm-.751.311c-.052-.026-.078.026-.1.052l.052-.44a.256.256,0,0,1,.052.389Zm3.005-.259v.182H402.2l.13-.311c0,.1.156.026.13.13Zm-5.285-.052c-.259.311-.233.855-.829.725-.1-.415.518-.544.829-.725Zm8.757.311H405.8v-.207h.129v.207Zm-13.368.726c-.285,0-.259-.182-.259-.415l.518-.44c0,.181,0,.648-.259.855Zm15.234-.674h-.181c.052-.078,0-.259.181-.181v.181Zm-18.6.57c-.363,0-.311.855-.8.363-.026-.207,0-.44.259-.44h.052l.078-.622c.311.051.673.337.414.7Zm5.363-.7h.078v-.078h-.078v.078Zm-10.648.077h.1v-.1h-.1v.1Zm.7.233-.078-.233.078.052v.182Zm1.114-.182c.13.285-.259.285-.311.363.1-.051.156-.492.311-.363Zm13.109-.052a.964.964,0,0,1-.181.726c-.1.051-.182-.052-.233-.1.207-.182.026-.648.414-.622Zm-1.244.182c-.052.1-.207.026-.311.052-.078-.207.259-.259.311-.052Zm.7-.13c-.026.078.051.207-.078.259h-.182c.078-.1.052-.337.259-.259Zm-2.876.13c-.259.233.052.855-.492.8-.1-.182-.026-.415-.052-.622.233-.078.285-.389.544-.182ZM406.3,251.8c.078.311-.311.389-.363.622-.414-.156,0-.752.363-.622Zm5.985.13c.026.13-.052.181-.13.259h-.182c-.181-.1.026-.207.052-.311.078.026.207-.052.259.052Zm-24.872,0c.285.311-.311.6-.129.933-.13.155-.492.415-.44.751-.311-.44.518-.518.311-1.062.233-.13.078-.415.13-.622Zm21.685.078a.283.283,0,0,1-.1.311h-.259c.026-.156.078-.363.259-.389.026.026.052.078.1.078Zm1.192,0c.13.052-.026.155-.052.233h-.129c-.026-.1,0-.311.181-.233Zm-15.907.855c-.078.129-.207.052-.311.077-.1-.285.207-.544.311-.829.233.156,0,.518,0,.752Zm1.3-.544h-.181a.151.151,0,0,1,.181-.207v.207Zm5.467-.207c-.026.233-.208.389-.311.57a.388.388,0,0,1-.13-.311.656.656,0,0,1,.44-.259Zm2.668,0c.052.207-.051.207-.181.259l-.052-.259Zm-3.782.078c-.026.156-.1.389-.311.44-.1-.052-.052-.181-.052-.259.1-.1.182-.233.363-.182Zm-8.705.052c.1.518-.518.725-.363,1.192l.182.311c-.259.026-.311-.363-.622-.311a1.831,1.831,0,0,1,.13-.7.283.283,0,0,0,.311-.1.283.283,0,0,1,.363-.389Zm-4.534.13v.182c-.156.026-.13-.156-.13-.233.052-.026.078.026.13.052Zm10,.57c-.13-.181-.233.026-.363.052-.182-.415.414-.337.544-.673.233.233-.259.337-.182.622Zm5.052-.57c-.026.078,0,.156-.078.182h-.129v-.233c.077,0,.156-.026.207.052Zm-16.918,0c0,.078,0,.156-.078.182h-.1a.137.137,0,0,1,.181-.182Zm7.15.881c-.492,0-.129-.544-.311-.752.13-.026.233-.233.363-.077.13.311-.078.518-.052.829Zm11.063-.881c-.078.156-.026.259-.13.44h-.129l.078-.44Zm3.679.052c0,.155-.026.363-.207.389-.182-.078-.078-.518.207-.389Zm-16.477.518c-.182.207-.544.13-.752.052-.1-.052-.155-.259-.311-.181-.233.285.233.518,0,.8-.492.052-.337.777-.622,1.114-.363.44-1.192-.233-1.062.622.13.155.337.181.259.44a.334.334,0,0,0-.129.492c.129.1.466.026.44.311-.88.1.1.751-.388,1.114.181.156.363.182.388.44-.077.207-.337.156-.44.078-.182-.078-.13-.363-.389-.311-.182-.518.932-1.243,0-1.5l.207-.363c-.363-.337-.1-.855-.259-1.244.544-.13,1.01,0,1.3-.622l.077-.622c.1-.026.233.052.311-.078.026-.078-.078-.129-.13-.181-.182.026-.259-.026-.311-.182.544.13.44-1.062.984-.389.311.026.985-.622.829.207Zm7.461-.207-.207.13c-.026.207.285.1.207.311-.207.363-.337-.13-.57-.052-.052-.233.389-.337.311-.622.1,0,.44.078.259.233Zm-1.866-.181c-.207.207-.363.622-.622.622.1-.285.181-.7.622-.622Zm9.068,0c-.026.077.052.207-.052.259h-.13c-.026-.13,0-.337.182-.259Zm-6.529.077h.052v.1h-.052v-.1Zm-5.415.855h-.182c-.077-.233-.155-.622.13-.8.207.13.13.57.052.8Zm-8.083-.233c-.156-.182.052-.337.078-.518v.518Zm8.7-.44-.051.052-.078-.13a.161.161,0,0,1,.129.078Zm-5.907,0c-.026.078.052.207-.052.233-.13.052-.182-.052-.259-.1a.389.389,0,0,1,.311-.129Zm-1.865.129c.078.233-.13.7.311.8-.389.233-.207-.389-.44-.57,0-.1-.026-.259.13-.233Zm.622.181-.051.052v-.233c.077.026.051.1.051.181Zm5.052-.181c-.026.052,0,.13-.077.181h-.182c-.078-.181.13-.207.259-.181Zm12.747,0c.1.259-.233.337-.207.544h-.181c-.052-.259.078-.6.389-.544Zm-4.87.1c-.052.156-.078.207-.233.259-.052-.13.1-.285.233-.259Zm-6.943.207h-.13a.1.1,0,0,1,.13-.13v.13Zm6.321-.078a.8.8,0,0,1-.622.389c0-.233.259-.311.389-.44.078.026.207-.052.233.052Zm2.436.078c0,.1-.13.155-.182.233l-.44-.181c.1-.466.492.1.622-.052Zm-6.892-.078c.026.13-.078.182-.13.259-.052.026-.1-.026-.13-.077-.077-.156.13-.182.259-.182Zm.544,0c-.078.207-.233.518-.44.57a.464.464,0,0,1,.44-.57Zm-6.659.57c-.078.026-.1-.078-.181-.13l.181-.363c.1.052.1.363,0,.492Zm5.674,0c-.156.181-.57-.026-.492-.311.207-.57.259.207.492.311Zm-3.5-.078c0,.207.052.44-.1.57a.281.281,0,0,1-.311-.129c-.311.1.026.311-.13.44-.181-.052-.285-.259-.492-.182-.207.285.389.466.181.751l-.44.1c.078.078.156.156.13.259a.859.859,0,0,0-.751.492c.233.1.389-.285.673-.233,0,.337-.414.544-.673.855-.13.363.285.855-.13,1.192a.405.405,0,0,1,0-.622c.052.026.1-.026.13-.077a.494.494,0,0,1-.182-.674l.233-.363c-.182-.129-.492.078-.492-.259.337-.233.881-.233.8-.8.1-.026.259.052.311-.078-.259-.285-.026-.725.078-.985.518,0,.207-1.01.933-.57l.233.311Zm5.8-.233a.279.279,0,0,1-.259.363c-.13,0-.285.026-.363-.129-.13-.44.389-.44.622-.233Zm5.907-.077a1.1,1.1,0,0,1-.57.518l-.13-.129a.629.629,0,0,1,.7-.389Zm-18.109.077c.13.052-.026.182-.052.233v-.233Zm7.591.44c-.078.052-.13.156-.259.1-.182-.207.1-.363.207-.544.1.1.026.285.052.44Zm15.233-.078h-.129v-.233h.129v.233Zm-14.171.078c-.337.233-.207.933-.8.8-.052-.233.44-.622.181-1.01.285-.182.259.389.622.207Zm4.845-.078c-.051.13-.155.052-.259.078l-.052-.259c.13-.026.363.026.311.181Zm-7.409-.051v.129l-.182-.207c.078,0,.156,0,.182.078Zm12.876,0a.262.262,0,0,1-.129.311c-.078.026-.208-.026-.182-.13-.052-.207.078-.156.182-.259.052.052.078.1.129.078Zm3.109-.078c.026.078.052.311-.129.389h-.1c-.1-.207.155-.363.233-.389Zm-21.063.259-.13.363c-.363,0-.311-.415-.492-.544.182.026.337.415.622.181Zm20.571.052h-.259c0-.129.052-.311.259-.233v.233Zm-10.7-.052a.413.413,0,0,1-.13.259v-.259Zm-9.2.259h-.311v-.207h.311v.207Zm5.466-.078c-.026.466-.673.337-.622.8-.1,0-.259.026-.233-.1.207-.337.259-1.062.854-.7Zm7.773-.052c.026.13-.026.363-.181.311-.026-.155.026-.363.181-.311Zm9.327.052c.078.233-.182.155-.233.311h-.13c-.13-.182.1-.259.233-.363.078-.026.1.026.13.052Zm-13.99.129c.1.285-.156.415-.233.622h-.13c.156-.233-.182-.855.363-.622Zm1.554,0c.078.182-.1.13-.181.182-.156-.078,0-.182.052-.233.078-.026.1.026.129.051Zm.622-.051c.156.13.026.311-.13.415h-.181c-.1-.207.181-.337.311-.415Zm3.679.051a1.161,1.161,0,0,1-.441.8c-.207-.337.078-.907.441-.8Zm1.114.44c-.078,0-.156,0-.182-.077-.1-.207.156-.285.233-.415.363.1-.1.285-.052.492Zm-8.135-.44c.155.182-.052.363-.078.57h-.129v-.57Zm9.016.311c.078.181-.129.311-.259.363-.156-.156,0-.492.13-.622a.263.263,0,0,1,.129.259Zm-15.752.259c-.1.026-.026.156-.052.233.1.051.155.181.311.129a.569.569,0,0,0-.052.363c-.1-.207-.518-.207-.44-.544.026-.13.182-.207.13-.389-.156-.13-.311,0-.44.077l.13-.311c.233.052.6.13.414.44Zm8.834-.44a.758.758,0,0,1-.44.622c.026-.259.078-.673.44-.622Zm9.4,0a.348.348,0,0,1-.13.311H404.2a.332.332,0,0,1,.44-.311Zm-6.529.13c-.026.052,0,.13-.078.181-.182.078-.207-.129-.182-.259.078.026.207-.052.259.078Zm6.84.311h-.259l.259-.311c.13.052.052.181,0,.311Zm-2.254-.259a.262.262,0,0,1-.129.311c-.233-.052-.1-.44.129-.311Zm7.332.311h-.233c-.026-.13,0-.182.13-.259h.1v.259Zm-25.1-.182c0,.078,0,.156-.078.182l-.052-.182Zm5.648.492v.363l-.674-.051.13-.752c.13.1.182.6.544.44Zm.7-.363c-.337.337.44,1.321-.44,1.037.233-.337-.1-.674.182-.985.1,0,.13-.1.259-.052Zm5.518.1a.15.15,0,0,1-.181.207c-.078-.026-.207.052-.259-.077-.052-.233.337-.337.44-.13Zm-12.177.259v.052c-.156-.13-.337-.1-.492-.181v-.181a.474.474,0,0,1,.492.311Zm-1.244-.259h0Zm8.938,0c.026.078-.026.1-.052.13l-.052-.13Zm-16.581.259v.182l-.259-.363c.077.077.181.077.259.181Zm2.487-.052h-.207c0-.1.1-.155.207-.129v.129ZM392,255.3v.13c-.207.052-.311-.1-.492-.13a.242.242,0,0,1,.13-.259.279.279,0,0,1,.363.259Zm5.674-.259c-.1.181-.13.492-.389.492.078-.181.052-.57.389-.492Zm-19.845.077-.13.182.13-.182Zm8.031,0c-.259.466,1.011.57.13.855-.1-.129-.026-.466-.311-.44H385.6c-.156-.155.052-.492.259-.415Zm2.72.1v.13h-.492v-.182c.181.026.363-.052.492.052Zm4.482-.052c0,.078.026.156-.052.182l-.13-.182Zm-13.187.052h.1v-.077h-.1v.077Zm13.99.389c-.155-.078.052-.337.207-.389h.051l-.259.389Zm13.809-.389c.077.233-.156.337-.233.518-.13-.13-.1-.622.233-.518Zm-12.125.13v.181c-.181.078-.207-.129-.181-.233.077,0,.155-.026.181.052Zm.622-.052c-.13.207-.156.492-.363.622a.484.484,0,0,1,.363-.622Zm-3.472.052c.155.363-.57.311-.311.751-.181.156-.337-.052-.492-.052.052-.285.311-.44.544-.7Zm13.368,0a.739.739,0,0,1-.13.492H405.8c0-.182-.026-.518.259-.492Zm-21.762.259a.349.349,0,0,1-.311.13l-.129-.311c.129.077.415-.052.44.181Zm15.234-.181c-.026.077.052.181-.078.233h-.182a.185.185,0,0,1,.259-.233Zm-16.037.311-.311.1c.156-.078-.078-.415.181-.363a.413.413,0,0,0,.13.259Zm6.27.1c.1.285-.285.363-.311.57-.363-.181.13-.57.052-.932.182-.026.182.259.259.363Zm19.094-.311a.446.446,0,0,1-.182.44h-.13c0-.181.078-.492.311-.44Zm-29.354.259-.13-.13.078-.052c.078.026.052.1.052.182Zm18.706-.13c0,.078.026.156-.052.182h-.13a.141.141,0,0,1,.182-.182Zm-3.42.078c.078.1-.078.285-.233.311-.1-.1,0-.44.233-.311Zm-18.213.311-.052-.259.052.052v.207Zm14.068.1c-.13.337-.466.1-.622.259-.181-.337.259-.492.492-.622.13.026.259.259.13.363Zm11.192-.363c.156.156-.026.389-.207.44H401.4a.454.454,0,0,1,.44-.44Zm2.487.44c-.077.052-.155.155-.259.129a.643.643,0,0,1,.182-.57c.233.026.077.311.077.44Zm-10.881-.311c-.078.337-.7.311-.389.673v.181c-.182.13-.466-.026-.544-.181.466-.1.311-.8.933-.673Zm9.12,0c0,.077.026.155-.052.181h-.13v-.181Zm-21.944.311.181-.259v.259Zm3.912.44h-.181c.129-.207-.052-.6.181-.7v.7Zm12.125-.622c.1.207-.155.337-.311.363-.052.026-.078-.026-.1-.052a.3.3,0,0,1,.415-.311Zm-17.513.182v.052a.151.151,0,0,1-.207-.182c.1-.026.13.078.207.13Zm28.213-.13c.026.156,0,.363-.181.363h-.13c-.078-.259.13-.311.311-.363Zm-6.839.052a.722.722,0,0,1-.182.57h-.181c-.077-.259.052-.622.363-.57Zm-8.939.57-.259.311c.156.078.13.233.13.363-.1,0-.156.1-.259.078v-.259c.1.026.13-.078.182-.13l-.311-.233.389-.622c.233.026.078.337.129.492Zm2.487.129c-.182-.181.026-.389.051-.57l.13.57Zm3.031-.57c.051.155-.078.207-.13.311h-.182c.1-.1.1-.363.311-.311Zm-20.26.077c-.026.078.052.182-.078.233-.129.026-.1-.156-.1-.233Zm5.83.052v.182l-.182-.233c.078,0,.156-.026.182.052Zm12.2.311h-.259c-.026-.156.026-.337.182-.363a.2.2,0,0,1,.078.363Zm.933-.259a.285.285,0,0,1-.311.207l-.078-.078.207-.233.182.1Zm-21.452-.052c0,.078,0,.156-.078.182l-.052-.182Zm14.845.751c-.078.1-.233.026-.363.052a1.309,1.309,0,0,1,.181-.8.9.9,0,0,1,.181.751Zm.518-.492h-.13v-.13h.13v.13Zm-11.632-.078c.026.052-.026.1-.078.13l-.052-.13Zm1.477.181.078-.181.052.181Zm3.549.441v-.544c-.077.155.441.389,0,.544Zm7.643-.492c.1.181-.1.311-.233.363h-.078c-.13-.13,0-.311.13-.415.078,0,.156-.026.181.052Zm10.467-.052c.1.285-.285.207-.389.363h-.052a.312.312,0,0,1,.44-.363Zm3.782.052c-.026.077.052.207-.052.259h-.207a.2.2,0,0,1,.259-.259Zm-27.67.051c-.155.233.337.674-.181.752.155-.207.1-.466.129-.752Zm4.4.207-.182.181.182-.389a.108.108,0,0,1,0,.207Zm4.171.052v.311c-.285.026-.207-.337-.311-.492.181-.181.285.052.311.181Zm6.4.129c.077.156-.1.13-.182.182H392v-.57c.155,0,.207.259.311.389Zm-6.892.13c-.078.078-.026.233-.13.311-.285.1-.207-.259-.311-.389.026-.518.389-.311.44.077Zm.8-.259h-.13c0-.078.026-.207.13-.181v.181Zm1.062-.052h-.13v-.13h.13v.13Zm11.14-.078v.13h-.311c0-.13.207-.259.311-.13Zm8.264-.052c.052.13-.078.207-.13.311h-.13c-.026-.155.026-.414.259-.311Zm-30.778.052c-.078.1-.078.363-.259.311.026-.13.052-.363.259-.311Zm31.763,0c.077.207-.13.337-.233.389h-.13c-.1-.285.207-.337.363-.389Zm-28.654.078c0,.078.026.259-.129.233H378.7a.215.215,0,0,1,.311-.233Zm11.011,0c.13.1,0,.337-.13.363h-.181c-.078-.182.078-.466.311-.363Zm-9.948.181v.13c-.233.182-.466-.077-.57-.207a.468.468,0,0,0,.57.077Zm17.643-.077a.37.37,0,0,1-.182.44c-.051.026-.077-.026-.129-.052-.078-.207.155-.389.311-.389Zm-25.934.13-.052.077-.052-.13c.052-.026.078.026.1.052Zm10.83-.052h.1v-.1h-.1v.1Zm11.244,0c.1.13-.052.182-.182.233h-.129a.287.287,0,0,1,.311-.233Zm8.834,0a.573.573,0,0,1-.181.544h-.13c-.026-.233.026-.544.311-.544Zm-9.767.233h-.1c-.026-.078,0-.181.1-.181v.181Zm12.2-.1c.026.233-.259.233-.389.363-.026-.026-.052-.077-.1-.051-.052-.337.337-.207.492-.311Zm-14.171.311c.026.311-.648.622-.13.855-.078.285-.389.285-.57.078-.259.1-.207.778-.544.415.026-.363.751-.544.492-1.114.648.44.285-1.166.751-.233Zm-9.586-.207c0,.078.026.156-.052.207h-.207c-.078-.233.207-.078.259-.207Zm5.155.311c.259-.026.182-.363.492-.233a.25.25,0,0,1,0,.363l-.052.8h-.129a1.028,1.028,0,0,0-.311-.8c-.155.13-.155.259-.363.259.026-.285-.363-.44-.078-.7.285-.1.285.233.44.311Zm17.721-.311c-.026.078.026.1.077.13-.1.155-.259.181-.389.259-.078-.207.156-.389.311-.389Zm-25,.078c.026.337-.6.078-.363.544h-.13c.052-.285.1-.622.492-.544Zm10.156.311c.051.207-.1.233-.259.233-.078,0-.207.051-.259-.052-.078-.259.207-.337.311-.492.233-.026.078.181.207.311Zm9.249-.259v.078h-.13v-.13c.078-.026.1.026.13.052Zm-15.908,0h.078v-.078h-.078v.078Zm11.866.129h-.129l.077-.129c.026.052.078.078.052.129Zm.933-.051-.311.311c-.026-.052-.052-.1-.13-.078,0-.182.259-.44.44-.233Zm-17.229,0c0,.051.026.129-.052.181h-.13a.137.137,0,0,1,.182-.181Zm3.938.051c.155.492-.518.233-.518.622l-.363-.13c-.026-.544.673.052.673-.492Zm9.379.182h-.13c-.026-.078.026-.207.13-.182v.182Zm-15.545.078h-.052v-.207c.078.052.052.13.052.207Zm1.736-.207c-.156.1-.337.518-.544.389.078-.233.389-.181.544-.389Zm2.746.389c-.207-.026-.156-.259-.182-.389a.235.235,0,0,1,.182.389Zm12.487.182c-.129.1-.337.052-.492.052.078-.259-.415-.363-.182-.622a1,1,0,0,1,.674.57Zm-7.2.052a.612.612,0,0,0-.13.259c-.518.13,0-.57-.492-.57l.052-.233c.285.052.881.1.57.544Zm14.741-.492c.026.156-.156.285-.259.311l-.181-.129c-.052-.233.285-.311.44-.182Zm-25.079,0h.1v-.078h-.1v.078Zm1.373.44h-.052v-.363c.078.052,0,.207.052.363Zm2.565-.363h.078v-.1h-.078v.1Zm16.711,0c.129.155-.207.285-.182.492-.13-.1-.052-.518.182-.492Zm6.166.311c-.052.1-.182.026-.259.052-.13-.13.026-.285.129-.363a.323.323,0,0,1,.13.311Zm-17.488-.078c.078.207-.1.259-.233.259h-.182c-.026-.207.285-.7.414-.259Zm9.275-.181c-.285.207-.1.8-.622.673.13-.233.181-.777.622-.673Zm3.55.052v.129c-.078-.026-.207.052-.259-.052l.129-.129c.026.026.078.078.13.052Zm-22.877.259.052-.259v.207l-.052.052Zm13.912-.13-.052.078v-.207c.026.051.078.077.052.129Zm11.141-.129c.181.311-.052.492-.311.57-.285-.259.207-.492.311-.57Zm-10.078.129c.078.182-.13.182-.182.259-.13,0-.052-.182-.078-.259.1.026.182-.129.259,0Zm-11.063.311v.182c-.233-.078-.233-.285-.311-.492.129,0,.259.182.311.311Zm16.218-.311c.051.182-.078.259-.13.389-.207-.026-.1-.518.13-.389Zm-3.239.13c0,.078.026.155-.051.181-.156.078-.363-.077-.311-.233.13,0,.285-.052.363.052Zm17.229-.052a.287.287,0,0,1-.233.311c-.052-.181,0-.415.233-.311Zm-22.2.622c-.544.7,1.321,1.062-.052,1.114.13-.44-.181-.7-.363-.933-.1,0-.156-.1-.259-.078a.387.387,0,0,1,.259-.544c.44-.1.026.414.415.44Zm1.865-.44a.284.284,0,0,1-.1.311c-.13-.026-.311.052-.389-.078-.026-.285.311-.233.492-.233Zm9.4.751c-.077-.026-.207.052-.259-.078.052-.285.414-.492.57-.673a2.71,2.71,0,0,1-.311.751Zm-5.855-.389H392c.026-.1-.052-.311.129-.311v.311Zm-17.773-.233c-.026.078.052.182-.078.233h-.181c-.052-.156.155-.182.259-.233Zm3.109,0c-.026.1.052.233-.078.311-.1.026-.233-.363-.415-.13v-.182Zm-1.684.052h.1v-.1h-.1v.1Zm8.342.13c.078.207-.181.155-.259.233a3.6,3.6,0,0,1-.311.933c-.8-.337.181-.829.129-1.3a.678.678,0,0,1,.44.13Zm21.814.052c-.051-.026-.077.026-.129.078v-.259h.129v.182Zm-20.829-.052c.155.13-.052.285-.052.44l-.881.052.311-.57c.233.078.389.285.622.078Zm2.746-.078c-.285.233.078.8-.44.622-.181-.311.285-.466.44-.622Zm1.425.078a1.464,1.464,0,0,1-.078.673h-.181c-.13-.233-.078-.7.259-.673Zm5.285.13c.052.259-.259.155-.389.233l-.052-.052c.052-.181.285-.363.44-.181Zm1.866.181h-.078a.242.242,0,0,1,.13-.259c-.026.078.052.207-.052.259Zm-20.079-.181c-.077.077-.026.259-.207.181l-.052-.078c.078-.051.13-.155.259-.1Zm9.249.1h-.182v-.1h.182v.1Zm2.565.207c-.13-.026-.026-.259.1-.259.052.129-.052.181-.1.259Zm-11.192.052.182-.182c.1,0,.026.207.051.311-.155-.1-.518-.026-.492-.311a.734.734,0,0,0,.259.182Zm19.949-.13c0,.078.026.156-.052.181h-.207c0-.155.182-.1.259-.181Zm-22.436.078h.052v.1h-.052v-.1Zm16.71.311c-.129.078.026.311-.181.311l-.311-.077c-.026-.285.389-.933.492-.233Zm1.321-.311c-.026.052,0,.13-.077.182l-.052-.182Zm-6.347.1a.467.467,0,0,1-.181.389.323.323,0,0,1-.311-.13v-.311l.492.051Zm.855-.051h.078v.181h-.078v-.181Zm1.762,0c0,.1-.1.13-.078.259h-.181a.207.207,0,0,1,.259-.259Zm7.513.051a1.352,1.352,0,0,1-.492.518l-.078-.077.389-.492c.026.078.1.051.181.051Zm2.228-.051c.026.051-.026.078-.052.13h-.13c-.026-.1.1-.156.182-.13Zm2.487.13c.026.181,0,.259-.181.311h-.13c-.052-.1.1-.414.311-.311Zm-25.415.129c-.078.052-.337.13-.311-.078.1.026.233-.051.311.078Zm1.917.1-.13-.182.259.078-.129.1Zm14.69-.1c.052.156-.13.13-.207.181h-.182v-.259c.13.026.285-.051.389.078Zm-6.788.1c.13.389-.337.415-.492.622h-.181c.207-.233.077-1.14.673-.622Zm4.612-.1c0,.181,0,.518-.259.492h-.182c.078-.207.052-.647.44-.492Zm-13.938.311c-.052.078-.13.052-.181.052v-.259l.181.207Zm8.446.674c-.052.1-.052.233-.181.311-.052-.285-.1-.311-.441-.363-.207-.337.13-.648.311-.829.389.207-.259.958.311.881Zm3.627-.622c-.466-.078-.622,1.218-.933.44.363-.129.6-1.192.933-.44Zm4.9-.129c.078.415-.44-.026-.44.389h-.1c-.1-.285.13-.259.233-.44.1.026.259-.052.311.052Zm-15.726.129-.13-.129h.13v.129Zm5.855.182-.518.389c-.207,0-.13-.285-.052-.389-.026-.337.7-.44.57,0Zm10.8-.13-.052-.052.13-.129.051.077-.129.1Zm8.342-.181c.026.1-.026.415-.259.389h-.13c-.078-.207.13-.415.389-.389Zm-29.354.129.052.182-.052-.182Zm25.753,0c-.1.156-.1.492-.311.492-.026-.207-.026-.57.311-.492Zm-12.565.311c.078.155-.129.181-.181.259h-.208c-.052-.207.337-.725.389-.259Zm8.705-.182c-.026.078.052.207-.078.233h-.182c-.077-.182.1-.233.259-.233Zm-20.7.311c-.052.078-.13.052-.207.052l-.052-.311c.1.078.311.078.259.259Zm1.3-.259c0,.285-.44.389-.363.7h-.129a.7.7,0,0,1,.492-.7Zm13.109,0c-.078.182-.1.492-.363.492-.077-.156.078-.57.363-.492Zm6.788,0h.051v.182h-.051v-.182Zm-2.047.44c-.051.026-.1-.026-.129-.052l.259-.311c.13.052,0,.285-.13.363Zm3.342-.363c.1.207-.181.337-.311.492l-.1-.129c.13-.13.285-.363.415-.363Zm-13.057.052c.026.052-.026.077-.051.129l-.13-.129Zm7.1.052a.757.757,0,0,1-.363.388.193.193,0,0,1-.078-.181l.311-.259c.052.026.078.077.13.052Zm-14.353.518c-.181-.13.026-.363.1-.518h.13l-.233.518Zm13.291-.311c.052.155-.052.259-.182.311-.129-.156-.363,0-.492-.13-.052-.181.078-.259.181-.388a.477.477,0,0,0,.492.207Zm1.814-.13c.1.259-.207.233-.311.363-.078,0-.156.026-.182-.052-.078-.181.078-.259.182-.388.1.026.233-.052.311.077Zm-6.037,0c.1.311-.337.156-.44.363l-.052-.052a.456.456,0,0,1,.492-.311Zm8.653.13c-.026.129-.078.337-.259.363-.207,0-.13-.285-.052-.363.052-.156.233-.156.311,0Zm-7.721.181c-.026-.155,0-.181.13-.259v.259Zm15.493,0h-.207v-.259h.207v.259Zm-18.342.233c.026.13-.078.182-.13.259-.363.156-.544-.311-.881-.052,0-.233-.466-.233-.363-.57.311-.052.285.544.622.311.233-.078.285-.311.492-.363l.259.415Zm-6.529-.233v.13c-.078-.026-.1.026-.13.052v-.259c.052,0,.078.051.13.077Zm15.959-.077c.026.1-.078.129-.1.207h-.207a.284.284,0,0,1,.311-.207Zm-11.918.57c-.129.078,0,.389-.259.311l-.181-.752a.552.552,0,0,1,.44.44Zm11.3-.44c-.026.337-.337.337-.622.492-.051-.415.44-.285.622-.492Zm8.083,0c.13.078,0,.182-.052.259h-.181c-.052-.156.1-.311.233-.259Zm-5.156.078c.1.285-.233.285-.363.415-.207-.181.129-.44.363-.415Zm-22.384.182H372.8v-.13h.052v.13Zm13.316-.13c0,.078,0,.156-.078.181h-.1c-.026-.078.077-.181.181-.181Zm2.228,0c0,.337-.363.285-.544.363-.155-.389.311-.389.544-.363Zm-4.223.311a3.614,3.614,0,0,1-.674.881h-.207c-.156-.44.544-.363.389-.881.156-.181.389-.233.492,0Zm1.192.13.1.181c-.311.259-.492-.207-.855-.052v-.44c.466-.233.337.6.751.311Zm1.606-.259a.655.655,0,0,1-.259.44c-.13-.1,0-.363.13-.492.051-.026.1.026.129.052Zm-11.192.44c-.13-.207-.414-.078-.492.052-.078-.311.285-.363.44-.492.207.155-.156.285.052.44Zm3.29-.181c-.078.207-.44.233-.622.13-.1-.259.182-.207.259-.389a.28.28,0,0,1,.363.259Zm.492-.182c0,.052.026.13-.052.182h-.182c-.1-.182.13-.363.233-.182Zm.518.1c-.026.259.285.052.363.207.155.1-.052.233-.052.363-.207.026-.414-.337-.57-.363-.026-.207.182-.622.259-.207Zm2.228.389c-.026.052-.207.182-.311.052v-.622c.259.026.233.363.311.57Zm5.285-.077c-.1.051-.052.181-.052.259-.311,0-.156-.466-.389-.57.207-.389.363.182.44.311Zm.933-.182.052-.233h.389l-.44.233Zm-14.612-.182a1.014,1.014,0,0,1-.363.311c-.13-.285.233-.233.363-.311Zm7.721.182c-.1.285-.363.518-.44.751-.337-.259.13-.492.052-.8.026-.156.44-.233.389.052Zm4.534.389c-.078.026-.155-.078-.129-.13-.1-.233.155-.311.259-.44.207.078-.181.337-.13.57Zm3.653-.57c.026.337-.233.389-.492.44.078-.233.207-.466.492-.44Zm-11.425.751v.182c-.363.13-.544-.182-.622-.492l.13-.259c.544.052.078.363.492.57Zm-1.5-.129c-.363.155-.389.751-.933.44a1.353,1.353,0,0,0,.622-.8c.233-.052.492.155.311.363Zm5.855.44c-.077.1-.207.026-.311.052.363-.13,0-.985.544-.8l-.233.751Zm11.063-.8c.026.311-.337.233-.492.363.026-.182.233-.492.492-.363Zm-3.057.052c.078.207-.155.155-.233.259-.052-.156.1-.311.233-.259Zm4.042,0a.236.236,0,0,1-.182.311c-.077,0-.155.026-.181-.052.052-.13.181-.337.363-.259Zm-15.286.052a.892.892,0,0,1-.57.57c-.155-.311.337-.492.57-.57Zm12.488,0c.052.259-.337.311-.415.518-.181-.233.207-.544.415-.518Zm-17.462.129c.026.1-.026.207-.13.182h-.182c.026-.052-.026-.078-.051-.1a.223.223,0,0,1,.363-.078Zm14.431.182c-.052.052-.078.077-.078.13-.156-.026-.207-.207-.182-.363.207-.077.156.156.259.233Zm-1.943-.182c.1.285-.155.389-.181.622h-.182c.207-.156.052-.6.363-.622Zm5.492,0c.026.13-.077.182-.13.259v-.259Zm-12.565.182h-.13c-.026-.052.052-.13.13-.1v.1Zm4.9,0c-.052.052-.077.156-.181.13l-.052-.052.181-.181c.026.026.078.052.052.1Zm3.5,0v.13h-.44c-.052-.207.078-.156.182-.233.129-.052.181.052.259.1Zm7.824-.1c.026.181-.207.337-.363.363-.052-.026-.078-.078-.13-.052a.353.353,0,0,1,.492-.311Zm.933,0h.077v.1H397.1v-.1Zm-11.425.052a.588.588,0,0,1-.44.44.193.193,0,0,1-.078-.182c.259,0,.259-.259.518-.259Zm-4.793.052c-.1.311.155.311.311.44-.1.155-.389.026-.492-.13v-.311Zm8.757.13c-.207.077-.389.415-.622.259.181-.13.44-.337.622-.259Zm-7.695.311c-.077.026-.1-.026-.13-.052-.026-.156,0-.182.13-.259.182.1.026.207,0,.311Zm11.607,0H393.5c-.052-.156.052-.259.181-.311.052.155-.077.207-.129.311Zm-7.462,0h-.181v-.233h.181v.233Zm-6.451-.13c.026.078-.026.1-.078.13h-.182c-.077-.156.182-.233.259-.13Zm4.586-.052c0,.078.026.156-.052.182h-.182c-.078-.156.13-.207.233-.182Zm6.114,0c.051.182-.13.13-.208.182-.052-.1.078-.233.208-.182Zm-13.369.182h-.13v-.13h.13v.13Zm1.788,0h-.13v-.13h.13v.13Zm1.5-.13c.026.078-.026.1-.077.13l-.052-.13Zm7.695.078h.1v-.1h-.1v.1Z" transform="translate(-335.358 -222.162)" fill="#5d5d5d" fill-rule="evenodd"/></svg>