<svg xmlns="http://www.w3.org/2000/svg" width="80.148" height="95.315" viewBox="0 0 80.148 95.315"><path d="M269.662,173.758a34.631,34.631,0,1,1-34.627,34.532A34.569,34.569,0,0,1,269.662,173.758Zm1.33,68.391a33.857,33.857,0,0,0,32.428-34.658A33.677,33.677,0,0,0,269.3,174.624a33.792,33.792,0,0,0-33.373,34.688C236.373,227.434,251.208,242.132,270.992,242.149Z" transform="translate(-230.751 -147.705)" fill="#5d5d5d"/><path d="M387.448,60.233c-.7,0-1.4.032-2.095-.008-.9-.051-1.8-.13-2.7-.252a3.114,3.114,0,0,1-1.761-.788,3.173,3.173,0,0,1-.9-1.942,20.932,20.932,0,0,1-.126-4.662,15.565,15.565,0,0,1,.2-1.719,2.693,2.693,0,0,1,2.24-2.3,11.889,11.889,0,0,1,2.022-.272c1.692-.055,3.386-.08,5.078-.061a13.948,13.948,0,0,1,3.18.321,2.7,2.7,0,0,1,2.214,2.227,15.543,15.543,0,0,1,.258,2.292c.037.994.009,1.991-.024,2.986a7.163,7.163,0,0,1-.321,1.969,2.621,2.621,0,0,1-1.741,1.769,8.257,8.257,0,0,1-2.319.382c-1.068.046-2.137.062-3.205.091Zm.012-2.609c.833-.044,1.65-.056,2.461-.138a1.33,1.33,0,0,0,1.365-1.321,1.7,1.7,0,0,0,.026-.266c0-1.113.007-2.226,0-3.339a2.723,2.723,0,0,0-.1-.613,1.131,1.131,0,0,0-.848-.887,4.667,4.667,0,0,0-1.005-.162q-1.515-.044-3.031-.031a11.187,11.187,0,0,0-1.462.109,1.279,1.279,0,0,0-1.232,1.246,8.978,8.978,0,0,0-.084,1.241c.009.9.011,1.812.084,2.712a1.265,1.265,0,0,0,1.313,1.307C385.784,57.567,386.631,57.581,387.46,57.624Z" transform="translate(-348.594 -45.508)" fill="#5d5d5d"/><path d="M221.532,51.016c-1.219,0-2.439-.016-3.658.007a15.387,15.387,0,0,0-1.86.152c-.491.07-.584.226-.59.723-.011.852.143,1.043,1,1.132.546.057,1.1.079,1.645.1,1.559.046,3.12.066,4.678.13a10.451,10.451,0,0,1,1.761.223,1.893,1.893,0,0,1,1.708,1.835,9.646,9.646,0,0,1-.057,3.059,1.918,1.918,0,0,1-1.49,1.648,8.019,8.019,0,0,1-1.309.242c-.754.066-1.511.11-2.268.113-1.9.008-3.806,0-5.709-.024-.846-.009-1.692-.054-2.538-.086-.68-.025-.69-.038-.69-.718,0-.476,0-.952,0-1.427,0-.4.039-.43.436-.42,2.08.052,4.159.12,6.239.149.965.013,1.931-.05,2.9-.078a1.231,1.231,0,0,0,.134,0c1.095-.149,1.019-.339,1.006-1.187a.513.513,0,0,0-.391-.53,2.783,2.783,0,0,0-.652-.126c-.9-.049-1.81-.08-2.715-.119-1.35-.059-2.7-.107-4.048-.185a8.439,8.439,0,0,1-1.271-.207,2,2,0,0,1-1.706-1.859,9.839,9.839,0,0,1,.052-2.972,2.042,2.042,0,0,1,1.45-1.652,7.783,7.783,0,0,1,2.01-.351c2.42-.158,4.843-.086,7.265-.059.772.009,1.543.054,2.315.088.148.007.294.044.442.055s.25.087.25.25q0,.959,0,1.918a.244.244,0,0,1-.278.271q-.312,0-.624,0l-3.433-.065Z" transform="translate(-211.994 -45.721)" fill="#5d5d5d"/><path d="M473.8,55.218V50.09c0-.119,0-.238,0-.357,0-.186.1-.268.28-.267l.268,0c2.512,0,5.024-.009,7.535,0a18.293,18.293,0,0,1,3.544.271c.058.012.118.018.175.032A2.807,2.807,0,0,1,488,52.35a8.933,8.933,0,0,1,.152,1.323c.012,1.1,0,2.2-.036,3.294a9.205,9.205,0,0,1-.2,1.539,2.579,2.579,0,0,1-2.044,2.114,8.966,8.966,0,0,1-1.84.285c-2.286.06-4.574.075-6.861.1-.966.01-1.932,0-2.9,0-.456,0-.466-.012-.467-.482Q473.8,57.871,473.8,55.218Zm3.509-3.115v6.263c.1.009.168.022.24.022,1.368,0,2.736.016,4.1-.007a10.413,10.413,0,0,0,1.636-.163,1.259,1.259,0,0,0,1.146-1.184,5.985,5.985,0,0,0,.089-1.018c-.011-.845-.012-1.694-.09-2.534a1.233,1.233,0,0,0-1.191-1.234,13.687,13.687,0,0,0-1.86-.159c-1.2-.024-2.409-.008-3.613-.006C477.623,52.083,477.478,52.1,477.308,52.1Z" transform="translate(-425.121 -46.52)" fill="#5d5d5d"/><path d="M570.239,60.954c-.2.015-.328.033-.457.033-.922,0-1.843-.01-2.764.008a.546.546,0,0,1-.579-.369c-.223-.485-.48-.954-.734-1.452H565.3c-2.244,0-4.488.006-6.733-.007a.557.557,0,0,0-.612.374c-.173.409-.4.794-.6,1.193a.384.384,0,0,1-.375.255c-1.04-.006-2.081,0-3.121-.007a1.022,1.022,0,0,1-.248-.081c.067-.168.114-.319.183-.459q2.645-5.3,5.29-10.6a.626.626,0,0,1,.653-.4q2.207.024,4.414,0a.589.589,0,0,1,.616.383q2.642,5.329,5.3,10.647A4.42,4.42,0,0,1,570.239,60.954Zm-5.774-4.206c-.09-.195-.148-.328-.213-.458q-.61-1.214-1.223-2.427c-.268-.53-.528-1.064-.807-1.589a.318.318,0,0,0-.591-.006c-.024.038-.043.078-.063.118q-1.042,2.069-2.082,4.139a1.491,1.491,0,0,0-.068.223Z" transform="translate(-490.092 -46.501)" fill="#5d5d5d"/><path d="M307.231,54.459c2.17,2.141,4.3,4.238,6.419,6.337.016.016.006.057.012.126a1.145,1.145,0,0,1-.269.066c-1.338,0-2.677,0-4.015.006a.634.634,0,0,1-.476-.2c-.222-.22-.451-.432-.673-.652l-3.4-3.353c-.073-.073-.151-.141-.257-.239-.575.452-1.15.891-1.707,1.353a.534.534,0,0,0-.1.363c-.009.714,0,1.428,0,2.141v.52a2.545,2.545,0,0,1-.366.058q-1.338.007-2.677,0c-.361,0-.408-.053-.427-.409,0-.074,0-.149,0-.223q0-5.13,0-10.261c0-.647,0-.647.639-.647q1.138,0,2.275,0c.16,0,.32.013.54.023.033.843.012,1.655.016,2.466s0,1.594,0,2.5c.2-.15.331-.238.452-.335,1.811-1.447,3.624-2.89,5.427-4.347a1.3,1.3,0,0,1,.892-.31c1.085.017,2.171.005,3.257.007.157,0,.313.015.475.024.037.277-.158.345-.288.448q-1.851,1.468-3.706,2.93Z" transform="translate(-283.057 -46.504)" fill="#5d5d5d"/><path d="M234.139,33.641c.818,0,1.56-.008,2.3.009a.519.519,0,0,1,.316.2c.161.193.287.416.44.617.2.263.4.258.6-.011.142-.19.259-.4.413-.58a.591.591,0,0,1,.35-.226c.728-.017,1.456,0,2.184,0,.022,0,.044.035.093.076a.889.889,0,0,1-.1.212c-.456.529-.91,1.059-1.382,1.573a.589.589,0,0,1-.382.177q-1.472.022-2.944,0a.592.592,0,0,1-.385-.169c-.474-.512-.93-1.041-1.386-1.569A1.23,1.23,0,0,1,234.139,33.641Z" transform="translate(-230.022 -33.639)" fill="#5d5d5d"/><path d="M283.887,253.894a31.38,31.38,0,1,1,31.384-30.85A31.362,31.362,0,0,1,283.887,253.894Zm-.005-2.766a28.607,28.607,0,1,0-28.61-28.615A28.574,28.574,0,0,0,283.882,251.128Z" transform="translate(-244.963 -161.85)" fill="#5d5d5d"/><path d="M311.4,233.944c-.084-.155-.147-.285-.222-.407a30.316,30.316,0,0,0-3.737-4.816,46.168,46.168,0,0,0-3.49-3.314,2.708,2.708,0,0,1-.375-.381.585.585,0,0,1,.208-.933,2.41,2.41,0,0,1,.419-.149,25.2,25.2,0,0,1,4.49-.892,29.581,29.581,0,0,1,3.647-.138,9.336,9.336,0,0,1,1.02.083,2.009,2.009,0,0,1,1.113.521,30.826,30.826,0,0,1,6.41,7.6,30.309,30.309,0,0,1,2.105,4.955,25.8,25.8,0,0,1,1.324,5.485c.116.986.188,1.981.212,2.974a37.052,37.052,0,0,1-.037,3.745c-.111,1.432-.323,2.858-.556,4.276-.354,2.155-.911,4.266-1.475,6.374a2.792,2.792,0,0,0-.083.835.861.861,0,0,0,.928.912,4.543,4.543,0,0,0,.49,0c.443-.026.635-.221.653-.676.012-.3,0-.6,0-.892.009-.639.347-.914.972-.808a14.707,14.707,0,0,1,7.466,3.646.831.831,0,0,1,.03,1.4,14.616,14.616,0,0,1-7.529,3.708c-.6.106-.929-.192-.939-.811,0-.312,0-.625,0-.937a.52.52,0,0,0-.516-.6,2.1,2.1,0,0,0-.355-.02q-11.6,0-23.2,0a1.89,1.89,0,0,0-1.015.27c-.826.5-1.669.973-2.5,1.472a1.894,1.894,0,0,1-1.055.282c-.907-.018-1.815-.017-2.721,0a.736.736,0,0,1-.728-.394,44.26,44.26,0,0,0-4.559-6.263,1.215,1.215,0,0,1-.361-.924,1,1,0,0,1,.936-.867,3.078,3.078,0,0,1,.357-.006c2.245,0,4.491,0,6.737,0a2.041,2.041,0,0,1,.9.2q2.035.962,4.077,1.909a4.612,4.612,0,0,0,.787.3,1.13,1.13,0,0,0,1.4-1.266,14.623,14.623,0,0,0-3.975-8.436,17.022,17.022,0,0,0-6.384-3.964,29.9,29.9,0,0,0-5.077-1.33,2.653,2.653,0,0,1-.39-.089.886.886,0,0,1-.669-.94,15.14,15.14,0,0,1,.3-1.843,23.467,23.467,0,0,1,2.2-6.053c.063-.118.132-.233.19-.353a1.055,1.055,0,0,1,1.411-.6,36.2,36.2,0,0,1,6.3,2.2c.714.33,1.411.7,2.123,1.035a3.966,3.966,0,0,0,1.967.492,1.2,1.2,0,0,0,.767-.295,3.887,3.887,0,0,0-.291-.318,48.354,48.354,0,0,0-8.688-6.13l-.038-.023c-.644-.362-.688-.612-.217-1.168a24.018,24.018,0,0,1,6.088-5.1,1.484,1.484,0,0,1,1.664-.016,42.754,42.754,0,0,1,5.966,4.057c.916.756,1.784,1.569,2.678,2.351a4.688,4.688,0,0,0,1.551.944A2.565,2.565,0,0,0,311.4,233.944Zm1.319,20.608a3.171,3.171,0,0,0,3.212,3.173,3.189,3.189,0,0,0-.033-6.378A3.163,3.163,0,0,0,312.718,254.552Z" transform="translate(-272.347 -187.717)" fill="#5d5d5d"/></svg>