<svg xmlns="http://www.w3.org/2000/svg" width="205.48" height="47.9" viewBox="0 0 205.48 47.9"><path d="M1117.244,474.755h4.026V449.372h-4.234v25.383Z" transform="translate(-1034.728 -438.472)" fill="#5d5d5d"/><path d="M1139.258,474.755h4.026V449.372h-4.234v25.383Z" transform="translate(-1048.32 -438.472)" fill="#5d5d5d"/><path d="M1315.166,495.257a7.673,7.673,0,0,0,6.5-2.085c2.176-2.059,3.564-4.743,5.879-11.014l4.442-11.846.092-.256h-4.257l-.046.115-4,11.757-4.258-11.757-.046-.115h-4.65l.092.256,6.641,16.637a9.9,9.9,0,0,1-2.222,3.564,4.742,4.742,0,0,1-4.165,1.2v3.542" transform="translate(-1156.844 -451.243)" fill="#5d5d5d"/><path d="M1277.882,483.854c-2.635,0-4.6-2.291-4.6-5.807s1.968-5.81,4.6-5.81c2.687,0,4.631,2.293,4.631,5.81s-1.968,5.807-4.631,5.807m.025-14.95c-5.228,0-8.816,3.773-8.816,9.165,0,5.483,3.54,9.186,8.816,9.186s8.794-3.7,8.794-9.186c0-5.392-3.587-9.165-8.794-9.165" transform="translate(-1128.61 -450.532)" fill="#5d5d5d"/><path d="M1072.54,483.734c-2.638,0-4.6-2.313-4.6-5.808,0-3.516,1.967-5.808,4.6-5.808,2.684,0,4.627,2.291,4.627,5.808,0,3.495-1.967,5.808-4.627,5.808m.023-14.946c-5.368,0-8.816,3.7-8.816,9.162,0,5.485,3.448,9.187,8.816,9.187s8.793-3.7,8.793-9.187c0-5.461-3.424-9.162-8.793-9.162" transform="translate(-1001.826 -450.46)" fill="#5d5d5d"/><rect width="8.307" height="3.191" transform="translate(111.324 23.003)" fill="#5d5d5d"/><path d="M1023.536,455.283h-1.412c-.6,0-1,.046-1.3.046v7.636h2.476c2.916,0,4.906-1.5,4.906-3.887,0-2.477-1.619-3.772-4.673-3.8m8.215,13.676a61.731,61.731,0,0,1,1.664,7.217l-4.512.025a37.981,37.981,0,0,0-1.295-5.832c-.9-2.867-2.036-4.187-4.721-4.187h-2.06v9.995h-4.257v-24.32c.9,0,1.968-.069,3.1-.069h3.424c3.449,0,5.717.719,7.29,2.082a6.2,6.2,0,0,1,2.036,4.814,5.988,5.988,0,0,1-3.958,5.878c1.529.718,2.5,1.966,3.288,4.4" transform="translate(-972.697 -439.964)" fill="#5d5d5d"/><path d="M1229.423,455.283h-1.412c-.6,0-.995.046-1.3.046v7.636h2.477c2.915,0,4.905-1.5,4.905-3.887,0-2.477-1.62-3.772-4.673-3.8m8.213,13.676a61.542,61.542,0,0,1,1.667,7.217l-4.512.025a37.913,37.913,0,0,0-1.3-5.832c-.9-2.867-2.038-4.187-4.721-4.187h-2.06v9.995h-4.257v-24.32c.9,0,1.967-.069,3.1-.069h3.427c3.447,0,5.716.719,7.289,2.082a6.2,6.2,0,0,1,2.036,4.814,5.992,5.992,0,0,1-3.959,5.878c1.529.718,2.5,1.966,3.286,4.4" transform="translate(-1099.817 -439.964)" fill="#5d5d5d"/><path d="M1158.7,482.874a9.124,9.124,0,0,0,4.3,1.181c2.083,0,2.916-.672,2.916-1.945,0-1.295-.67-1.849-2.891-2.66-3.264-1.157-4.7-3.077-4.7-5.114,0-2.939,2.429-5.368,6.34-5.368a9.2,9.2,0,0,1,4.466,1.133l-.833,2.824a7.892,7.892,0,0,0-3.633-.81c-1.62.022-2.267.762-2.267,1.8,0,1.2,1.226,1.9,2.8,2.432,3.124,1.04,4.791,2.8,4.791,5.436-.024,3.126-2.637,5.414-7.034,5.414a8.768,8.768,0,0,1-5.091-1.318l.833-3.009" transform="translate(-1059.935 -450.571)" fill="#5d5d5d"/><path d="M1373.282,486.243a12.343,12.343,0,0,1-4.93.95,8.5,8.5,0,0,1-8.838-8.885c0-5.231,3.4-9.28,9.51-9.28a10.841,10.841,0,0,1,4.3.9l-.74,3.077a7.824,7.824,0,0,0-3.472-.6c-3.585,0-5.276,2.36-5.251,5.716,0,3.749,2.059,5.831,5.229,5.831a8.723,8.723,0,0,0,3.611-.74l.578,3.029" transform="translate(-1184.439 -450.608)" fill="#5d5d5d"/><path d="M1409.636,476.169c.024-1.734-.487-4.07-3.656-4.07-2.917,0-3.773,2.152-3.98,4.07h7.636m-7.659,2.987c.116,3.586,2.269,4.86,5.231,4.86a12.541,12.541,0,0,0,4.79-.835l.624,2.916a14.945,14.945,0,0,1-5.97,1.225c-5.508,0-8.795-3.632-8.795-8.909,0-4.951,2.987-9.325,8.379-9.325,5.645,0,7.357,4.766,7.357,8.307a8.865,8.865,0,0,1-.091,1.734Z" transform="translate(-1208.114 -450.646)" fill="#5d5d5d"/><path d="M931.176,427.537H910.142a1.6,1.6,0,0,0-1.6,1.6v4.674H932.8v-4.674A1.6,1.6,0,0,0,931.176,427.537Zm-17.747,5.206c-.279-.394-.44-.9-.672-1.273a.652.652,0,0,0-.648-.37h-.646v.741c0,.346.115.785.323.9h-1.527c.208-.117.323-.556.323-.9V429.5a1.211,1.211,0,0,0-.323-.926h2.129a3.155,3.155,0,0,1,1.158.116,1.092,1.092,0,0,1,.67,1.109,1.053,1.053,0,0,1-.973,1.065,1.666,1.666,0,0,1,.672.831,2.39,2.39,0,0,0,.74,1.043Zm5.16-.371a2.118,2.118,0,0,1-1.435.487,2.16,2.16,0,0,1-1.435-.487,2.133,2.133,0,0,1-.74-1.712,2.167,2.167,0,0,1,.74-1.712,2.457,2.457,0,0,1,2.87,0,2.168,2.168,0,0,1,.74,1.712A2.134,2.134,0,0,1,918.589,432.372Zm4.443.371h-3.126a1.155,1.155,0,0,0,.324-.9V429.5a1.24,1.24,0,0,0-.324-.926h1.505a1.336,1.336,0,0,0-.3.926v2.569h.81a1.568,1.568,0,0,0,1.25-.393Zm3.748.023h-3.1a1.215,1.215,0,0,0,.323-.925V429.5a1.246,1.246,0,0,0-.323-.926h1.5a1.243,1.243,0,0,0-.323.926v2.569h.832a1.5,1.5,0,0,0,1.251-.393Zm2.453.047a3.728,3.728,0,0,1-1.551-.3v-.995a1.345,1.345,0,0,0,.44.368,2.249,2.249,0,0,0,1.11.279c.579,0,.925-.255.925-.625,0-.439-.439-.508-1.109-.6-.857-.116-1.319-.51-1.319-1.2.022-.694.671-1.225,1.619-1.225a3.038,3.038,0,0,1,1.366.276v.9a1.1,1.1,0,0,0-.51-.37,2.649,2.649,0,0,0-.857-.139c-.463,0-.74.186-.74.418,0,.392.37.439,1.18.6s1.3.51,1.272,1.226C931.037,432.256,930.39,432.813,929.232,432.813Z" transform="translate(-906.001 -424.991)" fill="#5d5d5d"/><path d="M917.139,432.01h-.971v1.18h.971c.533,0,.88-.162.88-.577C918.019,432.173,917.672,432.01,917.139,432.01Z" transform="translate(-910.707 -427.752)" fill="#5d5d5d"/><path d="M929.029,431.89a1.217,1.217,0,0,0-.88.348,1.5,1.5,0,0,0-.37,1.111,1.434,1.434,0,0,0,.37,1.111,1.289,1.289,0,0,0,1.759,0,1.432,1.432,0,0,0,.394-1.111,1.5,1.5,0,0,0-.394-1.111A1.211,1.211,0,0,0,929.029,431.89Z" transform="translate(-917.876 -427.678)" fill="#5d5d5d"/><path d="M931.211,425.024a4.138,4.138,0,0,0-4.143-4.143H906.034a4.137,4.137,0,0,0-4.141,4.143v39.616a4.138,4.138,0,0,0,4.141,4.142h21.034a4.138,4.138,0,0,0,4.143-4.142V425.024m-27.907,0a2.735,2.735,0,0,1,2.731-2.73h21.034a2.741,2.741,0,0,1,2.755,2.73v39.616a2.741,2.741,0,0,1-2.755,2.73H906.034a2.735,2.735,0,0,1-2.731-2.73Z" transform="translate(-901.893 -420.881)" fill="#5d5d5d"/><path d="M908.546,446.892v28H932.8v-28Zm11.8,26.286h-5.415a2.752,2.752,0,0,0,1.413-2.753v-8.562a21.624,21.624,0,0,0,2.591-.415v1.3c.37-.023.74-.023,1.086-.068.256.461.463.948.673,1.432-.579.047-1.159.07-1.759.094v6.225A2.789,2.789,0,0,0,920.347,473.178Zm1-2.824a3.45,3.45,0,0,0,.787-3.077,13.777,13.777,0,0,0-2.708-6.526,20.8,20.8,0,0,1-5.182.626V467.6a2.762,2.762,0,0,0,1.411,2.753h-5.416a2.725,2.725,0,0,0,1.412-2.753V451.543a2.748,2.748,0,0,0-1.412-2.753h7.8a8.63,8.63,0,0,1,4.883,1.134,5.39,5.39,0,0,1,2.359,4.465,6.2,6.2,0,0,1-3.725,5.553c-.093.047-.162.071-.254.116a18.414,18.414,0,0,1,3.564,7.961,3.962,3.962,0,0,0,1.272,2.336Zm5.392,2.8a3.336,3.336,0,0,0,.786-3.053,13.958,13.958,0,0,0-2.938-6.709l-.486.139c-.209-.485-.464-1-.718-1.482,3.078-1.041,3.957-3.078,3.957-4.813A3.955,3.955,0,0,0,925.878,454a6.07,6.07,0,0,0-.579-2.175,6.706,6.706,0,0,1,2.314.9,5.428,5.428,0,0,1,2.361,4.467,6.16,6.16,0,0,1-3.541,5.438,18.257,18.257,0,0,1,3.817,8.191,4.223,4.223,0,0,0,1.273,2.336Z" transform="translate(-906.001 -436.941)" fill="#5d5d5d"/><path d="M930.229,456.457a5.377,5.377,0,0,0-3.123-.857h-3.678v9.718c6.754-.115,8.4-3.146,8.4-5.53A3.93,3.93,0,0,0,930.229,456.457Z" transform="translate(-915.189 -442.317)" fill="#5d5d5d"/><g transform="translate(2.545 39.084)"><path d="M908.546,523.042v4.674a1.6,1.6,0,0,0,1.6,1.6h21.034a1.6,1.6,0,0,0,1.62-1.6v-4.674Zm4.743,5.113c-.255-.37-.417-.856-.624-1.2a.687.687,0,0,0-.648-.369h-.6v.717a1.255,1.255,0,0,0,.3.878h-1.435a1.255,1.255,0,0,0,.3-.878v-2.221a1.14,1.14,0,0,0-.3-.879h2.013a3.588,3.588,0,0,1,1.111.092,1.077,1.077,0,0,1,.648,1.087,1.02,1.02,0,0,1-.927.995c.279.116.441.417.625.786a2.4,2.4,0,0,0,.717,1.018Zm4.906-.347a2.071,2.071,0,0,1-3.424-1.619,1.964,1.964,0,0,1,2.059-2.084,2.145,2.145,0,0,1,1.365.441,2.108,2.108,0,0,1,.717,1.642A2.026,2.026,0,0,1,918.195,527.808Zm4.535-2.823-1.18,1.666v.648a1.165,1.165,0,0,0,.3.856h-1.435a1.153,1.153,0,0,0,.3-.856v-.648l-1.3-1.828a1.455,1.455,0,0,0-.625-.624h1.6a.263.263,0,0,0-.138.185c-.024.116.068.254.161.392l.787,1.158.787-1.135a.74.74,0,0,0,.138-.37c.023-.093-.022-.161-.115-.231h1.435A2.9,2.9,0,0,0,922.73,524.985Zm3.98,3.054a2.865,2.865,0,0,1-1.18.208,2.084,2.084,0,0,1-1.5-3.634,2.237,2.237,0,0,1,1.5-.508,2.468,2.468,0,0,1,1.18.232v.855a1.519,1.519,0,0,0-1.2-.417,1.407,1.407,0,0,0,0,2.8,1.838,1.838,0,0,0,1.343-.44Zm4.025.139h-3.192a1.217,1.217,0,0,0,.3-.878v-2.221a1.256,1.256,0,0,0-.3-.879h3.17v.879a1.693,1.693,0,0,0-1.134-.232h-.9v.994h1.62l-.093.6h-1.527v1.086h1.017c.51,0,.95-.022,1.181-.323Z" transform="translate(-908.546 -523.042)" fill="#5d5d5d"/><path d="M916.969,527.759h-.926v1.11h.926c.509,0,.834-.161.834-.555C917.8,527.9,917.478,527.759,916.969,527.759Z" transform="translate(-913.175 -525.954)" fill="#5d5d5d"/></g><path d="M928.317,527.636a1.147,1.147,0,0,0-.856.326,1.43,1.43,0,0,0-.347,1.063,1.345,1.345,0,0,0,.347,1.043,1.2,1.2,0,0,0,1.69,0,1.349,1.349,0,0,0,.346-1.043,1.434,1.434,0,0,0-.346-1.063A1.135,1.135,0,0,0,928.317,527.636Z" transform="translate(-917.466 -486.794)" fill="#5d5d5d"/></svg>