<svg xmlns="http://www.w3.org/2000/svg" width="108.847" height="60.362" viewBox="0 0 108.847 60.362"><path d="M433.738,272.335a1.934,1.934,0,0,0-3.677.175,1.927,1.927,0,0,0,1.023,2.231l-6.313,13.573-.019.01q.511-9.15,1.023-18.3a1.928,1.928,0,1,0-1.815-1.383,1.883,1.883,0,0,0,1.318,1.309q-2.105,8.942-4.211,17.886-1.018-9.854-2.037-19.71a1.93,1.93,0,0,0-.12-3.834,1.656,1.656,0,0,0-.866.138,1.92,1.92,0,0,0-1.142,2.35A1.943,1.943,0,0,0,418,268l.462.129c.045.054,0,.262-.01.35l-.092.9-.387,3.751-1.512,14.661h-.009l-4.2-17.84a1.648,1.648,0,0,0,.727-.4,1.932,1.932,0,0,0,.553-2.137,1.974,1.974,0,0,0-2.147-1.217,1.944,1.944,0,0,0-1.475,1.235,1.924,1.924,0,0,0,1.843,2.59q.506,9.144,1.013,18.291h-.009q-3.169-6.794-6.341-13.591a1.929,1.929,0,1,0-.415.157h.009l4.276,14.522.968,3.29q.151.516.3,1.032a3.415,3.415,0,0,0,.94,1.355,9.657,9.657,0,0,0,.893.691,10.064,10.064,0,0,0,2.958,1.142c.423.105.873.118,1.327.194l.572.027a7.443,7.443,0,0,0,2.028-.083c.407-.072.777-.1,1.151-.193a8.763,8.763,0,0,0,3.18-1.42,4.542,4.542,0,0,0,1.179-1.327,7.743,7.743,0,0,0,.526-1.557q.461-1.567.921-3.133l4.276-14.5c.047-.037.413.051.563.028a2.31,2.31,0,0,0,.893-.3A1.962,1.962,0,0,0,433.738,272.335Zm-8.994,21.646c-.21.771-1.554,1.137-2.378,1.346a16.664,16.664,0,0,1-7.667-.1,3.281,3.281,0,0,1-1.889-1.032c-.4-.634.308-1.084.691-1.308a9.608,9.608,0,0,1,3.161-.848l1.133-.092.544-.019a13.714,13.714,0,0,1,5.382.839C424.1,292.933,424.911,293.364,424.743,293.98Z" transform="translate(-364.297 -264.275)" fill="#5d5d5d"/><path d="M410.648,310.161l9.668.009v1.392h-2.682v15.61H422a9.284,9.284,0,0,0,2.266-.093,3.1,3.1,0,0,0,2.083-1.833,8.5,8.5,0,0,0,.212-2.783q.005-.54.009-1.078l1.392.009v7.179H410.648v-1.4h2.682v-15.61h-2.682v-1.4Z" transform="translate(-364.993 -268.799)" fill="#5d5d5d"/><path d="M433.089,310.171h18.293V316.5h-1.4q-.005-1.092-.009-2.184a3.12,3.12,0,0,0-1.032-1.99,3.462,3.462,0,0,0-1.365-.69,4.7,4.7,0,0,0-1.078-.065h-6.478v6.6h1.254a7.83,7.83,0,0,0,1.308-.027,2.158,2.158,0,0,0,1.843-1.632,6.808,6.808,0,0,0,.046-1.438h1.272v7.7H444.47a7.091,7.091,0,0,0-.046-1.549,2.265,2.265,0,0,0-1.843-1.76,7.1,7.1,0,0,0-1.3-.028h-1.263v7.749h6.515a4.6,4.6,0,0,0,.82-.028,3.056,3.056,0,0,0,1.843-.985,3.5,3.5,0,0,0,.718-1.392,5.064,5.064,0,0,0,.065-1.143v-1.686h1.4v6.625H433.089v-1.392h2.627V311.572h-2.627v-1.4Z" transform="translate(-367.206 -268.8)" fill="#5d5d5d"/><path d="M457.1,310.192h9.3v1.345h-1.2l-.562.019a.674.674,0,0,0-.387.295c-.271.452.167.827.36,1.077q1.009,1.259,2.018,2.516l.838,1.041c.058.074.187.309.267.286q1.452-1.74,2.9-3.483c.244-.31,1.034-.909.654-1.474-.28-.417-1.465-.281-2.166-.277v-1.345h7.429v1.345a6.529,6.529,0,0,0-2.138.166,3.942,3.942,0,0,0-1.53,1.355c-.79,1-1.687,1.927-2.47,2.939l-1.328,1.566c-.07.09-.408.453-.35.508l2.11,2.626,3.354,4.174a8.61,8.61,0,0,0,1.954,2.082,4.68,4.68,0,0,0,2.212.295v1.346l-10.018-.009v-1.337h1.272a2.472,2.472,0,0,0,.636-.027.673.673,0,0,0,.36-.277c.338-.557-.553-1.333-.811-1.668l-3.364-4.2-.037.028-3.511,4.211c-.269.343-1.218,1.088-.792,1.677a.675.675,0,0,0,.323.231,2.66,2.66,0,0,0,.681.027h1.475q0,.673-.009,1.346h-7.944v-1.346a6.833,6.833,0,0,0,2.2-.156,3.723,3.723,0,0,0,1.466-1.263c.267-.333.572-.637.838-.976l4.258-5.078-4.885-6.073a6.082,6.082,0,0,0-2.064-2.008,3.794,3.794,0,0,0-1.346-.157v-1.345Z" transform="translate(-369.527 -268.802)" fill="#5d5d5d"/><path d="M405.642,318.249a12.108,12.108,0,0,0-.681-2.654,9.913,9.913,0,0,0-6.986-5.944,9.77,9.77,0,0,0-2.544-.258l-1.059.083a11.821,11.821,0,0,0-2.083.507,10.109,10.109,0,0,0-6.046,6.055,10.754,10.754,0,0,0-.461,1.879,9.2,9.2,0,0,0,.443,4.478c.136.351.251.675.4,1.005a10.075,10.075,0,0,0,4.368,4.561,9.827,9.827,0,0,0,1.4.6,8.388,8.388,0,0,0,3.142.526h1.1a15.109,15.109,0,0,0,2.008-.4A9.919,9.919,0,0,0,405,322.865a9.3,9.3,0,0,0,.69-3.612A5.878,5.878,0,0,0,405.642,318.249Zm-4.119,1.419q-.018.356-.037.709c-.086.5-.122.987-.239,1.447-.594,2.318-1.737,4.262-3.834,5.078a7.7,7.7,0,0,1-1.485.258,2.483,2.483,0,0,1-.718-.027l-.59-.056a4.612,4.612,0,0,1-1.733-.764,7.342,7.342,0,0,1-2.618-3.991c-.128-.41-.18-.827-.277-1.28a10.294,10.294,0,0,1,.037-3.8c.535-2.416,1.469-4.238,3.336-5.326a4.952,4.952,0,0,1,1.355-.47l.663-.083a5.42,5.42,0,0,1,1.972.267c2.27.885,3.3,2.831,3.936,5.353.1.4.127.854.2,1.3l.027.608Z" transform="translate(-362.531 -268.723)" fill="#5d5d5d"/><path d="M380.008,327.151l-.857-2.479-.425-1.253c-.581-1.486-1.248-2.816-2.682-3.446a3.932,3.932,0,0,0-1.1-.388v-.009l.433-.092.709-.249a4.793,4.793,0,0,0,2.2-1.99,4.728,4.728,0,0,0,.424-3.686,4.684,4.684,0,0,0-2.747-3.068,7.865,7.865,0,0,0-3-.351H360.046v1.383h2.59V327.16H360v1.392l9.585.009v-1.4h-2.646v-7.51c2.136,0,4.261-.078,5.6.709,1.768,1.038,2.42,3.443,3,5.686.135.526.223,1.075.36,1.622l.184.884H382.1q.005-.7.01-1.392ZM374.3,316.775a3.536,3.536,0,0,1-2.128,1.382,8.832,8.832,0,0,1-1.935.092h-3.29v-6.726h3.317a8.071,8.071,0,0,1,2.23.175,3.311,3.311,0,0,1,2.258,2.193,6.081,6.081,0,0,1,.138.811A3.182,3.182,0,0,1,374.3,316.775Z" transform="translate(-360 -268.797)" fill="#5d5d5d"/></svg>