<svg xmlns="http://www.w3.org/2000/svg" width="130.44" height="36.116" viewBox="0 0 130.44 36.116"><path d="M465.5,295.4v4.634a2.645,2.645,0,0,1-.121.964,2.51,2.51,0,0,1-2.709,1.866,2.777,2.777,0,0,1-2.287-.964,2.746,2.746,0,0,1-.481-1.986V295.4h1.023v4.393a2.521,2.521,0,0,0,.361,1.686,1.738,1.738,0,0,0,1.385.6,1.705,1.705,0,0,0,1.746-1.2,6.168,6.168,0,0,0,.06-1.083V295.4Z" transform="translate(-445.15 -266.804)" fill="#5d5d5d" fill-rule="evenodd"/><path d="M477.812,300.011a3.553,3.553,0,0,1-3.552,2.889c-2.468,0-3.611-1.865-3.611-3.852a3.535,3.535,0,0,1,3.732-3.853,3.179,3.179,0,0,1,3.311,2.227l-.964.18a2.547,2.547,0,0,0-2.347-1.625,2.609,2.609,0,0,0-2.047.9,3.218,3.218,0,0,0-.6,2.107c0,1.806.9,3.07,2.588,3.07a2.352,2.352,0,0,0,2.468-2.167l1.023.12Z" transform="translate(-446.21 -266.784)" fill="#5d5d5d" fill-rule="evenodd"/><path d="M489.565,300.011a3.573,3.573,0,0,1-3.612,2.889c-2.408,0-3.552-1.865-3.552-3.852a3.536,3.536,0,0,1,3.732-3.853,3.178,3.178,0,0,1,3.311,2.227l-.963.18a2.313,2.313,0,0,0-.481-.782,2.43,2.43,0,0,0-1.926-.843,2.571,2.571,0,0,0-1.987.9,3.218,3.218,0,0,0-.6,2.107c0,1.806.9,3.07,2.589,3.07a2.389,2.389,0,0,0,2.468-2.167l1.023.12Z" transform="translate(-447.369 -266.784)" fill="#5d5d5d" fill-rule="evenodd"/><path d="M494.355,295.4h.963v7.283h-.963V295.4Z" transform="translate(-448.547 -266.804)" fill="#5d5d5d" fill-rule="evenodd"/><path d="M547.437,295.4v4.634a2.663,2.663,0,0,1-.12.964,2.512,2.512,0,0,1-2.71,1.866,2.613,2.613,0,0,1-2.227-.964,2.746,2.746,0,0,1-.481-1.986V295.4h.963v4.393a2.516,2.516,0,0,0,.361,1.686,1.736,1.736,0,0,0,1.384.6,1.7,1.7,0,0,0,1.746-1.2c.06-.361.06-.663.121-1.083V295.4Z" transform="translate(-453.234 -266.804)" fill="#5d5d5d" fill-rule="evenodd"/><path d="M574.93,295.4v7.283h-.843l-4.033-5.9.12,5.9h-.963V295.4h.963l3.973,5.839-.06-5.839Z" transform="translate(-455.927 -266.804)" fill="#5d5d5d" fill-rule="evenodd"/><path d="M584.491,295.4h1.023l-2.588,7.283h-.963L579.5,295.4h1.023l1.926,6.079,2.046-6.079Z" transform="translate(-456.941 -266.804)" fill="#5d5d5d" fill-rule="evenodd"/><path d="M495.89,266.846v12.038a5.188,5.188,0,0,1-1.806,3.371,8.384,8.384,0,0,1-4.394,1.385,9.032,9.032,0,0,1-3.13-.6h-.121a5.072,5.072,0,0,1-3.25-4.213h0V266.846h0a2.652,2.652,0,0,1,1.083-2.167h-5.478a2.7,2.7,0,0,1,1.144,2.167h0v11.979a5.819,5.819,0,0,0,3.432,4.875h.06a11.05,11.05,0,0,0,5.116,1.2,11.711,11.711,0,0,0,5.237-1.144l.06-.06a5.934,5.934,0,0,0,3.431-4.875h0V266.786a2.538,2.538,0,0,1,1.083-2.107h-3.732s1.264,1.264,1.264,2.167Z" transform="translate(-447.013 -263.776)" fill="#5d5d5d" fill-rule="evenodd"/><path d="M512.117,274.271a10.457,10.457,0,0,0,8.306,10.233,19,19,0,0,0,2.769.3,12.518,12.518,0,0,0,7.524-2.468s1.324-.782,1.324-1.565l.481-3.853a10.726,10.726,0,0,1-5.357,5.779,8.878,8.878,0,0,1-4.153,1.083h0a6.2,6.2,0,0,1-5.478-3.311l-.121-.18a12.251,12.251,0,0,1,0-11.979l.121-.241a6.371,6.371,0,0,1,5.478-3.37h0a9.612,9.612,0,0,1,4.153,1.023,12.07,12.07,0,0,1,4.876,5.778v-3.671c0-.843-1.264-1.686-1.264-1.686a12.7,12.7,0,0,0-7.584-2.468,19,19,0,0,0-2.769.3,10.474,10.474,0,0,0-8.306,10.293Z" transform="translate(-450.298 -263.677)" fill="#5d5d5d" fill-rule="evenodd"/><path d="M547.91,274.332a10.449,10.449,0,0,0,8.367,10.233,22.128,22.128,0,0,0,2.768.241,12.612,12.612,0,0,0,7.525-2.408s1.264-.843,1.264-1.625l.481-3.853a11.326,11.326,0,0,1-5.3,5.839,9.883,9.883,0,0,1-4.214,1.023h0a6.258,6.258,0,0,1-5.477-3.25l-.121-.241a12.245,12.245,0,0,1,0-11.979l.121-.18A6.309,6.309,0,0,1,558.8,264.7h0a9.883,9.883,0,0,1,4.214,1.023,12.231,12.231,0,0,1,4.815,5.778v-3.671c0-.782-1.264-1.686-1.264-1.686a12.529,12.529,0,0,0-7.525-2.468,17.832,17.832,0,0,0-2.768.3,10.532,10.532,0,0,0-8.367,10.354Z" transform="translate(-453.827 -263.677)" fill="#5d5d5d" fill-rule="evenodd"/><path d="M582.166,264.679a2.7,2.7,0,0,1,1.144,2.167V282.8a2.538,2.538,0,0,1-1.083,2.107h5.357a2.653,2.653,0,0,1-1.023-2.107V266.846a2.65,2.65,0,0,1,1.083-2.167Z" transform="translate(-457.204 -263.776)" fill="#5d5d5d" fill-rule="evenodd"/><path d="M454.432,264.767h0a9.879,9.879,0,0,1,4.213,1.024,12.084,12.084,0,0,1,4.815,5.718V267.9c0-.843-1.2-1.686-1.2-1.686a12.842,12.842,0,0,0-7.584-2.468,18.984,18.984,0,0,0-2.769.3,10.53,10.53,0,0,0,.964,20.767,9.276,9.276,0,0,0,1.806.121,12.864,12.864,0,0,0,8.126-2.89l.3-.361a2.081,2.081,0,0,0,.421-1.2v-3.07a2.651,2.651,0,0,1,1.083-2.166h-5.6a2.651,2.651,0,0,1,1.083,2.166l.06,2.83a1.994,1.994,0,0,1-.6,1.445,5.768,5.768,0,0,1-1.625,1.264,7.744,7.744,0,0,1-3.25.9c-4.154,0-7.4-4.275-7.4-9.571,0-5.236,3.311-9.511,7.465-9.511Z" transform="translate(-443.537 -263.684)" fill="#5d5d5d" fill-rule="evenodd"/><path d="M450.849,298.808v.843h2.529A2.587,2.587,0,0,1,450.488,302c-1.866-.06-2.528-1.625-2.528-3.01a2.714,2.714,0,0,1,2.709-3.01,2.583,2.583,0,0,1,1.866.722,2.063,2.063,0,0,1,.481.843l1.024-.24a4.4,4.4,0,0,0-.843-1.2,3.83,3.83,0,0,0-2.529-.9,3.682,3.682,0,0,0-3.792,3.913,3.556,3.556,0,0,0,3.612,3.791h0a3.523,3.523,0,0,0,3.732-3.791h0l.06-.3Z" transform="translate(-443.866 -266.784)" fill="#5d5d5d" fill-rule="evenodd"/><path d="M509.612,298.808v.843h2.529a2.566,2.566,0,0,1-2.83,2.347c-1.926-.06-2.588-1.625-2.588-3.01a2.727,2.727,0,0,1,2.769-3.01,2.419,2.419,0,0,1,1.806.722,3.809,3.809,0,0,1,.542.843l.963-.24a3.33,3.33,0,0,0-.843-1.2,3.844,3.844,0,0,0-6.32,3.01,3.569,3.569,0,0,0,3.671,3.791h0a3.554,3.554,0,0,0,3.733-3.791h0v-.3Z" transform="translate(-449.66 -266.784)" fill="#5d5d5d" fill-rule="evenodd"/><path d="M557.459,295.517a3.721,3.721,0,0,0-1.144-.12h-3.13v7.283h.9V299.61h2.107a3.7,3.7,0,0,0,1.2-.121,2,2,0,0,0,1.323-2.046A1.878,1.878,0,0,0,557.459,295.517Zm-.06,2.889c-.3.361-.663.361-1.265.361h-2.046v-2.528h2.287a1.534,1.534,0,0,1,1.024.241,1.467,1.467,0,0,1,0,1.926Z" transform="translate(-454.347 -266.804)" fill="#5d5d5d" fill-rule="evenodd"/><path d="M522.393,299.55a1.91,1.91,0,0,0,1.746-2.046,2.052,2.052,0,0,0-.782-1.686,3.257,3.257,0,0,0-2.167-.421h-2.528v7.283h.964V299.61h1.685l1.987,3.069h1.144Zm-1.023-.782h-1.745v-2.588h1.685a2.076,2.076,0,0,1,1.385.3,1.418,1.418,0,0,1,.48,1.083,1.128,1.128,0,0,1-.9,1.144A4.544,4.544,0,0,1,521.37,298.767Z" transform="translate(-450.943 -266.804)" fill="#5d5d5d" fill-rule="evenodd"/><path d="M532.817,295.2a3.857,3.857,0,0,0,0,7.7c2.408,0,3.671-1.745,3.671-3.973A3.522,3.522,0,0,0,532.817,295.2Zm.06,6.923c-1.927,0-2.649-1.566-2.649-3.07,0-1.686.782-3.07,2.589-3.07,1.685,0,2.648,1.2,2.648,3.01C535.466,300.494,534.8,302.119,532.878,302.119Z" transform="translate(-451.977 -266.784)" fill="#5d5d5d" fill-rule="evenodd"/></svg>