<svg xmlns="http://www.w3.org/2000/svg" width="85.163" height="60.237" viewBox="0 0 85.163 60.237"><path d="M397.832,323.689a.724.724,0,0,0,.638.228c.487-.061.5-.794.5-.794s.111-1.672.111-3.361a6.929,6.929,0,0,0-1.652-3.977s-17.212-18.955-23.237-18.955-23.229,18.955-23.229,18.955a6.918,6.918,0,0,0-1.658,3.977c0,1.684.111,3.361.111,3.361s.018.733.5.794a.748.748,0,0,0,.646-.228c1.919-1.67,17.273-14.849,23.633-14.849s21.716,13.179,23.643,14.849" transform="translate(-331.61 -279.387)" fill="#5d5d5d"/><path d="M349.911,315.276a.746.746,0,0,0,.646-.214c1.925-1.666,17.273-14.855,23.633-14.855s21.716,13.189,23.637,14.855a.746.746,0,0,0,.644.214c.487-.042.5-.782.5-.782s.111-1.674.111-3.363a6.9,6.9,0,0,0-1.658-3.981s-17.206-18.957-23.231-18.957-23.229,18.957-23.229,18.957a6.9,6.9,0,0,0-1.658,3.981c0,1.688.111,3.363.111,3.363s.018.739.5.782" transform="translate(-331.61 -288.194)" fill="#5d5d5d"/><path d="M372.425,314.04c-2.092-.053-4.211-.01-4.231,0-2.559,0-4.643,1.763-4.643,3.945,0,2.212,2.084,4.009,4.643,4.009.02,0,2.139.04,4.231,0,2.569,0,4.653-1.8,4.653-4.009,0-2.159-2.044-3.9-4.653-3.945m-1.432,6.857s-.768.026-1.347,0a2.991,2.991,0,0,1-3.056-2.9,2.933,2.933,0,0,1,3.056-2.84,12.109,12.109,0,0,1,1.347,0,2.937,2.937,0,0,1,3.062,2.84,2.99,2.99,0,0,1-3.062,2.9" transform="translate(-317.083 -261.865)" fill="#5d5d5d"/><path d="M383.989,314.079h-6.6c-.107,0-.355.026-.355.291v7.162a.276.276,0,0,0,.277.293h2.753v-5.992a.385.385,0,0,1,.4-.394h3.04a2.249,2.249,0,0,1,2.08,2.4v3.68a.306.306,0,0,0,.315.3H388.5v-3.793c0-2.214-1.985-3.953-4.512-3.953" transform="translate(-303.338 -261.799)" fill="#5d5d5d"/><path d="M361.923,314.079H350.582a.3.3,0,0,0-.3.3v1.232H353a1.718,1.718,0,0,1,1.7,1.688v4.233a.309.309,0,0,0,.3.3h2.749v-5.821a.4.4,0,0,1,.4-.4h4.066v-1.232a.292.292,0,0,0-.295-.3" transform="translate(-330.613 -261.799)" fill="#5d5d5d"/><path d="M350.716,314.079h-2.452a.3.3,0,0,0-.293.291v7.162a.3.3,0,0,0,.293.3h2.747V314.37a.3.3,0,0,0-.295-.291" transform="translate(-332.969 -261.799)" fill="#5d5d5d"/><path d="M366.722,319l.006,0a2.609,2.609,0,0,0,2.236-2.414,2.817,2.817,0,0,0-3.074-2.5h-7.317A1.555,1.555,0,0,0,357,315.658v5.873a.282.282,0,0,0,.283.3h2.747v-2.751h2.6a3.1,3.1,0,0,1,3.318,2.751h3.026A3.528,3.528,0,0,0,366.722,319m-1.927-1.289h-4.766v-1.549a.694.694,0,0,1,.731-.721h4.048a1.135,1.135,0,1,1-.012,2.27" transform="translate(-323.763 -261.799)" fill="#5d5d5d"/><path d="M346.655,315.155c.168-.006.771-.034,1.329,0a3.152,3.152,0,0,1,2.686,1.48.269.269,0,0,0,.248.141h2.959a4.81,4.81,0,0,0-4.459-2.769c-1.07,0-2.981-.065-4.239,0a4.821,4.821,0,0,0-3.268,1.2,3.746,3.746,0,0,0-1.367,2.842c0,2.216,1.973,3.951,4.585,4.047,1.792.057,1.987.067,4.338-.006a4.5,4.5,0,0,0,4.407-2.775h-2.961a.274.274,0,0,0-.248.15,3.1,3.1,0,0,1-2.648,1.5c-.388,0-.9,0-1.373,0a2.909,2.909,0,1,1,.012-5.809" transform="translate(-340.543 -261.901)" fill="#5d5d5d"/><path d="M374.008,320.039v-1.47h6.207V317.2H374v-1.337a.407.407,0,0,1,.461-.394h7.119v-1.093c0-.321-.339-.3-.349-.3h-9.969a.284.284,0,0,0-.3.3v5.871a1.567,1.567,0,0,0,1.594,1.575h8.733a.306.306,0,0,0,.293-.293v-1.095h-7.166a.381.381,0,0,1-.408-.4" transform="translate(-309.525 -261.799)" fill="#5d5d5d"/><path d="M374.539,312.826a2.08,2.08,0,0,0-1.058-.271,2.013,2.013,0,0,0-1.052.271.747.747,0,0,0-.436.642.759.759,0,0,0,.436.644,2.228,2.228,0,0,0,2.086.022c.265-.156.549-.432.848-.432a1.715,1.715,0,0,1,.828.41,2.045,2.045,0,0,0,1.052.271,2.024,2.024,0,0,0,1.068-.271.751.751,0,0,0,.426-.644.732.732,0,0,0-.436-.642,1.994,1.994,0,0,0-1.054-.271,2.025,2.025,0,0,0-1.056.271c-.279.172-.5.412-.828.412s-.525-.24-.824-.412" transform="translate(-308.474 -263.353)" fill="#5d5d5d"/></svg>