<svg xmlns="http://www.w3.org/2000/svg" xmlns:xlink="http://www.w3.org/1999/xlink" width="612.981" height="470.477" viewBox="0 0 612.981 470.477"><defs><linearGradient id="a" x1="0.199" y1="1.269" x2="0.925" y2="-0.17" gradientUnits="objectBoundingBox"><stop offset="0" stop-color="#ae0721"/><stop offset="1" stop-color="#e50019"/></linearGradient></defs><g transform="translate(-278 -961.307)"><g transform="translate(-223.301 578.985)" opacity="0.33"><g transform="translate(501.301 414.273)"><g transform="translate(16.869 348.309)"><path d="M515.894,539.219a8.747,8.747,0,0,1-.308,2.476,5.2,5.2,0,0,1-.842,1.733,3.417,3.417,0,0,1-1.258,1.021,3.805,3.805,0,0,1-3.116,0,3.457,3.457,0,0,1-1.251-1.021,5.206,5.206,0,0,1-.839-1.733,10.288,10.288,0,0,1,0-4.958,5.212,5.212,0,0,1,.839-1.739,3.394,3.394,0,0,1,1.251-1.026,3.805,3.805,0,0,1,3.116,0A3.356,3.356,0,0,1,514.744,535a5.209,5.209,0,0,1,.842,1.739A8.8,8.8,0,0,1,515.894,539.219Zm-1.407,0a8.979,8.979,0,0,0-.21-2.1,4.233,4.233,0,0,0-.563-1.365,2.158,2.158,0,0,0-.819-.743,2.211,2.211,0,0,0-1.933,0,2.154,2.154,0,0,0-.816.743,4.294,4.294,0,0,0-.556,1.365,10.6,10.6,0,0,0,0,4.195,4.3,4.3,0,0,0,.556,1.362,2.154,2.154,0,0,0,.816.743,2.19,2.19,0,0,0,1.933,0,2.158,2.158,0,0,0,.819-.743,4.242,4.242,0,0,0,.563-1.362A8.918,8.918,0,0,0,514.486,539.219Z" transform="translate(-507.977 -533.64)" fill="#1a1818"/></g><g transform="translate(40.629 390.162)"><g transform="translate(0 0.119)"><path d="M525.18,562.126v1.241h-7.015v-1.241h2.8V553.2c0-.271.01-.538.028-.814l-2.33,2a.5.5,0,0,1-.238.121.589.589,0,0,1-.22.005.516.516,0,0,1-.187-.073.43.43,0,0,1-.131-.119l-.513-.7,3.9-3.371h1.324v11.876Z" transform="translate(-517.38 -550.25)" fill="#1a1818"/></g><g transform="translate(74.333)"><path d="M554.956,561.895a.569.569,0,0,1,.419.154.553.553,0,0,1,.154.4v.985H546.8v-.556a.92.92,0,0,1,.076-.356.909.909,0,0,1,.227-.339l4.192-4.212q.519-.527.95-1.016a7.114,7.114,0,0,0,.73-.983,4.689,4.689,0,0,0,.465-1,3.447,3.447,0,0,0,.167-1.081,2.584,2.584,0,0,0-.184-1.008,1.986,1.986,0,0,0-.5-.72,2.068,2.068,0,0,0-.745-.424,2.94,2.94,0,0,0-.922-.139,2.741,2.741,0,0,0-.92.144,2.374,2.374,0,0,0-1.289,1.023,2.343,2.343,0,0,0-.311.786.733.733,0,0,1-.3.424.871.871,0,0,1-.523.061l-.852-.147a4.773,4.773,0,0,1,.5-1.587,3.861,3.861,0,0,1,.932-1.155,3.972,3.972,0,0,1,1.284-.707,4.884,4.884,0,0,1,1.562-.243,4.7,4.7,0,0,1,1.552.248,3.628,3.628,0,0,1,1.253.718,3.324,3.324,0,0,1,.831,1.145,3.758,3.758,0,0,1,.3,1.534,4.013,4.013,0,0,1-.22,1.359,5.436,5.436,0,0,1-.591,1.19,9.314,9.314,0,0,1-.864,1.107c-.326.356-.672.72-1.036,1.084l-3.454,3.527c.243-.066.49-.119.738-.162a4.871,4.871,0,0,1,.725-.058Z" transform="translate(-546.797 -550.203)" fill="#1a1818"/></g><g transform="translate(149.231)"><path d="M576.84,553.895a4.888,4.888,0,0,1,.493-1.587,3.777,3.777,0,0,1,.93-1.155,3.959,3.959,0,0,1,1.286-.707,4.932,4.932,0,0,1,1.569-.243,4.771,4.771,0,0,1,1.534.237,3.571,3.571,0,0,1,1.208.675,3.07,3.07,0,0,1,.791,1.061,3.278,3.278,0,0,1,.283,1.38,3.571,3.571,0,0,1-.159,1.109,2.651,2.651,0,0,1-.457.857,2.868,2.868,0,0,1-.715.619,4.4,4.4,0,0,1-.943.422,3.475,3.475,0,0,1,1.923,1.127,3.078,3.078,0,0,1,.644,2,3.755,3.755,0,0,1-.341,1.625,3.683,3.683,0,0,1-.937,1.228,4.176,4.176,0,0,1-1.385.776,5.152,5.152,0,0,1-1.693.27,5.363,5.363,0,0,1-1.781-.26,3.667,3.667,0,0,1-1.251-.718,3.741,3.741,0,0,1-.841-1.084,8.166,8.166,0,0,1-.558-1.354l.7-.293a.891.891,0,0,1,.536-.063.526.526,0,0,1,.381.3c.078.169.177.372.3.612a2.876,2.876,0,0,0,.488.685,2.664,2.664,0,0,0,.791.556,2.809,2.809,0,0,0,1.218.23,3.006,3.006,0,0,0,1.2-.225,2.677,2.677,0,0,0,.859-.579,2.445,2.445,0,0,0,.516-.8,2.338,2.338,0,0,0,.174-.867,3.229,3.229,0,0,0-.139-.968,1.611,1.611,0,0,0-.51-.761,2.68,2.68,0,0,0-1.028-.5,6.382,6.382,0,0,0-1.675-.185v-1.177a5.229,5.229,0,0,0,1.428-.184,2.748,2.748,0,0,0,.96-.472,1.762,1.762,0,0,0,.538-.723,2.455,2.455,0,0,0,.169-.93,2.509,2.509,0,0,0-.177-.988,1.876,1.876,0,0,0-.488-.692,2.082,2.082,0,0,0-.735-.414,3.01,3.01,0,0,0-.92-.134,2.756,2.756,0,0,0-.917.144,2.49,2.49,0,0,0-.75.4,2.443,2.443,0,0,0-.543.619,2.58,2.58,0,0,0-.311.786.79.79,0,0,1-.3.424.846.846,0,0,1-.518.061Z" transform="translate(-576.438 -550.203)" fill="#1a1818"/></g><g transform="translate(223.627 0.147)"><path d="M615.747,558.627v.932a.367.367,0,0,1-.088.248.339.339,0,0,1-.268.1h-1.627v3.444h-1.425v-3.444h-5.809a.5.5,0,0,1-.316-.1.46.46,0,0,1-.167-.263l-.167-.829,6.368-8.45h1.516v8.366Zm-3.409,0v-5.4c0-.157.008-.328.02-.521s.03-.379.053-.574l-4.766,6.494Z" transform="translate(-605.88 -550.261)" fill="#1a1818"/></g><g transform="translate(299.415 0.147)"><path d="M638.155,555.2a8.994,8.994,0,0,1,1.882-.22,5.065,5.065,0,0,1,1.809.3,3.655,3.655,0,0,1,1.309.831,3.484,3.484,0,0,1,.8,1.251,4.484,4.484,0,0,1,.268,1.572,4.772,4.772,0,0,1-.359,1.883,4.3,4.3,0,0,1-1,1.44,4.409,4.409,0,0,1-1.493.917,5.506,5.506,0,0,1-2.959.2,5.656,5.656,0,0,1-.991-.306,5.776,5.776,0,0,1-.854-.44,4.647,4.647,0,0,1-.692-.521l.5-.692a.5.5,0,0,1,.43-.237.788.788,0,0,1,.412.141c.149.094.339.2.558.316a4.992,4.992,0,0,0,.768.313,3.45,3.45,0,0,0,1.056.141,3.282,3.282,0,0,0,1.233-.22,2.625,2.625,0,0,0,.942-.627,2.765,2.765,0,0,0,.6-.973,3.641,3.641,0,0,0,.21-1.269,3.223,3.223,0,0,0-.179-1.1,2.165,2.165,0,0,0-.536-.841,2.477,2.477,0,0,0-.9-.538,3.715,3.715,0,0,0-1.261-.192,6.663,6.663,0,0,0-2.118.349l-1.023-.3,1.051-6.12h6.2v.713a.776.776,0,0,1-.215.568.981.981,0,0,1-.735.225h-4.111Z" transform="translate(-635.873 -550.261)" fill="#1a1818"/></g><g transform="translate(374.349 0.147)"><path d="M668.871,555.166q-.174.22-.334.424c-.109.139-.21.273-.306.407a3.816,3.816,0,0,1,1.021-.493,4.069,4.069,0,0,1,1.215-.174,4.351,4.351,0,0,1,1.5.26,3.545,3.545,0,0,1,2.062,1.984,4.179,4.179,0,0,1,.311,1.657,4.25,4.25,0,0,1-.328,1.68,4.133,4.133,0,0,1-.917,1.352,4.246,4.246,0,0,1-1.418.9,5.24,5.24,0,0,1-3.611.015,3.843,3.843,0,0,1-1.367-.9,3.948,3.948,0,0,1-.867-1.405,5.3,5.3,0,0,1-.306-1.852,5.1,5.1,0,0,1,.376-1.829,8.922,8.922,0,0,1,1.213-2.08l3.323-4.465a1,1,0,0,1,.354-.278,1.085,1.085,0,0,1,.516-.116h1.443Zm.95,6.979a3.275,3.275,0,0,0,1.193-.21,2.7,2.7,0,0,0,.912-.586,2.615,2.615,0,0,0,.586-.884,3.024,3.024,0,0,0,.2-1.114,3.18,3.18,0,0,0-.2-1.157,2.445,2.445,0,0,0-.571-.874,2.535,2.535,0,0,0-.882-.553,3.151,3.151,0,0,0-1.122-.192,3.022,3.022,0,0,0-1.187.225,2.652,2.652,0,0,0-.9.6,2.623,2.623,0,0,0-.568.877,2.789,2.789,0,0,0-.195,1.039,3.4,3.4,0,0,0,.182,1.15,2.468,2.468,0,0,0,.533.895,2.386,2.386,0,0,0,.859.581A3.069,3.069,0,0,0,669.821,562.145Z" transform="translate(-665.528 -550.261)" fill="#1a1818"/></g><g transform="translate(449.321 0.147)"><path d="M704.085,550.261v.733a1.616,1.616,0,0,1-.068.51c-.048.134-.091.245-.134.339l-5.425,10.934a1.209,1.209,0,0,1-.328.407.875.875,0,0,1-.558.167H696.4l5.5-10.795a4.105,4.105,0,0,1,.248-.422,3.546,3.546,0,0,1,.273-.366H695.59a.354.354,0,0,1-.273-.124.381.381,0,0,1-.119-.278v-1.1Z" transform="translate(-695.198 -550.261)" fill="#1a1818"/></g><g transform="translate(522.635)"><path d="M730.5,556.616a3.585,3.585,0,0,1,1.88,1.16,3.2,3.2,0,0,1,.66,2.082,3.616,3.616,0,0,1-.323,1.549,3.359,3.359,0,0,1-.907,1.172,4.108,4.108,0,0,1-1.392.745,6.288,6.288,0,0,1-3.581,0,4.156,4.156,0,0,1-1.4-.745,3.265,3.265,0,0,1-.9-1.172,3.616,3.616,0,0,1-.321-1.549,3.2,3.2,0,0,1,.66-2.082,3.585,3.585,0,0,1,1.88-1.16,3.164,3.164,0,0,1-1.556-1.147,3.12,3.12,0,0,1-.526-1.822,3.251,3.251,0,0,1,.283-1.352,3.209,3.209,0,0,1,.806-1.094,3.71,3.71,0,0,1,1.246-.733,5.07,5.07,0,0,1,3.237,0,3.686,3.686,0,0,1,1.251.733,3.208,3.208,0,0,1,.806,1.094,3.249,3.249,0,0,1,.283,1.352,3.12,3.12,0,0,1-.526,1.822A3.163,3.163,0,0,1,730.5,556.616Zm-1.875,5.673a3.4,3.4,0,0,0,1.15-.179,2.451,2.451,0,0,0,.857-.5,2.178,2.178,0,0,0,.538-.778,2.555,2.555,0,0,0,.189-1,2.7,2.7,0,0,0-.225-1.155,2.113,2.113,0,0,0-.6-.783,2.522,2.522,0,0,0-.872-.445,3.9,3.9,0,0,0-2.064,0,2.52,2.52,0,0,0-.872.445,2.115,2.115,0,0,0-.6.783,2.7,2.7,0,0,0-.225,1.155,2.553,2.553,0,0,0,.19,1,2.174,2.174,0,0,0,.538.778,2.449,2.449,0,0,0,.857.5A3.394,3.394,0,0,0,728.624,562.289Zm0-10.825a2.779,2.779,0,0,0-1.026.172,2.08,2.08,0,0,0-.74.477,1.992,1.992,0,0,0-.447.7,2.411,2.411,0,0,0-.152.859,3.019,3.019,0,0,0,.129.867,1.964,1.964,0,0,0,1.147,1.266,3.116,3.116,0,0,0,2.181,0,1.963,1.963,0,0,0,1.147-1.266,3.023,3.023,0,0,0,.129-.867,2.413,2.413,0,0,0-.152-.859,1.99,1.99,0,0,0-.447-.7,2.082,2.082,0,0,0-.74-.477A2.782,2.782,0,0,0,728.624,551.464Z" transform="translate(-724.212 -550.203)" fill="#1a1818"/></g></g><g transform="translate(8.829 314.245)"><path d="M511.3,530.093v1.036h-5.847v-1.036h2.337v-7.434c0-.225.008-.45.023-.68l-1.941,1.668a.421.421,0,0,1-.2.1.5.5,0,0,1-.182,0,.45.45,0,0,1-.159-.061.42.42,0,0,1-.109-.1l-.427-.586,3.252-2.81h1.1v9.9Z" transform="translate(-504.795 -520.099)" fill="#1a1818"/><path d="M515.893,525.738a8.765,8.765,0,0,1-.308,2.479,5.193,5.193,0,0,1-.841,1.731,3.368,3.368,0,0,1-1.258,1.021,3.806,3.806,0,0,1-3.116,0,3.405,3.405,0,0,1-1.251-1.021,5.189,5.189,0,0,1-.839-1.731,10.284,10.284,0,0,1,0-4.958,5.219,5.219,0,0,1,.839-1.741,3.409,3.409,0,0,1,1.251-1.023,3.779,3.779,0,0,1,3.116,0,3.372,3.372,0,0,1,1.258,1.023,5.224,5.224,0,0,1,.841,1.741A8.778,8.778,0,0,1,515.893,525.738Zm-1.407,0a8.971,8.971,0,0,0-.21-2.1,4.209,4.209,0,0,0-.563-1.365,2.137,2.137,0,0,0-.819-.743,2.19,2.19,0,0,0-1.933,0,2.131,2.131,0,0,0-.816.743,4.266,4.266,0,0,0-.556,1.365,10.579,10.579,0,0,0,0,4.192,4.249,4.249,0,0,0,.556,1.362,2.112,2.112,0,0,0,.816.743,2.19,2.19,0,0,0,1.933,0,2.118,2.118,0,0,0,.819-.743,4.192,4.192,0,0,0,.563-1.362A8.9,8.9,0,0,0,514.485,525.738Z" transform="translate(-499.938 -520.159)" fill="#1a1818"/></g><g transform="translate(8.296 280.188)"><path d="M511.384,516.425a.481.481,0,0,1,.351.129.452.452,0,0,1,.126.336v.821h-7.277v-.465a.751.751,0,0,1,.063-.3.822.822,0,0,1,.189-.283l3.495-3.51c.288-.293.553-.576.791-.849a6.164,6.164,0,0,0,.609-.816,3.994,3.994,0,0,0,.389-.834,2.932,2.932,0,0,0,.136-.9,2.108,2.108,0,0,0-.154-.839,1.685,1.685,0,0,0-.414-.6,1.742,1.742,0,0,0-.619-.354,2.464,2.464,0,0,0-.771-.119,2.4,2.4,0,0,0-.768.121,2.114,2.114,0,0,0-.622.341,1.984,1.984,0,0,0-.45.513,2.008,2.008,0,0,0-.26.654.617.617,0,0,1-.248.356.727.727,0,0,1-.437.048l-.71-.124a3.964,3.964,0,0,1,.417-1.319,3.172,3.172,0,0,1,1.847-1.552,4.24,4.24,0,0,1,2.6,0,2.989,2.989,0,0,1,1.041.6,2.759,2.759,0,0,1,.695.955,3.114,3.114,0,0,1,.25,1.279,3.407,3.407,0,0,1-.182,1.13,4.637,4.637,0,0,1-.5,1,7.687,7.687,0,0,1-.718.92c-.273.3-.561.6-.867.9l-2.878,2.939a5.252,5.252,0,0,1,.617-.131,3.6,3.6,0,0,1,.6-.051Z" transform="translate(-504.584 -506.681)" fill="#1a1818"/><path d="M515.893,512.26a8.746,8.746,0,0,1-.308,2.476,5.207,5.207,0,0,1-.841,1.733,3.418,3.418,0,0,1-1.258,1.021,3.805,3.805,0,0,1-3.116,0,3.456,3.456,0,0,1-1.251-1.021,5.2,5.2,0,0,1-.839-1.733,10.284,10.284,0,0,1,0-4.958,5.207,5.207,0,0,1,.839-1.739,3.393,3.393,0,0,1,1.251-1.026,3.8,3.8,0,0,1,3.116,0,3.357,3.357,0,0,1,1.258,1.026,5.212,5.212,0,0,1,.841,1.739A8.8,8.8,0,0,1,515.893,512.26Zm-1.407,0a8.977,8.977,0,0,0-.21-2.1,4.231,4.231,0,0,0-.563-1.365,2.157,2.157,0,0,0-.819-.743,2.211,2.211,0,0,0-1.933,0,2.151,2.151,0,0,0-.816.743,4.289,4.289,0,0,0-.556,1.365,10.591,10.591,0,0,0,0,4.194,4.3,4.3,0,0,0,.556,1.362,2.152,2.152,0,0,0,.816.743,2.19,2.19,0,0,0,1.933,0,2.158,2.158,0,0,0,.819-.743,4.241,4.241,0,0,0,.563-1.362A8.917,8.917,0,0,0,514.485,512.26Z" transform="translate(-499.405 -506.681)" fill="#1a1818"/></g><g transform="translate(8.235 246.125)"><path d="M504.9,496.276a3.993,3.993,0,0,1,.412-1.322,3.113,3.113,0,0,1,.773-.96,3.231,3.231,0,0,1,1.071-.591,4.044,4.044,0,0,1,1.306-.2,3.98,3.98,0,0,1,1.279.2,3,3,0,0,1,1.008.566,2.544,2.544,0,0,1,.66.879A2.772,2.772,0,0,1,511.64,496a2.992,2.992,0,0,1-.134.925,2.2,2.2,0,0,1-.379.71,2.319,2.319,0,0,1-.6.518,3.46,3.46,0,0,1-.783.351,2.906,2.906,0,0,1,1.6.94,2.573,2.573,0,0,1,.536,1.663,3.123,3.123,0,0,1-.286,1.354,3.027,3.027,0,0,1-.778,1.023,3.434,3.434,0,0,1-1.152.647,4.314,4.314,0,0,1-1.415.225,4.426,4.426,0,0,1-1.483-.217,3.028,3.028,0,0,1-1.044-.6,3.241,3.241,0,0,1-.7-.9,6.769,6.769,0,0,1-.465-1.13l.586-.245a.73.73,0,0,1,.445-.053.435.435,0,0,1,.316.253c.068.142.149.313.25.51a2.39,2.39,0,0,0,.407.568,2.084,2.084,0,0,0,.657.465,2.336,2.336,0,0,0,1.016.19,2.521,2.521,0,0,0,1-.184,2.155,2.155,0,0,0,.715-.485,2.046,2.046,0,0,0,.43-.659,1.979,1.979,0,0,0,.144-.723,2.7,2.7,0,0,0-.114-.809,1.353,1.353,0,0,0-.427-.632,2.25,2.25,0,0,0-.854-.419,5.34,5.34,0,0,0-1.4-.152v-.983a4.343,4.343,0,0,0,1.19-.152,2.228,2.228,0,0,0,.8-.4,1.449,1.449,0,0,0,.45-.6,2.058,2.058,0,0,0,.139-.776,2.092,2.092,0,0,0-.147-.821,1.566,1.566,0,0,0-.407-.579,1.684,1.684,0,0,0-.614-.344,2.556,2.556,0,0,0-.763-.114,2.406,2.406,0,0,0-.766.121,1.987,1.987,0,0,0-.624.341,2.008,2.008,0,0,0-.455.513,2.063,2.063,0,0,0-.258.654.66.66,0,0,1-.248.354.692.692,0,0,1-.43.051Z" transform="translate(-504.56 -493.201)" fill="#1a1818"/><path d="M515.893,498.78a8.766,8.766,0,0,1-.308,2.479,5.2,5.2,0,0,1-.841,1.731,3.367,3.367,0,0,1-1.258,1.021,3.805,3.805,0,0,1-3.116,0,3.4,3.4,0,0,1-1.251-1.021,5.19,5.19,0,0,1-.839-1.731,10.284,10.284,0,0,1,0-4.958,5.22,5.22,0,0,1,.839-1.741,3.412,3.412,0,0,1,1.251-1.023,3.779,3.779,0,0,1,3.116,0,3.374,3.374,0,0,1,1.258,1.023,5.224,5.224,0,0,1,.841,1.741A8.778,8.778,0,0,1,515.893,498.78Zm-1.407,0a8.97,8.97,0,0,0-.21-2.1,4.208,4.208,0,0,0-.563-1.365,2.137,2.137,0,0,0-.819-.743,2.19,2.19,0,0,0-1.933,0,2.131,2.131,0,0,0-.816.743,4.265,4.265,0,0,0-.556,1.365,10.579,10.579,0,0,0,0,4.192,4.252,4.252,0,0,0,.556,1.362,2.112,2.112,0,0,0,.816.743,2.189,2.189,0,0,0,1.933,0,2.118,2.118,0,0,0,.819-.743,4.2,4.2,0,0,0,.563-1.362A8.9,8.9,0,0,0,514.485,498.78Z" transform="translate(-499.344 -493.201)" fill="#1a1818"/></g><g transform="translate(7.757 212.063)"><path d="M512.593,486.742v.778a.3.3,0,0,1-.076.2.279.279,0,0,1-.225.083h-1.354v2.87h-1.188v-2.87h-4.841a.408.408,0,0,1-.4-.3l-.134-.692,5.3-7.045h1.263v6.974Zm-2.843,0v-4.5c0-.131.005-.275.015-.435s.025-.316.048-.478l-3.975,5.41Z" transform="translate(-504.371 -479.649)" fill="#1a1818"/><path d="M515.893,485.3a8.734,8.734,0,0,1-.308,2.476,5.207,5.207,0,0,1-.841,1.733,3.416,3.416,0,0,1-1.258,1.021,3.8,3.8,0,0,1-3.116,0,3.455,3.455,0,0,1-1.251-1.021,5.2,5.2,0,0,1-.839-1.733,10.284,10.284,0,0,1,0-4.958,5.207,5.207,0,0,1,.839-1.739,3.4,3.4,0,0,1,1.251-1.026,3.805,3.805,0,0,1,3.116,0,3.358,3.358,0,0,1,1.258,1.026,5.212,5.212,0,0,1,.841,1.739A8.808,8.808,0,0,1,515.893,485.3Zm-1.407,0a8.941,8.941,0,0,0-.21-2.1,4.223,4.223,0,0,0-.563-1.367,2.129,2.129,0,0,0-.819-.74,2.189,2.189,0,0,0-1.933,0,2.123,2.123,0,0,0-.816.74,4.281,4.281,0,0,0-.556,1.367,10.579,10.579,0,0,0,0,4.192,4.3,4.3,0,0,0,.556,1.362,2.152,2.152,0,0,0,.816.743,2.19,2.19,0,0,0,1.933,0,2.158,2.158,0,0,0,.819-.743,4.241,4.241,0,0,0,.563-1.362A8.917,8.917,0,0,0,514.485,485.3Z" transform="translate(-498.867 -479.721)" fill="#1a1818"/></g><g transform="translate(8.432 178.001)"><path d="M506.543,470.408a7.558,7.558,0,0,1,1.567-.182,4.212,4.212,0,0,1,1.509.25,3.1,3.1,0,0,1,1.094.695,2.883,2.883,0,0,1,.66,1.041,3.681,3.681,0,0,1,.225,1.309,3.959,3.959,0,0,1-.3,1.569,3.532,3.532,0,0,1-.829,1.2,3.685,3.685,0,0,1-1.243.766,4.442,4.442,0,0,1-1.549.265,4.539,4.539,0,0,1-.92-.094,4.768,4.768,0,0,1-.826-.255,4.563,4.563,0,0,1-.71-.366,4.138,4.138,0,0,1-.581-.432l.419-.579a.42.42,0,0,1,.359-.2.675.675,0,0,1,.344.119c.124.081.281.167.463.263a3.908,3.908,0,0,0,.644.263,2.919,2.919,0,0,0,.879.116,2.72,2.72,0,0,0,1.028-.182,2.162,2.162,0,0,0,.781-.521,2.276,2.276,0,0,0,.505-.809,3.052,3.052,0,0,0,.174-1.059,2.743,2.743,0,0,0-.149-.925,1.8,1.8,0,0,0-.447-.7,2.1,2.1,0,0,0-.75-.45,3.087,3.087,0,0,0-1.051-.159,5.629,5.629,0,0,0-.857.068,5.768,5.768,0,0,0-.91.22l-.851-.25.874-5.1h5.167v.594a.665.665,0,0,1-.177.478.834.834,0,0,1-.614.184h-3.426Z" transform="translate(-504.638 -466.168)" fill="#1a1818"/><path d="M515.893,471.82a8.765,8.765,0,0,1-.308,2.479,5.194,5.194,0,0,1-.841,1.731,3.368,3.368,0,0,1-1.258,1.021,3.805,3.805,0,0,1-3.116,0,3.405,3.405,0,0,1-1.251-1.021,5.19,5.19,0,0,1-.839-1.731,10.284,10.284,0,0,1,0-4.958,5.222,5.222,0,0,1,.839-1.741,3.412,3.412,0,0,1,1.251-1.023,3.779,3.779,0,0,1,3.116,0,3.375,3.375,0,0,1,1.258,1.023,5.226,5.226,0,0,1,.841,1.741A8.778,8.778,0,0,1,515.893,471.82Zm-1.407,0a8.971,8.971,0,0,0-.21-2.1,4.209,4.209,0,0,0-.563-1.364,2.136,2.136,0,0,0-.819-.743,2.19,2.19,0,0,0-1.933,0,2.13,2.13,0,0,0-.816.743,4.267,4.267,0,0,0-.556,1.364,10.58,10.58,0,0,0,0,4.192,4.25,4.25,0,0,0,.556,1.362,2.111,2.111,0,0,0,.816.743,2.189,2.189,0,0,0,1.933,0,2.117,2.117,0,0,0,.819-.743,4.193,4.193,0,0,0,.563-1.362A8.9,8.9,0,0,0,514.485,471.82Z" transform="translate(-499.541 -466.241)" fill="#1a1818"/></g><g transform="translate(8.402 143.942)"><path d="M507.413,456.9c-.1.119-.187.237-.275.351s-.177.23-.258.341a3.183,3.183,0,0,1,.854-.412,3.4,3.4,0,0,1,1.011-.144,3.63,3.63,0,0,1,1.248.215,3.008,3.008,0,0,1,1.026.632,3.049,3.049,0,0,1,.695,1.023,3.438,3.438,0,0,1,.26,1.38,3.512,3.512,0,0,1-.276,1.4,3.433,3.433,0,0,1-.763,1.127,3.576,3.576,0,0,1-1.18.753,4.35,4.35,0,0,1-3.012.013,3.179,3.179,0,0,1-1.137-.745,3.3,3.3,0,0,1-.725-1.172,4.5,4.5,0,0,1-.255-1.542,4.229,4.229,0,0,1,.316-1.526,7.335,7.335,0,0,1,1.011-1.731l2.772-3.725a.832.832,0,0,1,.293-.23.9.9,0,0,1,.43-.1h1.2Zm.791,5.814a2.718,2.718,0,0,0,1-.174,2.2,2.2,0,0,0,.761-.488,2.154,2.154,0,0,0,.485-.738,2.433,2.433,0,0,0,.174-.927,2.637,2.637,0,0,0-.169-.963,2,2,0,0,0-.475-.733,2.09,2.09,0,0,0-.733-.46,2.686,2.686,0,0,0-.937-.162,2.482,2.482,0,0,0-.99.19,2.3,2.3,0,0,0-.75.5,2.207,2.207,0,0,0-.47.73,2.358,2.358,0,0,0-.164.867,2.9,2.9,0,0,0,.152.958,2.118,2.118,0,0,0,.445.748,2.006,2.006,0,0,0,.718.48A2.494,2.494,0,0,0,508.2,462.714Z" transform="translate(-504.626 -452.69)" fill="#1a1818"/><path d="M515.893,458.341a8.735,8.735,0,0,1-.308,2.476,5.208,5.208,0,0,1-.841,1.733,3.417,3.417,0,0,1-1.258,1.021,3.805,3.805,0,0,1-3.116,0,3.456,3.456,0,0,1-1.251-1.021,5.2,5.2,0,0,1-.839-1.733,10.284,10.284,0,0,1,0-4.958,5.206,5.206,0,0,1,.839-1.739,3.393,3.393,0,0,1,1.251-1.026,3.8,3.8,0,0,1,3.116,0,3.357,3.357,0,0,1,1.258,1.026,5.211,5.211,0,0,1,.841,1.739A8.808,8.808,0,0,1,515.893,458.341Zm-1.407,0a8.955,8.955,0,0,0-.21-2.1,4.225,4.225,0,0,0-.563-1.367,2.129,2.129,0,0,0-.819-.74,2.19,2.19,0,0,0-1.933,0,2.123,2.123,0,0,0-.816.74,4.283,4.283,0,0,0-.556,1.367,10.579,10.579,0,0,0,0,4.192,4.3,4.3,0,0,0,.556,1.362,2.152,2.152,0,0,0,.816.743,2.189,2.189,0,0,0,1.933,0,2.158,2.158,0,0,0,.819-.743,4.243,4.243,0,0,0,.563-1.362A8.917,8.917,0,0,0,514.485,458.341Z" transform="translate(-499.511 -452.762)" fill="#1a1818"/></g><g transform="translate(8.402 109.882)"><path d="M512.035,439.331v.609a1.422,1.422,0,0,1-.056.427c-.04.111-.078.2-.111.281l-4.523,9.114a.986.986,0,0,1-.275.339.715.715,0,0,1-.462.139h-.975l4.581-9a4.012,4.012,0,0,1,.207-.351c.071-.106.147-.207.227-.306h-5.693a.306.306,0,0,1-.227-.1.331.331,0,0,1-.1-.232v-.922Z" transform="translate(-504.626 -439.21)" fill="#1a1818"/><path d="M515.893,444.862a8.766,8.766,0,0,1-.308,2.479,5.194,5.194,0,0,1-.841,1.731,3.368,3.368,0,0,1-1.258,1.021,3.805,3.805,0,0,1-3.116,0,3.4,3.4,0,0,1-1.251-1.021,5.19,5.19,0,0,1-.839-1.731,10.284,10.284,0,0,1,0-4.958,5.221,5.221,0,0,1,.839-1.741,3.413,3.413,0,0,1,1.251-1.023,3.779,3.779,0,0,1,3.116,0,3.376,3.376,0,0,1,1.258,1.023,5.225,5.225,0,0,1,.841,1.741A8.777,8.777,0,0,1,515.893,444.862Zm-1.407,0a8.97,8.97,0,0,0-.21-2.1,4.209,4.209,0,0,0-.563-1.365,2.137,2.137,0,0,0-.819-.743,2.19,2.19,0,0,0-1.933,0,2.131,2.131,0,0,0-.816.743,4.266,4.266,0,0,0-.556,1.365,10.58,10.58,0,0,0,0,4.192,4.251,4.251,0,0,0,.556,1.362,2.112,2.112,0,0,0,.816.743,2.19,2.19,0,0,0,1.933,0,2.118,2.118,0,0,0,.819-.743,4.194,4.194,0,0,0,.563-1.362A8.9,8.9,0,0,0,514.485,444.862Z" transform="translate(-499.511 -439.283)" fill="#1a1818"/></g><g transform="translate(8.318 75.823)"><path d="M509.834,431.148a3,3,0,0,1,1.567.965,2.677,2.677,0,0,1,.546,1.736,3.012,3.012,0,0,1-.268,1.291,2.832,2.832,0,0,1-.756.978,3.4,3.4,0,0,1-1.16.619,5.232,5.232,0,0,1-2.984,0,3.433,3.433,0,0,1-1.162-.619,2.772,2.772,0,0,1-.755-.978,3.011,3.011,0,0,1-.268-1.291,2.679,2.679,0,0,1,.548-1.736,3,3,0,0,1,1.569-.965,2.658,2.658,0,0,1-1.3-.955,2.624,2.624,0,0,1-.437-1.521,2.691,2.691,0,0,1,.907-2.039,3.108,3.108,0,0,1,1.039-.609,4.251,4.251,0,0,1,2.7,0,3.131,3.131,0,0,1,1.044.609,2.649,2.649,0,0,1,.667.915,2.681,2.681,0,0,1,.238,1.125,2.623,2.623,0,0,1-.437,1.521A2.661,2.661,0,0,1,509.834,431.148Zm-1.564,4.725a2.869,2.869,0,0,0,.955-.149,1.948,1.948,0,0,0,.715-.419,1.749,1.749,0,0,0,.45-.647,2.156,2.156,0,0,0,.159-.831,2.262,2.262,0,0,0-.19-.963,1.684,1.684,0,0,0-.5-.649,2.014,2.014,0,0,0-.725-.371,3.175,3.175,0,0,0-1.721,0,2.046,2.046,0,0,0-.728.371,1.759,1.759,0,0,0-.5.649,2.264,2.264,0,0,0-.184.963,2.155,2.155,0,0,0,.154.831,1.778,1.778,0,0,0,.45.647,1.968,1.968,0,0,0,.715.419A2.889,2.889,0,0,0,508.27,435.874Zm0-9.018a2.362,2.362,0,0,0-.857.141,1.814,1.814,0,0,0-.617.4,1.681,1.681,0,0,0-.371.586,2.047,2.047,0,0,0-.126.715,2.551,2.551,0,0,0,.106.723,1.633,1.633,0,0,0,.344.622,1.684,1.684,0,0,0,.614.435,2.271,2.271,0,0,0,.907.164,2.3,2.3,0,0,0,.912-.164,1.643,1.643,0,0,0,.955-1.056,2.463,2.463,0,0,0,.106-.723,2.047,2.047,0,0,0-.126-.715,1.649,1.649,0,0,0-.374-.586,1.767,1.767,0,0,0-.617-.4A2.343,2.343,0,0,0,508.27,426.855Z" transform="translate(-504.593 -425.804)" fill="#1a1818"/><path d="M515.893,431.383a8.734,8.734,0,0,1-.308,2.476,5.207,5.207,0,0,1-.841,1.734,3.416,3.416,0,0,1-1.258,1.021,3.8,3.8,0,0,1-3.116,0,3.454,3.454,0,0,1-1.251-1.021,5.2,5.2,0,0,1-.839-1.734,10.284,10.284,0,0,1,0-4.958,5.207,5.207,0,0,1,.839-1.739,3.393,3.393,0,0,1,1.251-1.026,3.8,3.8,0,0,1,3.116,0,3.357,3.357,0,0,1,1.258,1.026,5.212,5.212,0,0,1,.841,1.739A8.809,8.809,0,0,1,515.893,431.383Zm-1.407,0a8.956,8.956,0,0,0-.21-2.1,4.227,4.227,0,0,0-.563-1.367,2.13,2.13,0,0,0-.819-.74,2.19,2.19,0,0,0-1.933,0,2.124,2.124,0,0,0-.816.74,4.285,4.285,0,0,0-.556,1.367,10.58,10.58,0,0,0,0,4.192,4.3,4.3,0,0,0,.556,1.362,2.152,2.152,0,0,0,.816.743,2.19,2.19,0,0,0,1.933,0,2.158,2.158,0,0,0,.819-.743,4.242,4.242,0,0,0,.563-1.362A8.918,8.918,0,0,0,514.485,431.383Z" transform="translate(-499.428 -425.804)" fill="#1a1818"/></g><g transform="translate(8.382 41.761)"><path d="M509.139,419.01l.313-.419c.1-.134.187-.265.273-.4a3.023,3.023,0,0,1-.945.51,3.505,3.505,0,0,1-1.109.174,3.331,3.331,0,0,1-1.17-.2,2.83,2.83,0,0,1-.97-.6,2.994,2.994,0,0,1-.667-.983,3.643,3.643,0,0,1,.02-2.679,3.337,3.337,0,0,1,.745-1.087,3.514,3.514,0,0,1,1.142-.73,3.824,3.824,0,0,1,1.453-.268,3.738,3.738,0,0,1,1.425.26,3.156,3.156,0,0,1,1.8,1.832,4.068,4.068,0,0,1,.245,1.433,4.234,4.234,0,0,1-.088.894,4.465,4.465,0,0,1-.25.829,5.993,5.993,0,0,1-.4.809q-.235.4-.531.819l-2.658,3.833a.705.705,0,0,1-.283.235.95.95,0,0,1-.419.086h-1.248Zm-3.166-3.358a2.712,2.712,0,0,0,.147.925,1.888,1.888,0,0,0,.427.687,1.8,1.8,0,0,0,.677.427,2.627,2.627,0,0,0,.895.147,2.47,2.47,0,0,0,.97-.182,2.123,2.123,0,0,0,.713-.475,2.046,2.046,0,0,0,.442-.685,2.193,2.193,0,0,0,.152-.806,2.5,2.5,0,0,0-.164-.925,2.037,2.037,0,0,0-.452-.705,1.955,1.955,0,0,0-.69-.445,2.394,2.394,0,0,0-.877-.157,2.466,2.466,0,0,0-.915.164,2.1,2.1,0,0,0-.708.452,1.971,1.971,0,0,0-.457.692A2.392,2.392,0,0,0,505.972,415.652Z" transform="translate(-504.618 -412.324)" fill="#1a1818"/><path d="M515.893,417.9a8.766,8.766,0,0,1-.308,2.479,5.194,5.194,0,0,1-.841,1.731,3.367,3.367,0,0,1-1.258,1.021,3.805,3.805,0,0,1-3.116,0,3.4,3.4,0,0,1-1.251-1.021,5.189,5.189,0,0,1-.839-1.731,10.284,10.284,0,0,1,0-4.958,5.221,5.221,0,0,1,.839-1.741,3.412,3.412,0,0,1,1.251-1.023,3.779,3.779,0,0,1,3.116,0,3.374,3.374,0,0,1,1.258,1.023,5.225,5.225,0,0,1,.841,1.741A8.778,8.778,0,0,1,515.893,417.9Zm-1.407,0a8.97,8.97,0,0,0-.21-2.1,4.211,4.211,0,0,0-.563-1.365,2.138,2.138,0,0,0-.819-.743,2.189,2.189,0,0,0-1.933,0,2.132,2.132,0,0,0-.816.743,4.268,4.268,0,0,0-.556,1.365,10.579,10.579,0,0,0,0,4.192,4.249,4.249,0,0,0,.556,1.362,2.111,2.111,0,0,0,.816.743,2.19,2.19,0,0,0,1.933,0,2.117,2.117,0,0,0,.819-.743,4.192,4.192,0,0,0,.563-1.362A8.9,8.9,0,0,0,514.485,417.9Z" transform="translate(-499.491 -412.324)" fill="#1a1818"/></g><g transform="translate(0 7.699)"><path d="M507.8,408.778v1.036h-5.847v-1.036h2.337v-7.437c0-.225.008-.447.023-.677l-1.941,1.668a.473.473,0,0,1-.2.1.5.5,0,0,1-.182.005.5.5,0,0,1-.159-.061.423.423,0,0,1-.109-.1l-.427-.584,3.25-2.81h1.1v9.9Z" transform="translate(-501.301 -398.784)" fill="#1a1818"/><path d="M512.4,404.423a8.731,8.731,0,0,1-.308,2.476,5.207,5.207,0,0,1-.841,1.733,3.416,3.416,0,0,1-1.258,1.021,3.805,3.805,0,0,1-3.116,0,3.456,3.456,0,0,1-1.251-1.021,5.159,5.159,0,0,1-.839-1.733,10.284,10.284,0,0,1,0-4.958,5.163,5.163,0,0,1,.839-1.739,3.4,3.4,0,0,1,1.251-1.026,3.8,3.8,0,0,1,3.116,0,3.357,3.357,0,0,1,1.258,1.026,5.211,5.211,0,0,1,.841,1.739A8.8,8.8,0,0,1,512.4,404.423Zm-1.407,0a8.949,8.949,0,0,0-.21-2.1,4.186,4.186,0,0,0-.566-1.364,2.1,2.1,0,0,0-.816-.743,2.19,2.19,0,0,0-1.933,0,2.111,2.111,0,0,0-.816.743,4.244,4.244,0,0,0-.556,1.364,10.574,10.574,0,0,0,0,4.192,4.3,4.3,0,0,0,.556,1.362,2.131,2.131,0,0,0,.816.743,2.189,2.189,0,0,0,1.933,0,2.115,2.115,0,0,0,.816-.743,4.244,4.244,0,0,0,.566-1.362A8.911,8.911,0,0,0,510.991,404.423Z" transform="translate(-496.444 -398.844)" fill="#1a1818"/><path d="M515.894,404.423a8.735,8.735,0,0,1-.308,2.476,5.2,5.2,0,0,1-.842,1.733,3.416,3.416,0,0,1-1.258,1.021,3.805,3.805,0,0,1-3.116,0,3.455,3.455,0,0,1-1.251-1.021,5.207,5.207,0,0,1-.839-1.733,10.288,10.288,0,0,1,0-4.958,5.212,5.212,0,0,1,.839-1.739,3.394,3.394,0,0,1,1.251-1.026,3.8,3.8,0,0,1,3.116,0,3.356,3.356,0,0,1,1.258,1.026,5.209,5.209,0,0,1,.842,1.739A8.808,8.808,0,0,1,515.894,404.423Zm-1.407,0a8.956,8.956,0,0,0-.21-2.1,4.184,4.184,0,0,0-.563-1.364,2.117,2.117,0,0,0-.819-.743,2.19,2.19,0,0,0-1.933,0,2.113,2.113,0,0,0-.816.743,4.244,4.244,0,0,0-.556,1.364,10.586,10.586,0,0,0,0,4.192,4.3,4.3,0,0,0,.556,1.362,2.133,2.133,0,0,0,.816.743,2.189,2.189,0,0,0,1.933,0,2.137,2.137,0,0,0,.819-.743,4.242,4.242,0,0,0,.563-1.362A8.918,8.918,0,0,0,514.486,404.423Z" transform="translate(-491.108 -398.844)" fill="#1a1818"/></g><path d="M518.048,395.8V757.815h544.974" transform="translate(-475.73 -395.797)" fill="none" stroke="#777591" stroke-miterlimit="10" stroke-width="0.603"/><g transform="translate(117.252 27.218)"><line y1="346.154" fill="none" stroke="#565577" stroke-miterlimit="10" stroke-width="0.301"/><line y2="346.154" transform="translate(74.934)" fill="none" stroke="#565577" stroke-miterlimit="10" stroke-width="0.301"/><line y2="346.154" transform="translate(149.868)" fill="none" stroke="#565577" stroke-miterlimit="10" stroke-width="0.301"/><line y2="346.154" transform="translate(224.802)" fill="none" stroke="#565577" stroke-miterlimit="10" stroke-width="0.301"/><line y2="346.154" transform="translate(299.736)" fill="none" stroke="#565577" stroke-miterlimit="10" stroke-width="0.301"/><line y2="346.154" transform="translate(374.669)" fill="none" stroke="#565577" stroke-miterlimit="10" stroke-width="0.301"/><line y2="346.154" transform="translate(449.603)" fill="none" stroke="#565577" stroke-miterlimit="10" stroke-width="0.301"/></g></g><path d="M533.676,738.521s337.508-40.569,529.8-354.824" transform="translate(49.432 0)" fill="none" stroke="#e50019" stroke-linecap="round" stroke-miterlimit="10" stroke-width="2"/></g><g transform="translate(-107.394 951.283)"><path d="M868.463,480.5H509.645L693.984,274.524q37.8-42.176,37.8-77.241,0-46.563-37.8-46.565-19.176,0-30.541,13.423t-11.368,35.881v8.49H518.958q0-63.817,38.893-109.014,47.11-54.779,135.585-54.781,77.239,0,124.764,39.852t47.522,105.318q0,45.469-29.856,89.568-26.294,39.171-91.211,97.236H868.463Z" transform="translate(1.333 0)" fill="url(#a)" style="mix-blend-mode:darken;isolation:isolate"/></g></g></svg>