<svg xmlns="http://www.w3.org/2000/svg" xmlns:xlink="http://www.w3.org/1999/xlink" width="413.205" height="487.329" viewBox="0 0 413.205 487.329"><defs><linearGradient id="a" x1="-0.173" y1="1.549" x2="0.946" y2="0.017" gradientUnits="objectBoundingBox"><stop offset="0" stop-color="#ae0721"/><stop offset="1" stop-color="#e50019"/></linearGradient></defs><path d="M444.936,564.582q0,77.805-57.279,125.738T236.649,738.256q-90.055,0-145.495-42.882Q31.727,649.427,31.731,567.033q0-84.539,72.594-180.72L206.631,250.927H373.565L272.486,374.979q-18.076,22.365-26.342,34.613,19.6-4.895,45.944-4.9,68.3,0,110.576,43.495T444.936,564.582ZM296.99,566.42q0-25.423-15.62-43.19-17.158-18.989-44.108-18.991-24.2,0-41.045,16.234-17.766,17.158-17.765,45.333,0,26.958,17.153,44.874T236.649,628.6q27.26,0,44.413-19.3Q296.987,591.541,296.99,566.42Z" transform="translate(-31.731 -250.927)" fill="url(#a)"/></svg>