<svg xmlns="http://www.w3.org/2000/svg" width="9.624" height="20.718" viewBox="0 0 9.624 20.718"><path d="M81.221,545.589V555.6a.261.261,0,0,0,.261.261H85.2a.261.261,0,0,0,.261-.261V545.426h2.7a.26.26,0,0,0,.26-.239l.26-3.067a.262.262,0,0,0-.26-.283H85.463v-2.176a.924.924,0,0,1,.923-.924h2.078a.261.261,0,0,0,.261-.261v-3.067a.261.261,0,0,0-.261-.261H84.953a3.732,3.732,0,0,0-3.732,3.732v2.957h-1.86a.26.26,0,0,0-.26.261v3.067a.26.26,0,0,0,.26.261h1.86Z" transform="translate(-79.101 -535.148)" fill="#d5002b" fill-rule="evenodd"/></svg>