<svg xmlns="http://www.w3.org/2000/svg" width="18.224" height="17.406" viewBox="0 0 18.224 17.406"><g transform="translate(0.255 5.395)"><path d="M269.676,547.48v6.442a.288.288,0,0,1-.288.288h-3.326a.288.288,0,0,1-.288-.288v-5.991c0-1.577-.563-2.653-1.976-2.653a2.136,2.136,0,0,0-2,1.426,2.691,2.691,0,0,0-.129.951v6.267a.288.288,0,0,1-.288.288h-3.325a.287.287,0,0,1-.288-.288c.008-1.6.041-9.337.007-11.156a.287.287,0,0,1,.288-.292h3.318a.288.288,0,0,1,.288.288v1.375c-.007.013-.019.026-.026.039h.026v-.039a3.875,3.875,0,0,1,3.517-1.938c2.567,0,4.492,1.677,4.492,5.281Zm-17.681,6.73h3.324a.288.288,0,0,0,.288-.288v-11.16a.288.288,0,0,0-.288-.288h-3.324a.288.288,0,0,0-.288.288v11.16A.288.288,0,0,0,251.995,554.21Z" transform="translate(-251.707 -542.199)" fill="#d5002b"/></g><path d="M255.629,538.893a2.089,2.089,0,1,1-2.089-2.089A2.088,2.088,0,0,1,255.629,538.893Z" transform="translate(-251.452 -536.804)" fill="#d5002b"/></svg>