<svg xmlns="http://www.w3.org/2000/svg" width="193" height="63.441" viewBox="0 0 193 63.441"><g transform="translate(-278 -26)"><text transform="translate(278 57)" fill="#1a1818" font-size="34" font-family="ProximaNova-Extrabld, Proxima Nova"><tspan x="0" y="0">BODY</tspan><tspan y="0" font-family="ProximaNova-Regular, Proxima Nova">LEASE</tspan></text><g transform="translate(298.207 24.283)"><path d="M194.878,45.681a6.011,6.011,0,1,0,6.011,6.011A6.011,6.011,0,0,0,194.878,45.681Zm0,9.618a3.606,3.606,0,1,1,3.606-3.606A3.607,3.607,0,0,1,194.878,55.3Z" transform="translate(-29.096 -0.248)" fill="#d5002b"/><path d="M147.238,55.3l-2.56-2.56a3.606,3.606,0,0,0-1.046-7.058H134.5a7.85,7.85,0,0,1,1.919,2.384v.021h7.214a1.2,1.2,0,1,1,0,2.4h-8.269a6.012,6.012,0,0,0-11.78,0H114.32a3.605,3.605,0,0,1,3.4-2.4h4.809v-.021a7.866,7.866,0,0,1,1.921-2.384h-6.729a6.011,6.011,0,0,0-6.011,6.011V57.7l2.4-2.4v-2.4h9.471a6.012,6.012,0,0,0,11.78,0h6.265l4.809,4.81h15.9l-2.4-2.4Zm-17.766,0a3.606,3.606,0,1,1,3.606-3.606A3.606,3.606,0,0,1,129.472,55.3Z" transform="translate(-9.241 -0.248)" fill="#d5002b"/><path d="M167.3,45.681a6.011,6.011,0,0,0-6.011,6.011v1.2h7.08l2.4-2.4H163.9a3.6,3.6,0,0,1,3.4-2.4h8.461V55.3l2.4,2.4V48.086h3.2a7.866,7.866,0,0,1,1.93-2.4Z" transform="translate(-21.999 -0.248)" fill="#d5002b"/><path d="M112.024,68.247a.589.589,0,0,0-.32.079.267.267,0,0,0-.126.241.281.281,0,0,0,.126.247,1.89,1.89,0,0,0,.533.183,1.47,1.47,0,0,1,.614.277.656.656,0,0,1,.206.525.7.7,0,0,1-.261.562,1.043,1.043,0,0,1-.686.216,1.612,1.612,0,0,1-1.1-.428l.281-.338a1.261,1.261,0,0,0,.833.349.571.571,0,0,0,.343-.093.29.29,0,0,0,.127-.247.276.276,0,0,0-.12-.238,1.228,1.228,0,0,0-.411-.155,3.651,3.651,0,0,1-.443-.129,1.007,1.007,0,0,1-.27-.154.641.641,0,0,1-.235-.546.665.665,0,0,1,.267-.567,1.076,1.076,0,0,1,.661-.2,1.584,1.584,0,0,1,.5.083,1.331,1.331,0,0,1,.432.235l-.239.337a.9.9,0,0,0-.319-.174A1.21,1.21,0,0,0,112.024,68.247Z" transform="translate(-9.061 -5.948)" fill="#878a8b"/><path d="M119.806,70.182a1.453,1.453,0,0,1-1.986,0,1.392,1.392,0,0,1,0-1.955,1.453,1.453,0,0,1,1.986,0,1.391,1.391,0,0,1,0,1.955Zm-.328-1.658a.93.93,0,0,0-1.33,0,.989.989,0,0,0,0,1.361.928.928,0,0,0,1.33,0,.989.989,0,0,0,0-1.361Z" transform="translate(-10.711 -5.948)" fill="#878a8b"/><path d="M125.464,68.337v.727h1.175v.414h-1.175v1.091h-.447V67.92h1.766l0,.417Z" transform="translate(-12.666 -5.971)" fill="#878a8b"/><path d="M132.983,68.329v2.24h-.447v-2.24h-.8V67.92h2.054v.409Z" transform="translate(-14.394 -5.971)" fill="#878a8b"/><path d="M138.559,69.826l.592-1.906h.4l.592,1.906.667-1.906h.481l-.925,2.649h-.443l-.558-1.815h-.03l-.558,1.815h-.443l-.925-2.649h.481Z" transform="translate(-15.855 -5.971)" fill="#878a8b"/><path d="M145.783,69.967l-.265.6h-.478l1.167-2.649h.478l1.167,2.649h-.478l-.265-.6Zm1.144-.413-.481-1.092-.481,1.092Z" transform="translate(-17.818 -5.971)" fill="#878a8b"/><path d="M154.451,68.781a.768.768,0,0,1-.572.826l.694.963H154l-.633-.89h-.587v.89h-.447V67.92h.986a1.423,1.423,0,0,1,.867.2A.781.781,0,0,1,154.451,68.781Zm-.595.375a.471.471,0,0,0,.137-.377.4.4,0,0,0-.14-.356.929.929,0,0,0-.5-.1h-.569v.948h.557A.821.821,0,0,0,153.857,69.156Z" transform="translate(-19.696 -5.971)" fill="#878a8b"/><path d="M161.329,67.92v.421h-1.414v.7h1.27v.4h-1.27v.709h1.459v.42h-1.906V67.92Z" transform="translate(-21.531 -5.971)" fill="#878a8b"/><path d="M173.85,70.569V67.92h.447v1.149h1.315V67.92h.447v2.649h-.447V69.486H174.3v1.084Z" transform="translate(-25.232 -5.971)" fill="#878a8b"/><path d="M182.956,70.182a1.453,1.453,0,0,1-1.986,0,1.391,1.391,0,0,1,0-1.955,1.453,1.453,0,0,1,1.986,0,1.391,1.391,0,0,1,0,1.955Zm-.328-1.658a.931.931,0,0,0-1.331,0,.989.989,0,0,0,0,1.361.929.929,0,0,0,1.331,0,.991.991,0,0,0,0-1.361Z" transform="translate(-26.96 -5.948)" fill="#878a8b"/><path d="M188.673,69.963a.678.678,0,0,0,.986,0,.858.858,0,0,0,.182-.576V67.92h.447v1.486a1.176,1.176,0,0,1-.315.881,1.209,1.209,0,0,1-1.615,0,1.179,1.179,0,0,1-.314-.881V67.92h.447v1.467A.858.858,0,0,0,188.673,69.963Z" transform="translate(-28.884 -5.971)" fill="#878a8b"/><path d="M196.3,68.247a.589.589,0,0,0-.32.079.266.266,0,0,0-.125.241.28.28,0,0,0,.125.247,1.89,1.89,0,0,0,.533.183,1.47,1.47,0,0,1,.614.277.656.656,0,0,1,.206.525.693.693,0,0,1-.261.562,1.043,1.043,0,0,1-.686.216,1.612,1.612,0,0,1-1.1-.428l.281-.338a1.263,1.263,0,0,0,.834.349.571.571,0,0,0,.342-.093.29.29,0,0,0,.127-.247.275.275,0,0,0-.119-.238,1.24,1.24,0,0,0-.411-.155,3.651,3.651,0,0,1-.443-.129,1.019,1.019,0,0,1-.27-.154.641.641,0,0,1-.235-.546.665.665,0,0,1,.267-.567,1.078,1.078,0,0,1,.661-.2,1.584,1.584,0,0,1,.5.083,1.316,1.316,0,0,1,.432.235l-.239.337a.9.9,0,0,0-.318-.174A1.214,1.214,0,0,0,196.3,68.247Z" transform="translate(-30.747 -5.948)" fill="#878a8b"/><path d="M204.348,67.92v.421h-1.413v.7H204.2v.4h-1.269v.709h1.459v.42h-1.906V67.92Z" transform="translate(-32.601 -5.971)" fill="#878a8b"/><g transform="translate(75.793 44.717)"><path d="M93.453,51.645A7.663,7.663,0,0,1,82.709,62.526v3.1A10.216,10.216,0,0,0,96.58,51.645Z" transform="translate(-77.573 -46.5)" fill="#d5002b"/><path d="M85.931,47.272h7.725l2.555-2.555H85.931A10.222,10.222,0,0,0,75.793,53.66h2.582A7.665,7.665,0,0,1,85.931,47.272Z" transform="translate(-75.793 -44.717)" fill="#d5002b"/><path d="M79.269,56.758v2.555h6.34l1.469-1.469,1.086-1.087Z" transform="translate(-76.687 -47.815)" fill="#d5002b"/><path d="M78.374,60.2H75.793v8.921l2.581-2.581Z" transform="translate(-75.793 -48.701)" fill="#d5002b"/></g></g></g></svg>